aaram-bold.ufo
<glyph name="exclam" format="1">
  <advance width="210"/>
  <unicode hex="0021"/>
  <outline>
    <contour>
      <point x="80" y="64" type="curve" smooth="yes"/>
      <point x="93" y="64"/>
      <point x="106" y="51"/>
      <point x="106" y="38" type="curve"/>
      <point x="106" y="25" type="line"/>
      <point x="106" y="12"/>
      <point x="93" y="-1"/>
      <point x="80" y="-1" type="curve" smooth="yes"/>
      <point x="64" y="-1"/>
      <point x="54" y="12"/>
      <point x="54" y="25" type="curve"/>
      <point x="54" y="38" type="line"/>
      <point x="54" y="51"/>
      <point x="64" y="64"/>
    </contour>
    <contour>
      <point x="80" y="73" type="curve" smooth="yes"/>
      <point x="64" y="73"/>
      <point x="54" y="86"/>
      <point x="54" y="99" type="curve"/>
      <point x="54" y="698" type="line"/>
      <point x="54" y="711"/>
      <point x="64" y="724"/>
      <point x="80" y="724" type="curve" smooth="yes"/>
      <point x="93" y="724"/>
      <point x="106" y="711"/>
      <point x="106" y="698" type="curve"/>
      <point x="106" y="99" type="line"/>
      <point x="106" y="86"/>
      <point x="93" y="73"/>
    </contour>
    <contour>
      <point x="116" y="698" type="line"/>
      <point x="116" y="716"/>
      <point x="98" y="734"/>
      <point x="80" y="734" type="curve" smooth="yes"/>
      <point x="58" y="734"/>
      <point x="44" y="716"/>
      <point x="44" y="698" type="curve"/>
      <point x="44" y="99" type="line"/>
      <point x="44" y="87"/>
      <point x="50" y="75"/>
      <point x="60" y="68" type="curve"/>
      <point x="50" y="62"/>
      <point x="44" y="50"/>
      <point x="44" y="38" type="curve"/>
      <point x="44" y="25" type="line"/>
      <point x="44" y="7"/>
      <point x="58" y="-11"/>
      <point x="80" y="-11" type="curve" smooth="yes"/>
      <point x="85" y="-11"/>
      <point x="89" y="-9"/>
      <point x="94" y="-7" type="curve"/>
      <point x="94" y="-12" type="line"/>
      <point x="94" y="-25" type="line"/>
      <point x="94" y="-43"/>
      <point x="108" y="-61"/>
      <point x="130" y="-61" type="curve" smooth="yes"/>
      <point x="148" y="-61"/>
      <point x="166" y="-43"/>
      <point x="166" y="-25" type="curve"/>
      <point x="166" y="-12" type="line"/>
      <point x="166" y="0"/>
      <point x="158" y="12"/>
      <point x="148" y="18" type="curve"/>
      <point x="158" y="25"/>
      <point x="166" y="37"/>
      <point x="166" y="49" type="curve"/>
      <point x="166" y="648" type="line"/>
      <point x="166" y="666"/>
      <point x="148" y="684"/>
      <point x="130" y="684" type="curve" smooth="yes"/>
      <point x="125" y="684"/>
      <point x="120" y="683"/>
      <point x="116" y="681" type="curve"/>
    </contour>
  </outline>
</glyph>
<glyph name="quotedbl" format="1">
  <advance width="295"/>
  <unicode hex="0022"/>
  <outline>
    <contour>
      <point x="189" y="679" type="line"/>
      <point x="191" y="628" type="line"/>
      <point x="191" y="612"/>
      <point x="177" y="596"/>
      <point x="160" y="596" type="curve" smooth="yes"/>
      <point x="142" y="596"/>
      <point x="129" y="610"/>
      <point x="129" y="628" type="curve"/>
      <point x="127" y="682" type="line"/>
      <point x="128" y="682" type="line"/>
      <point x="126" y="733" type="line"/>
      <point x="126" y="750"/>
      <point x="140" y="765"/>
      <point x="157" y="765" type="curve" smooth="yes"/>
      <point x="175" y="765"/>
      <point x="188" y="751"/>
      <point x="188" y="734" type="curve"/>
      <point x="190" y="679" type="line"/>
    </contour>
    <contour>
      <point x="118" y="675" type="line"/>
      <point x="120" y="626" type="line"/>
      <point x="120" y="610"/>
      <point x="105" y="594"/>
      <point x="89" y="594" type="curve" smooth="yes"/>
      <point x="71" y="594"/>
      <point x="57" y="608"/>
      <point x="57" y="626" type="curve"/>
      <point x="55" y="680" type="line"/>
      <point x="56" y="680" type="line"/>
      <point x="54" y="731" type="line"/>
      <point x="54" y="748"/>
      <point x="69" y="763"/>
      <point x="85" y="763" type="curve" smooth="yes"/>
      <point x="104" y="763"/>
      <point x="117" y="749"/>
      <point x="117" y="732" type="curve"/>
      <point x="119" y="675" type="line"/>
    </contour>
    <contour>
      <point x="250" y="619" type="line"/>
      <point x="248" y="684" type="line"/>
      <point x="248" y="706"/>
      <point x="231" y="725"/>
      <point x="207" y="725" type="curve" smooth="yes"/>
      <point x="204" y="725"/>
      <point x="201" y="724"/>
      <point x="198" y="724" type="curve"/>
      <point x="198" y="734" type="line"/>
      <point x="198" y="756"/>
      <point x="181" y="775"/>
      <point x="157" y="775" type="curve" smooth="yes"/>
      <point x="142" y="775"/>
      <point x="128" y="766"/>
      <point x="121" y="753" type="curve"/>
      <point x="114" y="765"/>
      <point x="101" y="773"/>
      <point x="85" y="773" type="curve" smooth="yes"/>
      <point x="64" y="773"/>
      <point x="44" y="753"/>
      <point x="44" y="731" type="curve"/>
      <point x="46" y="680" type="line"/>
      <point x="47" y="626" type="line"/>
      <point x="47" y="602"/>
      <point x="65" y="584"/>
      <point x="89" y="584" type="curve" smooth="yes"/>
      <point x="91" y="584"/>
      <point x="94" y="584"/>
      <point x="97" y="585" type="curve"/>
      <point x="97" y="576" type="line"/>
      <point x="97" y="552"/>
      <point x="115" y="534"/>
      <point x="139" y="534" type="curve" smooth="yes"/>
      <point x="153" y="534"/>
      <point x="167" y="543"/>
      <point x="174" y="556" type="curve"/>
      <point x="181" y="544"/>
      <point x="194" y="536"/>
      <point x="210" y="536" type="curve" smooth="yes"/>
      <point x="232" y="536"/>
      <point x="251" y="557"/>
      <point x="251" y="578" type="curve"/>
      <point x="249" y="629" type="line"/>
    </contour>
  </outline>
</glyph>
<glyph name="numbersign" format="1">
  <advance width="766"/>
  <unicode hex="0023"/>
  <outline>
    <contour>
      <point x="324" y="454" type="line"/>
      <point x="316" y="415"/>
      <point x="308" y="382"/>
      <point x="300" y="342" type="curve"/>
      <point x="338" y="334"/>
      <point x="368" y="327"/>
      <point x="408" y="319" type="curve"/>
      <point x="415" y="357"/>
      <point x="424" y="391"/>
      <point x="432" y="431" type="curve"/>
    </contour>
    <contour>
      <point x="642" y="446" type="line"/>
      <point x="658" y="440"/>
      <point x="666" y="423"/>
      <point x="660" y="408" type="curve" smooth="yes"/>
      <point x="655" y="397"/>
      <point x="645" y="388"/>
      <point x="632" y="388" type="curve" smooth="yes"/>
      <point x="630" y="388"/>
      <point x="626" y="388"/>
      <point x="625" y="389" type="curve"/>
      <point x="490" y="418" type="line"/>
      <point x="481" y="381"/>
      <point x="475" y="345"/>
      <point x="467" y="306" type="curve"/>
      <point x="518" y="296"/>
      <point x="569" y="283"/>
      <point x="620" y="273" type="curve" smooth="yes"/>
      <point x="636" y="269"/>
      <point x="645" y="251"/>
      <point x="639" y="235" type="curve"/>
      <point x="640" y="236" type="line"/>
      <point x="637" y="223"/>
      <point x="625" y="215"/>
      <point x="612" y="215" type="curve" smooth="yes"/>
      <point x="609" y="215"/>
      <point x="606" y="215"/>
      <point x="603" y="216" type="curve"/>
      <point x="454" y="248" type="line"/>
      <point x="424" y="112" type="line"/>
      <point x="419" y="98"/>
      <point x="408" y="89"/>
      <point x="395" y="89" type="curve" smooth="yes"/>
      <point x="392" y="89"/>
      <point x="388" y="89"/>
      <point x="385" y="91" type="curve"/>
      <point x="386" y="91" type="line"/>
      <point x="370" y="96"/>
      <point x="361" y="112"/>
      <point x="367" y="127" type="curve"/>
      <point x="366" y="126" type="line"/>
      <point x="376" y="173"/>
      <point x="386" y="213"/>
      <point x="395" y="260" type="curve"/>
      <point x="357" y="268"/>
      <point x="327" y="276"/>
      <point x="287" y="283" type="curve"/>
      <point x="276" y="226"/>
      <point x="261" y="167"/>
      <point x="250" y="110" type="curve" smooth="yes"/>
      <point x="247" y="98"/>
      <point x="235" y="89"/>
      <point x="222" y="89" type="curve" smooth="yes"/>
      <point x="218" y="89"/>
      <point x="215" y="89"/>
      <point x="211" y="91" type="curve" smooth="yes"/>
      <point x="204" y="93"/>
      <point x="198" y="98"/>
      <point x="195" y="106" type="curve"/>
      <point x="195" y="105" type="line"/>
      <point x="191" y="113"/>
      <point x="190" y="119"/>
      <point x="193" y="126" type="curve"/>
      <point x="230" y="296" type="line"/>
      <point x="209" y="300"/>
      <point x="192" y="304"/>
      <point x="172" y="308" type="curve"/>
      <point x="159" y="312"/>
      <point x="144" y="317"/>
      <point x="133" y="317" type="curve" smooth="yes"/>
      <point x="123" y="317"/>
      <point x="116" y="312"/>
      <point x="113" y="301" type="curve"/>
      <point x="108" y="290"/>
      <point x="98" y="281"/>
      <point x="85" y="281" type="curve" smooth="yes"/>
      <point x="82" y="281"/>
      <point x="78" y="281"/>
      <point x="74" y="283" type="curve" smooth="yes"/>
      <point x="68" y="286"/>
      <point x="62" y="291"/>
      <point x="58" y="299" type="curve" smooth="yes"/>
      <point x="55" y="305"/>
      <point x="54" y="311"/>
      <point x="57" y="321" type="curve" smooth="yes"/>
      <point x="70" y="357"/>
      <point x="96" y="376"/>
      <point x="134" y="376" type="curve" smooth="yes"/>
      <point x="149" y="376"/>
      <point x="166" y="373"/>
      <point x="185" y="366" type="curve"/>
      <point x="184" y="367" type="line"/>
      <point x="242" y="355" type="line"/>
      <point x="251" y="392"/>
      <point x="256" y="427"/>
      <point x="265" y="466" type="curve"/>
      <point x="240" y="471"/>
      <point x="220" y="477"/>
      <point x="194" y="482" type="curve"/>
      <point x="180" y="486"/>
      <point x="166" y="490"/>
      <point x="154" y="490" type="curve" smooth="yes"/>
      <point x="144" y="490"/>
      <point x="136" y="486"/>
      <point x="133" y="474" type="curve"/>
      <point x="128" y="463"/>
      <point x="118" y="455"/>
      <point x="105" y="455" type="curve" smooth="yes"/>
      <point x="102" y="455"/>
      <point x="99" y="455"/>
      <point x="96" y="457" type="curve"/>
      <point x="97" y="457" type="line"/>
      <point x="88" y="460"/>
      <point x="82" y="464"/>
      <point x="79" y="472" type="curve"/>
      <point x="79" y="471" type="line"/>
      <point x="74" y="479"/>
      <point x="74" y="485"/>
      <point x="75" y="490" type="curve"/>
      <point x="90" y="529"/>
      <point x="116" y="549"/>
      <point x="155" y="549" type="curve" smooth="yes"/>
      <point x="170" y="549"/>
      <point x="187" y="546"/>
      <point x="206" y="540" type="curve"/>
      <point x="205" y="540" type="line"/>
      <point x="278" y="525" type="line"/>
      <point x="281" y="537"/>
      <point x="283" y="545"/>
      <point x="285" y="558" type="curve"/>
      <point x="290" y="572"/>
      <point x="296" y="590"/>
      <point x="294" y="600" type="curve" smooth="yes"/>
      <point x="293" y="609"/>
      <point x="288" y="614"/>
      <point x="278" y="618" type="curve" smooth="yes"/>
      <point x="270" y="620"/>
      <point x="265" y="624"/>
      <point x="262" y="629" type="curve"/>
      <point x="259" y="638"/>
      <point x="257" y="647"/>
      <point x="260" y="655" type="curve"/>
      <point x="260" y="654" type="line"/>
      <point x="264" y="667"/>
      <point x="275" y="675"/>
      <point x="291" y="675" type="curve" smooth="yes"/>
      <point x="292" y="675"/>
      <point x="293" y="674"/>
      <point x="295" y="674" type="curve" smooth="yes"/>
      <point x="334" y="662"/>
      <point x="353" y="636"/>
      <point x="353" y="596" type="curve" smooth="yes"/>
      <point x="353" y="580"/>
      <point x="350" y="563"/>
      <point x="344" y="544" type="curve"/>
      <point x="344" y="545" type="line"/>
      <point x="336" y="513" type="line"/>
      <point x="375" y="505"/>
      <point x="405" y="496"/>
      <point x="444" y="488" type="curve"/>
      <point x="459" y="557" type="line"/>
      <point x="464" y="571"/>
      <point x="469" y="589"/>
      <point x="467" y="600" type="curve" smooth="yes"/>
      <point x="467" y="608"/>
      <point x="461" y="614"/>
      <point x="451" y="618" type="curve" smooth="yes"/>
      <point x="443" y="620"/>
      <point x="439" y="624"/>
      <point x="436" y="629" type="curve" smooth="yes"/>
      <point x="432" y="638"/>
      <point x="431" y="645"/>
      <point x="432" y="648" type="curve" smooth="yes"/>
      <point x="437" y="665"/>
      <point x="449" y="675"/>
      <point x="462" y="675" type="curve" smooth="yes"/>
      <point x="463" y="675"/>
      <point x="464" y="674"/>
      <point x="465" y="674" type="curve"/>
      <point x="468" y="674" type="line"/>
      <point x="507" y="662"/>
      <point x="526" y="636"/>
      <point x="526" y="596" type="curve" smooth="yes"/>
      <point x="526" y="580"/>
      <point x="523" y="563"/>
      <point x="518" y="544" type="curve"/>
      <point x="513" y="519"/>
      <point x="508" y="503"/>
      <point x="503" y="477" type="curve"/>
      <point x="640" y="447" type="line"/>
      <point x="639" y="447" type="line"/>
    </contour>
    <contour>
      <point x="685" y="408" type="line"/>
      <point x="671" y="411" type="line"/>
      <point x="674" y="430"/>
      <point x="663" y="449"/>
      <point x="643" y="456" type="curve"/>
      <point x="635" y="458" type="line"/>
      <point x="573" y="472" type="line"/>
      <point x="578" y="491" type="line"/>
      <point x="583" y="510"/>
      <point x="586" y="528"/>
      <point x="586" y="546" type="curve" smooth="yes"/>
      <point x="586" y="587"/>
      <point x="568" y="616"/>
      <point x="531" y="631" type="curve"/>
      <point x="522" y="657"/>
      <point x="502" y="674"/>
      <point x="471" y="684" type="curve"/>
      <point x="464" y="684" type="line"/>
      <point x="445" y="685"/>
      <point x="428" y="672"/>
      <point x="422" y="651" type="curve"/>
      <point x="423" y="651" type="line"/>
      <point x="421" y="646"/>
      <point x="423" y="635"/>
      <point x="429" y="621" type="curve" smooth="yes"/>
      <point x="432" y="616"/>
      <point x="440" y="611"/>
      <point x="449" y="608" type="curve"/>
      <point x="454" y="605"/>
      <point x="457" y="603"/>
      <point x="457" y="598" type="curve"/>
      <point x="459" y="589"/>
      <point x="453" y="570"/>
      <point x="448" y="554" type="curve"/>
      <point x="436" y="500" type="line"/>
      <point x="407" y="506" type="line"/>
      <point x="411" y="521"/>
      <point x="413" y="534"/>
      <point x="413" y="546" type="curve" smooth="yes"/>
      <point x="413" y="587"/>
      <point x="395" y="616"/>
      <point x="358" y="631" type="curve"/>
      <point x="349" y="657"/>
      <point x="329" y="674"/>
      <point x="298" y="684" type="curve"/>
      <point x="297" y="684"/>
      <point x="293" y="685"/>
      <point x="292" y="685" type="curve" smooth="yes"/>
      <point x="270" y="685"/>
      <point x="256" y="674"/>
      <point x="250" y="657" type="curve"/>
      <point x="251" y="658" type="line"/>
      <point x="247" y="649"/>
      <point x="250" y="635"/>
      <point x="255" y="621" type="curve"/>
      <point x="258" y="616"/>
      <point x="267" y="611"/>
      <point x="276" y="608" type="curve" smooth="yes"/>
      <point x="280" y="606"/>
      <point x="283" y="603"/>
      <point x="284" y="599" type="curve"/>
      <point x="284" y="598" type="line"/>
      <point x="286" y="589"/>
      <point x="280" y="571"/>
      <point x="275" y="557" type="curve" smooth="yes"/>
      <point x="274" y="553"/>
      <point x="274" y="547"/>
      <point x="271" y="537" type="curve"/>
      <point x="207" y="550" type="line"/>
      <point x="208" y="549" type="line"/>
      <point x="188" y="556"/>
      <point x="170" y="559"/>
      <point x="155" y="559" type="curve" smooth="yes"/>
      <point x="111" y="559"/>
      <point x="82" y="536"/>
      <point x="65" y="491" type="curve"/>
      <point x="64" y="485"/>
      <point x="64" y="477"/>
      <point x="71" y="466" type="curve"/>
      <point x="70" y="467" type="line"/>
      <point x="73" y="460"/>
      <point x="84" y="452"/>
      <point x="91" y="449" type="curve"/>
      <point x="96" y="445"/>
      <point x="100" y="445"/>
      <point x="105" y="445" type="curve" smooth="yes"/>
      <point x="109" y="445"/>
      <point x="113" y="446"/>
      <point x="117" y="447" type="curve"/>
      <point x="115" y="441" type="line"/>
      <point x="114" y="435"/>
      <point x="114" y="427"/>
      <point x="121" y="416" type="curve"/>
      <point x="120" y="417" type="line"/>
      <point x="123" y="410"/>
      <point x="134" y="402"/>
      <point x="141" y="399" type="curve"/>
      <point x="146" y="395"/>
      <point x="150" y="395"/>
      <point x="155" y="395" type="curve" smooth="yes"/>
      <point x="173" y="395"/>
      <point x="186" y="406"/>
      <point x="193" y="422" type="curve"/>
      <point x="194" y="428"/>
      <point x="199" y="430"/>
      <point x="204" y="430" type="curve" smooth="yes"/>
      <point x="212" y="430"/>
      <point x="226" y="426"/>
      <point x="240" y="422" type="curve"/>
      <point x="245" y="421" type="line"/>
      <point x="245" y="419"/>
      <point x="244" y="417"/>
      <point x="244" y="415" type="curve" smooth="yes"/>
      <point x="241" y="399"/>
      <point x="239" y="384"/>
      <point x="235" y="367" type="curve"/>
      <point x="186" y="377" type="line"/>
      <point x="187" y="376" type="line"/>
      <point x="167" y="383"/>
      <point x="149" y="386"/>
      <point x="134" y="386" type="curve" smooth="yes"/>
      <point x="91" y="386"/>
      <point x="61" y="365"/>
      <point x="47" y="324" type="curve" smooth="yes"/>
      <point x="43" y="312"/>
      <point x="44" y="303"/>
      <point x="49" y="295" type="curve" smooth="yes"/>
      <point x="54" y="285"/>
      <point x="62" y="278"/>
      <point x="70" y="274" type="curve" smooth="yes"/>
      <point x="76" y="271"/>
      <point x="81" y="271"/>
      <point x="85" y="271" type="curve" smooth="yes"/>
      <point x="89" y="271"/>
      <point x="93" y="271"/>
      <point x="96" y="273" type="curve"/>
      <point x="93" y="261"/>
      <point x="94" y="253"/>
      <point x="99" y="245" type="curve" smooth="yes"/>
      <point x="104" y="235"/>
      <point x="112" y="228"/>
      <point x="120" y="224" type="curve" smooth="yes"/>
      <point x="126" y="221"/>
      <point x="131" y="221"/>
      <point x="135" y="221" type="curve" smooth="yes"/>
      <point x="152" y="221"/>
      <point x="166" y="234"/>
      <point x="174" y="251" type="curve"/>
      <point x="175" y="255"/>
      <point x="179" y="257"/>
      <point x="183" y="257" type="curve" smooth="yes"/>
      <point x="191" y="257"/>
      <point x="201" y="254"/>
      <point x="210" y="251" type="curve"/>
      <point x="201" y="210"/>
      <point x="191" y="168"/>
      <point x="183" y="128" type="curve"/>
      <point x="180" y="119"/>
      <point x="182" y="111"/>
      <point x="186" y="101" type="curve" smooth="yes"/>
      <point x="190" y="91"/>
      <point x="198" y="84"/>
      <point x="208" y="81" type="curve"/>
      <point x="207" y="82" type="line"/>
      <point x="213" y="79"/>
      <point x="217" y="79"/>
      <point x="222" y="79" type="curve" smooth="yes"/>
      <point x="226" y="79"/>
      <point x="230" y="79"/>
      <point x="233" y="80" type="curve"/>
      <point x="233" y="78" type="line"/>
      <point x="230" y="69"/>
      <point x="232" y="61"/>
      <point x="236" y="51" type="curve" smooth="yes"/>
      <point x="240" y="41"/>
      <point x="248" y="34"/>
      <point x="258" y="31" type="curve"/>
      <point x="257" y="32" type="line"/>
      <point x="263" y="29"/>
      <point x="267" y="29"/>
      <point x="272" y="29" type="curve" smooth="yes"/>
      <point x="290" y="29"/>
      <point x="306" y="41"/>
      <point x="310" y="58" type="curve"/>
      <point x="315" y="86"/>
      <point x="321" y="115"/>
      <point x="328" y="144" type="curve"/>
      <point x="333" y="170"/>
      <point x="340" y="196"/>
      <point x="345" y="222" type="curve"/>
      <point x="375" y="216" type="line"/>
      <point x="367" y="179" type="line"/>
      <point x="364" y="162"/>
      <point x="359" y="145"/>
      <point x="356" y="128" type="curve"/>
      <point x="357" y="129" type="line"/>
      <point x="350" y="111"/>
      <point x="361" y="90"/>
      <point x="381" y="82" type="curve"/>
      <point x="386" y="78"/>
      <point x="390" y="79"/>
      <point x="395" y="79" type="curve" smooth="yes"/>
      <point x="399" y="79"/>
      <point x="403" y="79"/>
      <point x="406" y="81" type="curve"/>
      <point x="406" y="78" type="line"/>
      <point x="407" y="79" type="line"/>
      <point x="400" y="61"/>
      <point x="411" y="40"/>
      <point x="431" y="32" type="curve"/>
      <point x="436" y="28"/>
      <point x="440" y="29"/>
      <point x="445" y="29" type="curve" smooth="yes"/>
      <point x="462" y="29"/>
      <point x="477" y="43"/>
      <point x="485" y="65" type="curve"/>
      <point x="512" y="186" type="line"/>
      <point x="561" y="176"/>
      <point x="602" y="166"/>
      <point x="651" y="156" type="curve"/>
      <point x="650" y="157" type="line"/>
      <point x="656" y="155"/>
      <point x="659" y="155"/>
      <point x="662" y="155" type="curve" smooth="yes"/>
      <point x="680" y="155"/>
      <point x="696" y="166"/>
      <point x="700" y="184" type="curve"/>
      <point x="699" y="183" type="line"/>
      <point x="705" y="203"/>
      <point x="693" y="228"/>
      <point x="672" y="233" type="curve"/>
      <point x="664" y="234"/>
      <point x="657" y="235"/>
      <point x="650" y="237" type="curve"/>
      <point x="653" y="256"/>
      <point x="641" y="278"/>
      <point x="622" y="283" type="curve"/>
      <point x="596" y="288"/>
      <point x="570" y="293"/>
      <point x="545" y="299" type="curve"/>
      <point x="536" y="301" type="line"/>
      <point x="540" y="320"/>
      <point x="542" y="339"/>
      <point x="547" y="357" type="curve"/>
      <point x="591" y="348"/>
      <point x="629" y="338"/>
      <point x="672" y="329" type="curve"/>
      <point x="676" y="325"/>
      <point x="679" y="328"/>
      <point x="682" y="328" type="curve" smooth="yes"/>
      <point x="699" y="328"/>
      <point x="712" y="340"/>
      <point x="719" y="354" type="curve"/>
      <point x="727" y="375"/>
      <point x="716" y="398"/>
      <point x="693" y="406" type="curve"/>
    </contour>
    <contour>
      <point x="400" y="331" type="curve"/>
      <point x="370" y="337" type="line"/>
      <point x="373" y="351" type="line"/>
      <point x="375" y="365"/>
      <point x="379" y="378"/>
      <point x="382" y="392" type="curve"/>
      <point x="412" y="385" type="line"/>
      <point x="411" y="382" type="line"/>
      <point x="407" y="365"/>
      <point x="403" y="348"/>
    </contour>
  </outline>
</glyph>
<glyph name="dollar" format="1">
  <advance width="375"/>
  <unicode hex="0024"/>
  <outline>
    <contour>
      <point x="173" y="679" type="line"/>
      <point x="170" y="679"/>
      <point x="169" y="680"/>
      <point x="167" y="680" type="curve"/>
      <point x="167" y="686" type="line"/>
    </contour>
    <contour>
      <point x="167" y="392" type="line"/>
      <point x="167" y="680" type="line"/>
      <point x="161" y="680" type="line"/>
      <point x="155" y="680" type="line"/>
      <point x="155" y="392" type="line"/>
    </contour>
    <contour>
      <point x="237" y="304" type="line"/>
      <point x="236" y="305"/>
      <point x="236" y="305"/>
      <point x="236" y="306" type="curve"/>
      <point x="236" y="307" type="line"/>
    </contour>
    <contour>
      <point x="217" y="78" type="line"/>
      <point x="228" y="92"/>
      <point x="236" y="110"/>
      <point x="236" y="129" type="curve"/>
      <point x="236" y="306" type="line"/>
      <point x="231" y="317"/>
      <point x="225" y="326"/>
      <point x="217" y="332" type="curve"/>
    </contour>
    <contour>
      <point x="167" y="341" type="line"/>
      <point x="155" y="341" type="line"/>
      <point x="155" y="54" type="line"/>
      <point x="167" y="54" type="line"/>
    </contour>
    <contour>
      <point x="85" y="428" type="line"/>
      <point x="85" y="427"/>
      <point x="85" y="426"/>
      <point x="86" y="425" type="curve"/>
    </contour>
    <contour>
      <point x="86" y="425" type="line"/>
      <point x="91" y="415"/>
      <point x="96" y="407"/>
      <point x="105" y="401" type="curve"/>
      <point x="105" y="655" type="line"/>
      <point x="94" y="642"/>
      <point x="86" y="622"/>
      <point x="86" y="605" type="curve"/>
    </contour>
    <contour>
      <point x="236" y="542" type="line"/>
      <point x="236" y="605" type="line"/>
      <point x="236" y="623"/>
      <point x="228" y="642"/>
      <point x="217" y="655" type="curve"/>
      <point x="217" y="388" type="line"/>
      <point x="227" y="384"/>
      <point x="239" y="377"/>
      <point x="248" y="368" type="curve"/>
      <point x="264" y="352" type="line"/>
      <point x="278" y="331"/>
      <point x="287" y="306"/>
      <point x="287" y="276" type="curve"/>
      <point x="287" y="129" type="line"/>
      <point x="287" y="81"/>
      <point x="258" y="37"/>
      <point x="217" y="17" type="curve"/>
      <point x="217" y="-49" type="line"/>
      <point x="217" y="-63"/>
      <point x="206" y="-74"/>
      <point x="191" y="-74" type="curve" smooth="yes"/>
      <point x="178" y="-74"/>
      <point x="167" y="-63"/>
      <point x="167" y="-49" type="curve"/>
      <point x="167" y="3" type="line"/>
      <point x="161" y="3" type="line"/>
      <point x="157" y="3"/>
      <point x="159" y="2"/>
      <point x="155" y="3" type="curve"/>
      <point x="155" y="-49" type="line"/>
      <point x="155" y="-63"/>
      <point x="145" y="-74"/>
      <point x="130" y="-74" type="curve" smooth="yes"/>
      <point x="116" y="-74"/>
      <point x="105" y="-63"/>
      <point x="105" y="-49" type="curve"/>
      <point x="105" y="17" type="line"/>
      <point x="65" y="37"/>
      <point x="36" y="81"/>
      <point x="36" y="129" type="curve"/>
      <point x="36" y="170" type="line"/>
      <point x="86" y="170" type="line"/>
      <point x="86" y="129" type="line"/>
      <point x="86" y="109"/>
      <point x="94" y="92"/>
      <point x="105" y="79" type="curve"/>
      <point x="105" y="345" type="line"/>
      <point x="98" y="348"/>
      <point x="82" y="357"/>
      <point x="77" y="361" type="curve"/>
      <point x="60" y="380" type="line"/>
      <point x="45" y="398"/>
      <point x="38" y="422"/>
      <point x="36" y="448" type="curve"/>
      <point x="36" y="605" type="line"/>
      <point x="36" y="653"/>
      <point x="65" y="696"/>
      <point x="105" y="717" type="curve"/>
      <point x="105" y="782" type="line"/>
      <point x="105" y="797"/>
      <point x="116" y="808"/>
      <point x="130" y="808" type="curve" smooth="yes"/>
      <point x="145" y="808"/>
      <point x="155" y="797"/>
      <point x="155" y="782" type="curve"/>
      <point x="155" y="731" type="line"/>
      <point x="161" y="731" type="line"/>
      <point x="165" y="731"/>
      <point x="162" y="732"/>
      <point x="167" y="731" type="curve"/>
      <point x="167" y="782" type="line"/>
      <point x="167" y="797"/>
      <point x="178" y="808"/>
      <point x="191" y="808" type="curve" smooth="yes"/>
      <point x="206" y="808"/>
      <point x="217" y="797"/>
      <point x="217" y="782" type="curve"/>
      <point x="217" y="717" type="line"/>
      <point x="258" y="696"/>
      <point x="287" y="653"/>
      <point x="287" y="605" type="curve"/>
      <point x="287" y="542" type="line"/>
    </contour>
    <contour>
      <point x="347" y="482" type="line"/>
      <point x="347" y="555" type="line"/>
      <point x="347" y="604"/>
      <point x="320" y="649"/>
      <point x="279" y="673" type="curve" smooth="yes"/>
      <point x="278" y="674"/>
      <point x="277" y="675"/>
      <point x="277" y="676" type="curve"/>
      <point x="277" y="732" type="line"/>
      <point x="277" y="753"/>
      <point x="262" y="768"/>
      <point x="241" y="768" type="curve" smooth="yes"/>
      <point x="236" y="768"/>
      <point x="231" y="767"/>
      <point x="227" y="765" type="curve"/>
      <point x="227" y="782" type="line"/>
      <point x="227" y="803"/>
      <point x="212" y="818"/>
      <point x="191" y="818" type="curve" smooth="yes"/>
      <point x="178" y="818"/>
      <point x="167" y="811"/>
      <point x="161" y="800" type="curve"/>
      <point x="155" y="811"/>
      <point x="144" y="818"/>
      <point x="130" y="818" type="curve" smooth="yes"/>
      <point x="110" y="818"/>
      <point x="95" y="803"/>
      <point x="95" y="782" type="curve"/>
      <point x="95" y="723" type="line"/>
      <point x="54" y="699"/>
      <point x="26" y="656"/>
      <point x="26" y="605" type="curve"/>
      <point x="26" y="447" type="line"/>
      <point x="28" y="419"/>
      <point x="36" y="393"/>
      <point x="52" y="374" type="curve"/>
      <point x="70" y="354" type="line"/>
      <point x="74" y="350"/>
      <point x="83" y="344"/>
      <point x="91" y="340" type="curve"/>
      <point x="92" y="337"/>
      <point x="93" y="335"/>
      <point x="95" y="333" type="curve"/>
      <point x="95" y="180" type="line"/>
      <point x="26" y="180" type="line"/>
      <point x="26" y="129" type="line"/>
      <point x="26" y="78"/>
      <point x="52" y="35"/>
      <point x="93" y="12" type="curve"/>
      <point x="95" y="9" type="line"/>
      <point x="95" y="-49" type="line"/>
      <point x="95" y="-69"/>
      <point x="110" y="-84"/>
      <point x="130" y="-84" type="curve" smooth="yes"/>
      <point x="135" y="-84"/>
      <point x="140" y="-83"/>
      <point x="145" y="-81" type="curve"/>
      <point x="145" y="-99" type="line"/>
      <point x="145" y="-119"/>
      <point x="160" y="-134"/>
      <point x="180" y="-134" type="curve" smooth="yes"/>
      <point x="194" y="-134"/>
      <point x="205" y="-127"/>
      <point x="211" y="-116" type="curve"/>
      <point x="217" y="-127"/>
      <point x="228" y="-134"/>
      <point x="241" y="-134" type="curve" smooth="yes"/>
      <point x="262" y="-134"/>
      <point x="277" y="-119"/>
      <point x="277" y="-99" type="curve"/>
      <point x="277" y="-39" type="line"/>
      <point x="320" y="-16"/>
      <point x="347" y="28"/>
      <point x="347" y="79" type="curve"/>
      <point x="347" y="226" type="line"/>
      <point x="347" y="258"/>
      <point x="337" y="285"/>
      <point x="322" y="308" type="curve"/>
      <point x="305" y="325" type="line"/>
      <point x="298" y="332"/>
      <point x="289" y="338"/>
      <point x="281" y="343" type="curve"/>
      <point x="280" y="345"/>
      <point x="278" y="347"/>
      <point x="277" y="350" type="curve"/>
      <point x="277" y="482" type="line"/>
    </contour>
  </outline>
</glyph>
<glyph name="percent" format="1">
  <advance width="577"/>
  <unicode hex="0025"/>
  <outline>
    <contour>
      <point x="346" y="725" type="curve" smooth="yes"/>
      <point x="383" y="705"/>
      <point x="398" y="678"/>
      <point x="398" y="644" type="curve" smooth="yes"/>
      <point x="398" y="620"/>
      <point x="389" y="593"/>
      <point x="376" y="566" type="curve"/>
      <point x="377" y="567" type="line"/>
      <point x="174" y="16" type="line"/>
      <point x="168" y="2"/>
      <point x="153" y="-3"/>
      <point x="140" y="4" type="curve" smooth="yes"/>
      <point x="128" y="11"/>
      <point x="124" y="25"/>
      <point x="128" y="38" type="curve"/>
      <point x="127" y="37" type="line"/>
      <point x="328" y="583" type="line"/>
      <point x="340" y="606"/>
      <point x="348" y="626"/>
      <point x="348" y="644" type="curve" smooth="yes"/>
      <point x="348" y="659"/>
      <point x="341" y="670"/>
      <point x="323" y="679" type="curve" smooth="yes"/>
      <point x="311" y="686"/>
      <point x="305" y="700"/>
      <point x="312" y="713" type="curve" smooth="yes"/>
      <point x="318" y="727"/>
      <point x="334" y="732"/>
    </contour>
    <contour>
      <point x="390" y="69" type="curve" smooth="yes"/>
      <point x="418" y="69"/>
      <point x="440" y="92"/>
      <point x="440" y="119" type="curve"/>
      <point x="440" y="243" type="line"/>
      <point x="440" y="270"/>
      <point x="418" y="292"/>
      <point x="390" y="292" type="curve" smooth="yes"/>
      <point x="363" y="292"/>
      <point x="341" y="270"/>
      <point x="341" y="243" type="curve"/>
      <point x="341" y="119" type="line"/>
      <point x="341" y="92"/>
      <point x="363" y="69"/>
    </contour>
    <contour>
      <point x="390" y="346" type="curve" smooth="yes"/>
      <point x="448" y="346"/>
      <point x="494" y="299"/>
      <point x="494" y="243" type="curve"/>
      <point x="494" y="119" type="line"/>
      <point x="494" y="61"/>
      <point x="448" y="16"/>
      <point x="390" y="16" type="curve" smooth="yes"/>
      <point x="334" y="16"/>
      <point x="288" y="61"/>
      <point x="288" y="119" type="curve"/>
      <point x="288" y="243" type="line"/>
      <point x="288" y="299"/>
      <point x="334" y="346"/>
    </contour>
    <contour>
      <point x="132" y="396" type="curve" smooth="yes"/>
      <point x="160" y="396"/>
      <point x="182" y="419"/>
      <point x="182" y="446" type="curve"/>
      <point x="182" y="570" type="line"/>
      <point x="182" y="597"/>
      <point x="160" y="620"/>
      <point x="132" y="620" type="curve" smooth="yes"/>
      <point x="105" y="620"/>
      <point x="83" y="597"/>
      <point x="83" y="570" type="curve"/>
      <point x="83" y="446" type="line"/>
      <point x="83" y="419"/>
      <point x="105" y="396"/>
    </contour>
    <contour>
      <point x="236" y="446" type="line"/>
      <point x="236" y="389"/>
      <point x="190" y="343"/>
      <point x="132" y="343" type="curve" smooth="yes"/>
      <point x="76" y="343"/>
      <point x="30" y="389"/>
      <point x="30" y="446" type="curve"/>
      <point x="30" y="570" type="line"/>
      <point x="30" y="626"/>
      <point x="76" y="672"/>
      <point x="132" y="672" type="curve" smooth="yes"/>
      <point x="190" y="672"/>
      <point x="236" y="626"/>
      <point x="236" y="570" type="curve"/>
    </contour>
    <contour>
      <point x="390" y="356" type="curve" smooth="yes"/>
      <point x="386" y="356"/>
      <point x="381" y="355"/>
      <point x="377" y="355" type="curve"/>
      <point x="436" y="514" type="line"/>
      <point x="436" y="513" type="line"/>
      <point x="449" y="541"/>
      <point x="458" y="569"/>
      <point x="458" y="594" type="curve" smooth="yes"/>
      <point x="458" y="632"/>
      <point x="442" y="662"/>
      <point x="401" y="684" type="curve"/>
      <point x="400" y="684" type="line"/>
      <point x="392" y="703"/>
      <point x="376" y="720"/>
      <point x="351" y="734" type="curve" smooth="yes"/>
      <point x="334" y="744"/>
      <point x="311" y="737"/>
      <point x="303" y="717" type="curve"/>
      <point x="303" y="718" type="line"/>
      <point x="293" y="699"/>
      <point x="301" y="680"/>
      <point x="318" y="670" type="curve" smooth="yes"/>
      <point x="332" y="663"/>
      <point x="338" y="655"/>
      <point x="338" y="644" type="curve" smooth="yes"/>
      <point x="338" y="628"/>
      <point x="332" y="612"/>
      <point x="322" y="593" type="curve"/>
      <point x="296" y="522" type="line"/>
      <point x="295" y="564"/>
      <point x="270" y="601"/>
      <point x="234" y="620" type="curve"/>
      <point x="215" y="656"/>
      <point x="177" y="682"/>
      <point x="132" y="682" type="curve" smooth="yes"/>
      <point x="71" y="682"/>
      <point x="20" y="631"/>
      <point x="20" y="570" type="curve"/>
      <point x="20" y="446" type="line"/>
      <point x="20" y="401"/>
      <point x="45" y="363"/>
      <point x="82" y="345" type="curve"/>
      <point x="100" y="308"/>
      <point x="139" y="283"/>
      <point x="182" y="283" type="curve" smooth="yes"/>
      <point x="191" y="283"/>
      <point x="200" y="284"/>
      <point x="209" y="286" type="curve"/>
      <point x="116" y="34" type="line"/>
      <point x="113" y="21"/>
      <point x="119" y="4"/>
      <point x="135" y="-5" type="curve" smooth="yes"/>
      <point x="147" y="-11"/>
      <point x="160" y="-11"/>
      <point x="170" y="-4" type="curve"/>
      <point x="166" y="-16" type="line"/>
      <point x="163" y="-29"/>
      <point x="169" y="-46"/>
      <point x="185" y="-55" type="curve" smooth="yes"/>
      <point x="203" y="-65"/>
      <point x="225" y="-58"/>
      <point x="233" y="-38" type="curve"/>
      <point x="281" y="93" type="line"/>
      <point x="288" y="60"/>
      <point x="310" y="32"/>
      <point x="339" y="18" type="curve"/>
      <point x="358" y="-19"/>
      <point x="396" y="-44"/>
      <point x="440" y="-44" type="curve" smooth="yes"/>
      <point x="504" y="-44"/>
      <point x="554" y="5"/>
      <point x="554" y="69" type="curve"/>
      <point x="554" y="193" type="line"/>
      <point x="554" y="236"/>
      <point x="529" y="274"/>
      <point x="492" y="293" type="curve"/>
      <point x="473" y="330"/>
      <point x="435" y="356"/>
    </contour>
    <contour>
      <point x="143" y="407" type="curve"/>
      <point x="143" y="520" type="line"/>
      <point x="143" y="538"/>
      <point x="155" y="554"/>
      <point x="172" y="558" type="curve"/>
      <point x="172" y="446" type="line"/>
      <point x="172" y="428"/>
      <point x="159" y="412"/>
    </contour>
    <contour>
      <point x="401" y="80" type="curve"/>
      <point x="401" y="193" type="line"/>
      <point x="401" y="210"/>
      <point x="413" y="226"/>
      <point x="430" y="230" type="curve"/>
      <point x="430" y="119" type="line"/>
      <point x="430" y="101"/>
      <point x="417" y="85"/>
    </contour>
  </outline>
</glyph>
<glyph name="ampersand" format="1">
  <advance width="526"/>
  <unicode hex="0026"/>
  <outline>
    <contour>
      <point x="201" y="55" type="curve" smooth="yes"/>
      <point x="241" y="55"/>
      <point x="273" y="87"/>
      <point x="273" y="126" type="curve"/>
      <point x="273" y="305" type="line"/>
      <point x="130" y="305" type="line"/>
      <point x="130" y="126" type="line"/>
      <point x="130" y="87"/>
      <point x="162" y="55"/>
    </contour>
    <contour>
      <point x="422" y="423" type="curve" smooth="yes"/>
      <point x="422" y="365"/>
      <point x="384" y="316"/>
      <point x="329" y="307" type="curve"/>
      <point x="329" y="126" type="line"/>
      <point x="329" y="57"/>
      <point x="271" y="-1"/>
      <point x="201" y="-1" type="curve" smooth="yes"/>
      <point x="132" y="-1"/>
      <point x="74" y="57"/>
      <point x="74" y="126" type="curve"/>
      <point x="71" y="307" type="line"/>
      <point x="61" y="311"/>
      <point x="54" y="321"/>
      <point x="54" y="333" type="curve" smooth="yes"/>
      <point x="54" y="344"/>
      <point x="64" y="355"/>
      <point x="74" y="359" type="curve"/>
      <point x="74" y="598" type="line"/>
      <point x="74" y="668"/>
      <point x="132" y="725"/>
      <point x="201" y="725" type="curve" smooth="yes"/>
      <point x="271" y="725"/>
      <point x="329" y="668"/>
      <point x="329" y="598" type="curve"/>
      <point x="329" y="541" type="line"/>
      <point x="329" y="485"/>
      <point x="320" y="442"/>
      <point x="209" y="442" type="curve" smooth="yes"/>
      <point x="193" y="442"/>
      <point x="181" y="454"/>
      <point x="181" y="469" type="curve" smooth="yes"/>
      <point x="181" y="486"/>
      <point x="193" y="497"/>
      <point x="211" y="497" type="curve" smooth="yes"/>
      <point x="269" y="497"/>
      <point x="273" y="519"/>
      <point x="273" y="547" type="curve"/>
      <point x="273" y="598" type="line"/>
      <point x="273" y="638"/>
      <point x="241" y="670"/>
      <point x="201" y="670" type="curve" smooth="yes"/>
      <point x="162" y="670"/>
      <point x="130" y="638"/>
      <point x="130" y="598" type="curve"/>
      <point x="130" y="361" type="line"/>
      <point x="304" y="361" type="line"/>
      <point x="338" y="361"/>
      <point x="366" y="389"/>
      <point x="366" y="423" type="curve" smooth="yes"/>
      <point x="366" y="437"/>
      <point x="380" y="451"/>
      <point x="394" y="451" type="curve" smooth="yes"/>
      <point x="410" y="451"/>
      <point x="422" y="437"/>
    </contour>
    <contour>
      <point x="482" y="373" type="curve" smooth="yes"/>
      <point x="482" y="392"/>
      <point x="466" y="411"/>
      <point x="444" y="411" type="curve" smooth="yes"/>
      <point x="439" y="411"/>
      <point x="435" y="410"/>
      <point x="431" y="408" type="curve"/>
      <point x="432" y="413"/>
      <point x="432" y="418"/>
      <point x="432" y="423" type="curve" smooth="yes"/>
      <point x="432" y="442"/>
      <point x="416" y="461"/>
      <point x="394" y="461" type="curve" smooth="yes"/>
      <point x="392" y="461"/>
      <point x="389" y="461"/>
      <point x="387" y="460" type="curve"/>
      <point x="388" y="470"/>
      <point x="389" y="480"/>
      <point x="389" y="491" type="curve"/>
      <point x="389" y="548" type="line"/>
      <point x="389" y="598"/>
      <point x="361" y="641"/>
      <point x="321" y="665" type="curve"/>
      <point x="297" y="707"/>
      <point x="252" y="735"/>
      <point x="201" y="735" type="curve" smooth="yes"/>
      <point x="127" y="735"/>
      <point x="64" y="674"/>
      <point x="64" y="598" type="curve"/>
      <point x="64" y="365" type="line"/>
      <point x="52" y="359"/>
      <point x="44" y="347"/>
      <point x="44" y="333" type="curve" smooth="yes"/>
      <point x="44" y="318"/>
      <point x="49" y="307"/>
      <point x="61" y="301" type="curve"/>
      <point x="64" y="126" type="line"/>
      <point x="64" y="76"/>
      <point x="92" y="32"/>
      <point x="133" y="8" type="curve"/>
      <point x="157" y="-33"/>
      <point x="201" y="-61"/>
      <point x="251" y="-61" type="curve" smooth="yes"/>
      <point x="326" y="-61"/>
      <point x="389" y="2"/>
      <point x="389" y="76" type="curve"/>
      <point x="389" y="249" type="line"/>
      <point x="447" y="261"/>
      <point x="482" y="312"/>
    </contour>
    <contour>
      <point x="201" y="65" type="curve"/>
      <point x="190" y="65" type="line"/>
      <point x="190" y="76" type="line"/>
      <point x="190" y="245" type="line"/>
      <point x="263" y="245" type="line"/>
      <point x="263" y="126" type="line"/>
      <point x="263" y="92"/>
      <point x="235" y="65"/>
    </contour>
    <contour>
      <point x="263" y="598" type="curve"/>
      <point x="263" y="547" type="line"/>
      <point x="263" y="525"/>
      <point x="260" y="507"/>
      <point x="211" y="507" type="curve" smooth="yes"/>
      <point x="203" y="507"/>
      <point x="196" y="505"/>
      <point x="190" y="502" type="curve"/>
      <point x="190" y="548" type="line"/>
      <point x="190" y="582"/>
      <point x="217" y="610"/>
      <point x="251" y="610" type="curve" smooth="yes"/>
      <point x="254" y="610"/>
      <point x="258" y="609"/>
      <point x="262" y="609" type="curve"/>
      <point x="262" y="605"/>
      <point x="263" y="601"/>
    </contour>
    <contour>
      <point x="304" y="371" type="curve"/>
      <point x="190" y="371" type="line"/>
      <point x="190" y="436" type="line"/>
      <point x="195" y="433"/>
      <point x="202" y="432"/>
      <point x="209" y="432" type="curve"/>
      <point x="223" y="432" type="line"/>
      <point x="221" y="428"/>
      <point x="221" y="424"/>
      <point x="221" y="419" type="curve" smooth="yes"/>
      <point x="221" y="398"/>
      <point x="237" y="382"/>
      <point x="259" y="382" type="curve" smooth="yes"/>
      <point x="301" y="382"/>
      <point x="330" y="388"/>
      <point x="350" y="398" type="curve"/>
      <point x="341" y="382"/>
      <point x="324" y="371"/>
    </contour>
  </outline>
</glyph>
<glyph name="quotesingle" format="1">
  <advance width="185"/>
  <unicode hex="0027"/>
  <outline>
    <contour>
      <point x="68" y="601" type="curve" smooth="yes"/>
      <point x="52" y="601"/>
      <point x="39" y="614"/>
      <point x="39" y="630" type="curve"/>
      <point x="37" y="685" type="line"/>
      <point x="38" y="685" type="line"/>
      <point x="36" y="736" type="line"/>
      <point x="36" y="752"/>
      <point x="49" y="766"/>
      <point x="65" y="766" type="curve" smooth="yes"/>
      <point x="81" y="766"/>
      <point x="94" y="753"/>
      <point x="94" y="737" type="curve"/>
      <point x="96" y="682" type="line"/>
      <point x="95" y="682" type="line"/>
      <point x="97" y="630" type="line"/>
      <point x="97" y="615"/>
      <point x="84" y="601"/>
    </contour>
    <contour>
      <point x="118" y="541" type="curve" smooth="yes"/>
      <point x="140" y="541"/>
      <point x="157" y="560"/>
      <point x="157" y="580" type="curve"/>
      <point x="155" y="632" type="line"/>
      <point x="154" y="687" type="line"/>
      <point x="154" y="709"/>
      <point x="137" y="726"/>
      <point x="115" y="726" type="curve" smooth="yes"/>
      <point x="111" y="726"/>
      <point x="107" y="725"/>
      <point x="104" y="724" type="curve"/>
      <point x="104" y="737" type="line"/>
      <point x="104" y="759"/>
      <point x="87" y="776"/>
      <point x="65" y="776" type="curve" smooth="yes"/>
      <point x="43" y="776"/>
      <point x="26" y="757"/>
      <point x="26" y="736" type="curve"/>
      <point x="28" y="685" type="line"/>
      <point x="29" y="630" type="line"/>
      <point x="29" y="608"/>
      <point x="46" y="591"/>
      <point x="68" y="591" type="curve" smooth="yes"/>
      <point x="72" y="591"/>
      <point x="75" y="591"/>
      <point x="79" y="592" type="curve"/>
      <point x="79" y="580" type="line"/>
      <point x="79" y="558"/>
      <point x="96" y="541"/>
    </contour>
  </outline>
</glyph>
<glyph name="parenleft" format="1">
  <advance width="306"/>
  <unicode hex="0028"/>
  <outline>
    <contour>
      <point x="112" y="0" type="line"/>
      <point x="101" y="0"/>
      <point x="90" y="9"/>
      <point x="87" y="19" type="curve" smooth="yes"/>
      <point x="83" y="36"/>
      <point x="41" y="221"/>
      <point x="41" y="363" type="curve" smooth="yes"/>
      <point x="41" y="519"/>
      <point x="83" y="693"/>
      <point x="87" y="707" type="curve" smooth="yes"/>
      <point x="90" y="718"/>
      <point x="101" y="727"/>
      <point x="112" y="727" type="curve"/>
      <point x="193" y="727" type="line"/>
      <point x="207" y="727"/>
      <point x="218" y="715"/>
      <point x="218" y="701" type="curve" smooth="yes"/>
      <point x="218" y="687"/>
      <point x="207" y="675"/>
      <point x="193" y="675" type="curve"/>
      <point x="133" y="675" type="line"/>
      <point x="121" y="627"/>
      <point x="93" y="487"/>
      <point x="93" y="363" type="curve" smooth="yes"/>
      <point x="93" y="251"/>
      <point x="121" y="105"/>
      <point x="132" y="52" type="curve"/>
      <point x="193" y="52" type="line"/>
      <point x="207" y="52"/>
      <point x="218" y="40"/>
      <point x="218" y="25" type="curve" smooth="yes"/>
      <point x="218" y="12"/>
      <point x="207" y="0"/>
      <point x="193" y="0" type="curve"/>
    </contour>
    <contour>
      <point x="112" y="-10" type="curve"/>
      <point x="121" y="-10" type="line"/>
      <point x="127" y="-34" type="line"/>
      <point x="131" y="-48"/>
      <point x="146" y="-60"/>
      <point x="162" y="-60" type="curve"/>
      <point x="243" y="-60" type="line"/>
      <point x="263" y="-60"/>
      <point x="278" y="-43"/>
      <point x="278" y="-25" type="curve" smooth="yes"/>
      <point x="278" y="-4"/>
      <point x="263" y="12"/>
      <point x="243" y="12" type="curve"/>
      <point x="225" y="12" type="line"/>
      <point x="227" y="16"/>
      <point x="228" y="20"/>
      <point x="228" y="25" type="curve" smooth="yes"/>
      <point x="228" y="46"/>
      <point x="213" y="62"/>
      <point x="193" y="62" type="curve"/>
      <point x="180" y="62" type="line"/>
      <point x="167" y="130"/>
      <point x="153" y="231"/>
      <point x="153" y="313" type="curve" smooth="yes"/>
      <point x="153" y="429"/>
      <point x="178" y="561"/>
      <point x="191" y="615" type="curve"/>
      <point x="243" y="615" type="line"/>
      <point x="263" y="615"/>
      <point x="278" y="632"/>
      <point x="278" y="651" type="curve" smooth="yes"/>
      <point x="278" y="670"/>
      <point x="263" y="687"/>
      <point x="243" y="687" type="curve"/>
      <point x="225" y="687" type="line"/>
      <point x="227" y="691"/>
      <point x="228" y="696"/>
      <point x="228" y="701" type="curve" smooth="yes"/>
      <point x="228" y="720"/>
      <point x="213" y="737"/>
      <point x="193" y="737" type="curve"/>
      <point x="112" y="737" type="line"/>
      <point x="98" y="737"/>
      <point x="82" y="724"/>
      <point x="77" y="710" type="curve"/>
      <point x="71" y="685"/>
      <point x="31" y="516"/>
      <point x="31" y="363" type="curve" smooth="yes"/>
      <point x="31" y="218"/>
      <point x="73" y="33"/>
      <point x="77" y="16" type="curve" smooth="yes"/>
      <point x="81" y="2"/>
      <point x="96" y="-10"/>
    </contour>
  </outline>
</glyph>
<glyph name="parenright" format="1">
  <advance width="339"/>
  <unicode hex="0029"/>
  <outline>
    <contour>
      <point x="132" y="-60" type="line"/>
      <point x="113" y="-60"/>
      <point x="94" y="-42"/>
      <point x="94" y="-22" type="curve" smooth="yes"/>
      <point x="94" y="-18"/>
      <point x="94" y="-14"/>
      <point x="96" y="-10" type="curve"/>
      <point x="82" y="-10" type="line"/>
      <point x="63" y="-10"/>
      <point x="44" y="8"/>
      <point x="44" y="28" type="curve" smooth="yes"/>
      <point x="44" y="48"/>
      <point x="63" y="67"/>
      <point x="82" y="67" type="curve"/>
      <point x="132" y="67" type="line"/>
      <point x="143" y="128"/>
      <point x="168" y="262"/>
      <point x="168" y="362" type="curve" smooth="yes"/>
      <point x="168" y="449"/>
      <point x="154" y="544"/>
      <point x="142" y="608" type="curve"/>
      <point x="132" y="608" type="line"/>
      <point x="113" y="608"/>
      <point x="94" y="624"/>
      <point x="94" y="647" type="curve" smooth="yes"/>
      <point x="94" y="650"/>
      <point x="94" y="654"/>
      <point x="96" y="658" type="curve"/>
      <point x="82" y="658" type="line"/>
      <point x="63" y="658"/>
      <point x="44" y="674"/>
      <point x="44" y="697" type="curve" smooth="yes"/>
      <point x="44" y="716"/>
      <point x="63" y="735"/>
      <point x="82" y="735" type="curve"/>
      <point x="162" y="735" type="line"/>
      <point x="180" y="735"/>
      <point x="196" y="723"/>
      <point x="200" y="705" type="curve"/>
      <point x="199" y="706" type="line"/>
      <point x="199" y="705"/>
      <point x="201" y="696"/>
      <point x="204" y="685" type="curve"/>
      <point x="212" y="685" type="line"/>
      <point x="230" y="685"/>
      <point x="246" y="673"/>
      <point x="250" y="655" type="curve"/>
      <point x="249" y="656" type="line"/>
      <point x="251" y="650"/>
      <point x="295" y="471"/>
      <point x="295" y="312" type="curve" smooth="yes"/>
      <point x="295" y="169"/>
      <point x="256" y="-7"/>
      <point x="252" y="-23" type="curve"/>
      <point x="245" y="-43"/>
      <point x="228" y="-60"/>
      <point x="212" y="-60" type="curve"/>
    </contour>
    <contour>
      <point x="162" y="0" type="line"/>
      <point x="174" y="0"/>
      <point x="186" y="10"/>
      <point x="190" y="22" type="curve" smooth="yes"/>
      <point x="194" y="39"/>
      <point x="235" y="222"/>
      <point x="235" y="362" type="curve" smooth="yes"/>
      <point x="235" y="521"/>
      <point x="192" y="697"/>
      <point x="190" y="703" type="curve"/>
      <point x="190" y="702" type="line"/>
      <point x="187" y="716"/>
      <point x="175" y="725"/>
      <point x="162" y="725" type="curve"/>
      <point x="82" y="725" type="line"/>
      <point x="68" y="725"/>
      <point x="54" y="711"/>
      <point x="54" y="697" type="curve" smooth="yes"/>
      <point x="54" y="680"/>
      <point x="68" y="668"/>
      <point x="82" y="668" type="curve"/>
      <point x="140" y="668" type="line"/>
      <point x="151" y="617"/>
      <point x="178" y="481"/>
      <point x="178" y="362" type="curve" smooth="yes"/>
      <point x="178" y="257"/>
      <point x="151" y="115"/>
      <point x="140" y="57" type="curve"/>
      <point x="82" y="57" type="line"/>
      <point x="68" y="57"/>
      <point x="54" y="43"/>
      <point x="54" y="28" type="curve" smooth="yes"/>
      <point x="54" y="13"/>
      <point x="68" y="0"/>
      <point x="82" y="0" type="curve"/>
    </contour>
  </outline>
</glyph>
<glyph name="asterisk" format="1">
  <advance width="657"/>
  <unicode hex="002A"/>
  <outline>
    <contour>
      <point x="557" y="508" type="line"/>
      <point x="571" y="508"/>
      <point x="583" y="496"/>
      <point x="583" y="482" type="curve" smooth="yes"/>
      <point x="583" y="468"/>
      <point x="571" y="456"/>
      <point x="557" y="456" type="curve"/>
      <point x="365" y="456" type="line"/>
      <point x="501" y="320" type="line"/>
      <point x="510" y="310"/>
      <point x="510" y="293"/>
      <point x="501" y="284" type="curve" smooth="yes"/>
      <point x="496" y="280"/>
      <point x="489" y="277"/>
      <point x="483" y="277" type="curve" smooth="yes"/>
      <point x="476" y="277"/>
      <point x="469" y="280"/>
      <point x="464" y="284" type="curve"/>
      <point x="329" y="420" type="line"/>
      <point x="329" y="228" type="line"/>
      <point x="329" y="214"/>
      <point x="318" y="203"/>
      <point x="303" y="203" type="curve" smooth="yes"/>
      <point x="289" y="203"/>
      <point x="278" y="214"/>
      <point x="278" y="228" type="curve"/>
      <point x="278" y="420" type="line"/>
      <point x="143" y="285" type="line"/>
      <point x="139" y="281"/>
      <point x="131" y="277"/>
      <point x="124" y="277" type="curve" smooth="yes"/>
      <point x="117" y="277"/>
      <point x="110" y="280"/>
      <point x="106" y="284" type="curve" smooth="yes"/>
      <point x="102" y="288"/>
      <point x="99" y="295"/>
      <point x="99" y="302" type="curve" smooth="yes"/>
      <point x="99" y="311"/>
      <point x="102" y="315"/>
      <point x="105" y="320" type="curve"/>
      <point x="242" y="456" type="line"/>
      <point x="50" y="456" type="line"/>
      <point x="35" y="456"/>
      <point x="24" y="468"/>
      <point x="24" y="482" type="curve" smooth="yes"/>
      <point x="24" y="496"/>
      <point x="35" y="508"/>
      <point x="50" y="508" type="curve"/>
      <point x="242" y="508" type="line"/>
      <point x="105" y="644" type="line"/>
      <point x="102" y="649"/>
      <point x="99" y="653"/>
      <point x="99" y="661" type="curve" smooth="yes"/>
      <point x="99" y="668"/>
      <point x="102" y="675"/>
      <point x="106" y="679" type="curve" smooth="yes"/>
      <point x="110" y="684"/>
      <point x="117" y="687"/>
      <point x="124" y="687" type="curve" smooth="yes"/>
      <point x="131" y="687"/>
      <point x="139" y="683"/>
      <point x="143" y="678" type="curve"/>
      <point x="278" y="544" type="line"/>
      <point x="278" y="735" type="line"/>
      <point x="278" y="749"/>
      <point x="289" y="761"/>
      <point x="303" y="761" type="curve" smooth="yes"/>
      <point x="318" y="761"/>
      <point x="329" y="749"/>
      <point x="329" y="735" type="curve"/>
      <point x="329" y="544" type="line"/>
      <point x="464" y="679" type="line"/>
      <point x="469" y="684"/>
      <point x="476" y="687"/>
      <point x="483" y="687" type="curve" smooth="yes"/>
      <point x="489" y="687"/>
      <point x="496" y="684"/>
      <point x="501" y="679" type="curve" smooth="yes"/>
      <point x="505" y="675"/>
      <point x="508" y="668"/>
      <point x="508" y="661" type="curve" smooth="yes"/>
      <point x="508" y="653"/>
      <point x="505" y="649"/>
      <point x="502" y="644" type="curve"/>
      <point x="365" y="508" type="line"/>
    </contour>
    <contour>
      <point x="607" y="468" type="curve"/>
      <point x="590" y="468" type="line"/>
      <point x="592" y="472"/>
      <point x="593" y="477"/>
      <point x="593" y="482" type="curve" smooth="yes"/>
      <point x="593" y="501"/>
      <point x="576" y="518"/>
      <point x="557" y="518" type="curve"/>
      <point x="489" y="518" type="line"/>
      <point x="560" y="588" type="line"/>
      <point x="565" y="594"/>
      <point x="568" y="601"/>
      <point x="568" y="611" type="curve" smooth="yes"/>
      <point x="568" y="621"/>
      <point x="564" y="630"/>
      <point x="558" y="636" type="curve" smooth="yes"/>
      <point x="551" y="643"/>
      <point x="541" y="647"/>
      <point x="533" y="647" type="curve" smooth="yes"/>
      <point x="525" y="647"/>
      <point x="518" y="645"/>
      <point x="512" y="640" type="curve"/>
      <point x="516" y="646"/>
      <point x="518" y="652"/>
      <point x="518" y="661" type="curve" smooth="yes"/>
      <point x="518" y="671"/>
      <point x="514" y="680"/>
      <point x="508" y="686" type="curve" smooth="yes"/>
      <point x="501" y="693"/>
      <point x="491" y="697"/>
      <point x="483" y="697" type="curve" smooth="yes"/>
      <point x="473" y="697"/>
      <point x="464" y="693"/>
      <point x="457" y="686" type="curve"/>
      <point x="389" y="618" type="line"/>
      <point x="389" y="685" type="line"/>
      <point x="389" y="704"/>
      <point x="374" y="721"/>
      <point x="353" y="721" type="curve" smooth="yes"/>
      <point x="348" y="721"/>
      <point x="343" y="720"/>
      <point x="339" y="718" type="curve"/>
      <point x="339" y="735" type="line"/>
      <point x="339" y="754"/>
      <point x="324" y="771"/>
      <point x="303" y="771" type="curve" smooth="yes"/>
      <point x="283" y="771"/>
      <point x="268" y="754"/>
      <point x="268" y="735" type="curve"/>
      <point x="268" y="567" type="line"/>
      <point x="264" y="570" type="line"/>
      <point x="202" y="633" type="line"/>
      <point x="185" y="649"/>
      <point x="169" y="666"/>
      <point x="150" y="685" type="curve" smooth="yes"/>
      <point x="144" y="691"/>
      <point x="133" y="697"/>
      <point x="124" y="697" type="curve" smooth="yes"/>
      <point x="115" y="697"/>
      <point x="104" y="692"/>
      <point x="98" y="685" type="curve" smooth="yes"/>
      <point x="93" y="679"/>
      <point x="89" y="670"/>
      <point x="89" y="661" type="curve" smooth="yes"/>
      <point x="89" y="651"/>
      <point x="92" y="644"/>
      <point x="96" y="639" type="curve"/>
      <point x="188" y="546" type="line"/>
      <point x="216" y="518" type="line"/>
      <point x="50" y="518" type="line"/>
      <point x="29" y="518"/>
      <point x="14" y="501"/>
      <point x="14" y="482" type="curve" smooth="yes"/>
      <point x="14" y="463"/>
      <point x="29" y="446"/>
      <point x="50" y="446" type="curve"/>
      <point x="66" y="446" type="line"/>
      <point x="64" y="441"/>
      <point x="64" y="437"/>
      <point x="64" y="432" type="curve" smooth="yes"/>
      <point x="64" y="413"/>
      <point x="79" y="396"/>
      <point x="100" y="396" type="curve"/>
      <point x="167" y="396" type="line"/>
      <point x="97" y="326" type="line"/>
      <point x="92" y="320"/>
      <point x="89" y="313"/>
      <point x="89" y="302" type="curve" smooth="yes"/>
      <point x="89" y="292"/>
      <point x="93" y="283"/>
      <point x="99" y="277" type="curve" smooth="yes"/>
      <point x="105" y="271"/>
      <point x="114" y="267"/>
      <point x="124" y="267" type="curve" smooth="yes"/>
      <point x="131" y="267"/>
      <point x="139" y="269"/>
      <point x="145" y="273" type="curve"/>
      <point x="141" y="268"/>
      <point x="139" y="261"/>
      <point x="139" y="252" type="curve" smooth="yes"/>
      <point x="139" y="242"/>
      <point x="143" y="233"/>
      <point x="149" y="227" type="curve" smooth="yes"/>
      <point x="155" y="221"/>
      <point x="164" y="217"/>
      <point x="174" y="217" type="curve" smooth="yes"/>
      <point x="184" y="217"/>
      <point x="194" y="222"/>
      <point x="200" y="228" type="curve"/>
      <point x="268" y="296" type="line"/>
      <point x="268" y="228" type="line"/>
      <point x="268" y="208"/>
      <point x="283" y="193"/>
      <point x="303" y="193" type="curve" smooth="yes"/>
      <point x="308" y="193"/>
      <point x="313" y="193"/>
      <point x="318" y="195" type="curve"/>
      <point x="318" y="178" type="line"/>
      <point x="318" y="158"/>
      <point x="333" y="143"/>
      <point x="353" y="143" type="curve" smooth="yes"/>
      <point x="374" y="143"/>
      <point x="389" y="158"/>
      <point x="389" y="178" type="curve"/>
      <point x="389" y="345" type="line"/>
      <point x="458" y="276" type="line"/>
      <point x="461" y="273" type="line"/>
      <point x="508" y="226" type="line"/>
      <point x="514" y="221"/>
      <point x="523" y="217"/>
      <point x="533" y="217" type="curve" smooth="yes"/>
      <point x="542" y="217"/>
      <point x="551" y="221"/>
      <point x="557" y="226" type="curve" smooth="yes"/>
      <point x="570" y="239"/>
      <point x="571" y="263"/>
      <point x="558" y="277" type="curve"/>
      <point x="510" y="325" type="line"/>
      <point x="509" y="325"/>
      <point x="508" y="326"/>
      <point x="508" y="327" type="curve"/>
      <point x="439" y="396" type="line"/>
      <point x="607" y="396" type="line"/>
      <point x="626" y="396"/>
      <point x="643" y="413"/>
      <point x="643" y="432" type="curve" smooth="yes"/>
      <point x="643" y="451"/>
      <point x="626" y="468"/>
    </contour>
  </outline>
</glyph>
<glyph name="plus" format="1">
  <advance width="542"/>
  <unicode hex="002B"/>
  <outline>
    <contour>
      <point x="454" y="407" type="line"/>
      <point x="468" y="407"/>
      <point x="480" y="396"/>
      <point x="480" y="383" type="curve" smooth="yes"/>
      <point x="480" y="369"/>
      <point x="468" y="358"/>
      <point x="454" y="358" type="curve"/>
      <point x="270" y="358" type="line"/>
      <point x="270" y="173" type="line"/>
      <point x="270" y="160"/>
      <point x="260" y="149"/>
      <point x="246" y="149" type="curve" smooth="yes"/>
      <point x="232" y="149"/>
      <point x="222" y="160"/>
      <point x="222" y="173" type="curve"/>
      <point x="222" y="358" type="line"/>
      <point x="37" y="358" type="line"/>
      <point x="23" y="358"/>
      <point x="12" y="369"/>
      <point x="12" y="383" type="curve" smooth="yes"/>
      <point x="12" y="396"/>
      <point x="23" y="407"/>
      <point x="37" y="407" type="curve"/>
      <point x="222" y="407" type="line"/>
      <point x="222" y="591" type="line"/>
      <point x="222" y="605"/>
      <point x="232" y="617"/>
      <point x="246" y="617" type="curve" smooth="yes"/>
      <point x="260" y="617"/>
      <point x="270" y="605"/>
      <point x="270" y="591" type="curve"/>
      <point x="270" y="407" type="line"/>
    </contour>
    <contour>
      <point x="504" y="367" type="curve"/>
      <point x="486" y="367" type="line"/>
      <point x="488" y="371"/>
      <point x="490" y="377"/>
      <point x="490" y="383" type="curve" smooth="yes"/>
      <point x="490" y="401"/>
      <point x="473" y="417"/>
      <point x="454" y="417" type="curve"/>
      <point x="330" y="417" type="line"/>
      <point x="330" y="541" type="line"/>
      <point x="330" y="560"/>
      <point x="316" y="577"/>
      <point x="296" y="577" type="curve" smooth="yes"/>
      <point x="290" y="577"/>
      <point x="284" y="575"/>
      <point x="280" y="573" type="curve"/>
      <point x="280" y="591" type="line"/>
      <point x="280" y="610"/>
      <point x="266" y="627"/>
      <point x="246" y="627" type="curve" smooth="yes"/>
      <point x="226" y="627"/>
      <point x="212" y="610"/>
      <point x="212" y="591" type="curve"/>
      <point x="212" y="417" type="line"/>
      <point x="37" y="417" type="line"/>
      <point x="17" y="417"/>
      <point x="2" y="401"/>
      <point x="2" y="383" type="curve" smooth="yes"/>
      <point x="2" y="363"/>
      <point x="17" y="348"/>
      <point x="37" y="348" type="curve"/>
      <point x="55" y="348" type="line"/>
      <point x="53" y="343"/>
      <point x="52" y="338"/>
      <point x="52" y="333" type="curve" smooth="yes"/>
      <point x="52" y="313"/>
      <point x="67" y="298"/>
      <point x="87" y="298" type="curve"/>
      <point x="212" y="298" type="line"/>
      <point x="212" y="173" type="line"/>
      <point x="212" y="155"/>
      <point x="226" y="139"/>
      <point x="246" y="139" type="curve" smooth="yes"/>
      <point x="252" y="139"/>
      <point x="257" y="140"/>
      <point x="262" y="143" type="curve"/>
      <point x="262" y="123" type="line"/>
      <point x="262" y="105"/>
      <point x="276" y="89"/>
      <point x="296" y="89" type="curve" smooth="yes"/>
      <point x="316" y="89"/>
      <point x="330" y="105"/>
      <point x="330" y="123" type="curve"/>
      <point x="330" y="298" type="line"/>
      <point x="504" y="298" type="line"/>
      <point x="523" y="298"/>
      <point x="540" y="313"/>
      <point x="540" y="333" type="curve" smooth="yes"/>
      <point x="540" y="351"/>
      <point x="523" y="367"/>
    </contour>
  </outline>
</glyph>
<glyph name="comma" format="1">
  <advance width="228"/>
  <unicode hex="002C"/>
  <outline>
    <contour>
      <point x="90" y="85" type="curve" smooth="yes"/>
      <point x="108" y="85"/>
      <point x="124" y="70"/>
      <point x="124" y="51" type="curve" smooth="yes"/>
      <point x="124" y="32" type="line" smooth="yes"/>
      <point x="124" y="22"/>
      <point x="116" y="10"/>
      <point x="106" y="3" type="curve"/>
      <point x="90" y="-26" type="line"/>
      <point x="85" y="-31"/>
      <point x="78" y="-34"/>
      <point x="72" y="-34" type="curve" smooth="yes"/>
      <point x="71" y="-34"/>
      <point x="65" y="-33"/>
      <point x="63" y="-33" type="curve"/>
      <point x="52" y="-26"/>
      <point x="49" y="-12"/>
      <point x="54" y="-4" type="curve"/>
      <point x="64" y="8" type="line"/>
      <point x="56" y="15"/>
      <point x="54" y="22"/>
      <point x="54" y="32" type="curve" smooth="yes"/>
      <point x="54" y="51" type="line" smooth="yes"/>
      <point x="54" y="70"/>
      <point x="69" y="85"/>
    </contour>
    <contour>
      <point x="140" y="45" type="curve" smooth="yes"/>
      <point x="138" y="45"/>
      <point x="136" y="44"/>
      <point x="134" y="44" type="curve"/>
      <point x="134" y="51" type="line"/>
      <point x="134" y="76"/>
      <point x="113" y="95"/>
      <point x="90" y="95" type="curve" smooth="yes"/>
      <point x="63" y="95"/>
      <point x="44" y="76"/>
      <point x="44" y="51" type="curve"/>
      <point x="44" y="32" type="line"/>
      <point x="44" y="21"/>
      <point x="45" y="14"/>
      <point x="50" y="7" type="curve"/>
      <point x="48" y="4" type="line"/>
      <point x="40" y="-9"/>
      <point x="44" y="-32"/>
      <point x="61" y="-43" type="curve"/>
      <point x="62" y="-43"/>
      <point x="67" y="-44"/>
      <point x="69" y="-44" type="curve" smooth="yes"/>
      <point x="79" y="-44"/>
      <point x="88" y="-40"/>
      <point x="95" y="-34" type="curve"/>
      <point x="96" y="-37"/>
      <point x="98" y="-40"/>
      <point x="100" y="-43" type="curve"/>
      <point x="98" y="-46" type="line"/>
      <point x="90" y="-59"/>
      <point x="94" y="-82"/>
      <point x="111" y="-93" type="curve"/>
      <point x="112" y="-93"/>
      <point x="117" y="-94"/>
      <point x="119" y="-94" type="curve" smooth="yes"/>
      <point x="131" y="-94"/>
      <point x="141" y="-89"/>
      <point x="149" y="-81" type="curve"/>
      <point x="164" y="-54" type="line"/>
      <point x="176" y="-46"/>
      <point x="184" y="-32"/>
      <point x="184" y="-18" type="curve"/>
      <point x="184" y="1" type="line"/>
      <point x="184" y="26"/>
      <point x="163" y="45"/>
    </contour>
  </outline>
</glyph>
<glyph name="period" format="1">
  <advance width="179"/>
  <unicode hex="002E"/>
  <outline>
    <contour>
      <point x="65" y="87" type="curve"/>
      <point x="83" y="87"/>
      <point x="98" y="73"/>
      <point x="98" y="53" type="curve" smooth="yes"/>
      <point x="98" y="33" type="line"/>
      <point x="98" y="15"/>
      <point x="83" y="0"/>
      <point x="65" y="0" type="curve" smooth="yes"/>
      <point x="45" y="0"/>
      <point x="29" y="15"/>
      <point x="29" y="33" type="curve" smooth="yes"/>
      <point x="29" y="53" type="line"/>
      <point x="29" y="73"/>
      <point x="45" y="87"/>
    </contour>
    <contour>
      <point x="115" y="47" type="curve" smooth="yes"/>
      <point x="112" y="47"/>
      <point x="110" y="47"/>
      <point x="108" y="46" type="curve"/>
      <point x="108" y="53" type="line"/>
      <point x="108" y="79"/>
      <point x="88" y="97"/>
      <point x="65" y="97" type="curve" smooth="yes"/>
      <point x="39" y="97"/>
      <point x="19" y="79"/>
      <point x="19" y="53" type="curve"/>
      <point x="19" y="33" type="line"/>
      <point x="19" y="10"/>
      <point x="39" y="-10"/>
      <point x="65" y="-10" type="curve"/>
      <point x="69" y="-10" type="line"/>
      <point x="69" y="-17" type="line"/>
      <point x="69" y="-40"/>
      <point x="89" y="-60"/>
      <point x="115" y="-60" type="curve" smooth="yes"/>
      <point x="138" y="-60"/>
      <point x="158" y="-40"/>
      <point x="158" y="-17" type="curve"/>
      <point x="158" y="3" type="line"/>
      <point x="158" y="29"/>
      <point x="138" y="47"/>
    </contour>
  </outline>
</glyph>
<glyph name="slash" format="1">
  <advance width="475"/>
  <unicode hex="002F"/>
  <outline>
    <contour>
      <point x="391" y="569" type="line"/>
      <point x="331" y="392"/>
      <point x="265" y="200"/>
      <point x="206" y="24" type="curve"/>
      <point x="170" y="-77" type="line"/>
      <point x="162" y="-98"/>
      <point x="140" y="-107"/>
      <point x="119" y="-99" type="curve"/>
      <point x="120" y="-99" type="line"/>
      <point x="100" y="-93"/>
      <point x="90" y="-69"/>
      <point x="96" y="-50" type="curve"/>
      <point x="87" y="-52"/>
      <point x="78" y="-52"/>
      <point x="69" y="-49" type="curve"/>
      <point x="70" y="-49" type="line"/>
      <point x="50" y="-43"/>
      <point x="40" y="-19"/>
      <point x="46" y="0" type="curve" smooth="yes"/>
      <point x="57" y="31"/>
      <point x="72" y="68"/>
      <point x="83" y="99" type="curve"/>
      <point x="269" y="645" type="line"/>
      <point x="305" y="745" type="line"/>
      <point x="313" y="766"/>
      <point x="335" y="776"/>
      <point x="356" y="768" type="curve" smooth="yes"/>
      <point x="375" y="760"/>
      <point x="385" y="739"/>
      <point x="378" y="718" type="curve"/>
      <point x="378" y="719" type="line"/>
      <point x="377" y="718" type="line"/>
      <point x="378" y="718" type="line"/>
      <point x="386" y="721"/>
      <point x="396" y="721"/>
      <point x="406" y="718" type="curve"/>
      <point x="425" y="710"/>
      <point x="436" y="689"/>
      <point x="428" y="668" type="curve"/>
      <point x="428" y="669" type="line"/>
    </contour>
    <contour>
      <point x="369" y="722" type="line"/>
      <point x="375" y="737"/>
      <point x="366" y="753"/>
      <point x="352" y="759" type="curve" smooth="yes"/>
      <point x="336" y="765"/>
      <point x="320" y="757"/>
      <point x="314" y="742" type="curve"/>
      <point x="278" y="642" type="line"/>
      <point x="92" y="96" type="line"/>
      <point x="55" y="-3" type="line"/>
      <point x="50" y="-17"/>
      <point x="58" y="-35"/>
      <point x="73" y="-40" type="curve" smooth="yes"/>
      <point x="89" y="-46"/>
      <point x="105" y="-39"/>
      <point x="111" y="-23" type="curve"/>
      <point x="147" y="77" type="line"/>
      <point x="332" y="622" type="line"/>
    </contour>
  </outline>
</glyph>
<glyph name="zero" format="1">
  <advance width="409"/>
  <unicode hex="0030"/>
  <outline>
    <contour>
      <point x="180" y="51" type="curve" smooth="yes"/>
      <point x="218" y="51"/>
      <point x="250" y="83"/>
      <point x="250" y="122" type="curve"/>
      <point x="250" y="237" type="line"/>
      <point x="244" y="236"/>
      <point x="239" y="236"/>
      <point x="233" y="236" type="curve" smooth="yes"/>
      <point x="190" y="236"/>
      <point x="150" y="259"/>
      <point x="130" y="300" type="curve"/>
      <point x="109" y="338" type="line"/>
      <point x="109" y="122" type="line"/>
      <point x="109" y="83"/>
      <point x="141" y="51"/>
    </contour>
    <contour>
      <point x="180" y="658" type="curve" smooth="yes"/>
      <point x="141" y="658"/>
      <point x="109" y="626"/>
      <point x="109" y="588" type="curve"/>
      <point x="109" y="459" type="line"/>
      <point x="110" y="459" type="line"/>
      <point x="180" y="325" type="line"/>
      <point x="191" y="303"/>
      <point x="212" y="292"/>
      <point x="233" y="292" type="curve" smooth="yes"/>
      <point x="238" y="292"/>
      <point x="244" y="293"/>
      <point x="250" y="294" type="curve"/>
      <point x="250" y="588" type="line"/>
      <point x="250" y="626"/>
      <point x="218" y="658"/>
    </contour>
    <contour>
      <point x="180" y="713" type="curve" smooth="yes"/>
      <point x="248" y="713"/>
      <point x="305" y="656"/>
      <point x="305" y="588" type="curve"/>
      <point x="305" y="122" type="line"/>
      <point x="305" y="52"/>
      <point x="248" y="-4"/>
      <point x="180" y="-4" type="curve" smooth="yes"/>
      <point x="110" y="-4"/>
      <point x="54" y="52"/>
      <point x="54" y="122" type="curve"/>
      <point x="54" y="588" type="line"/>
      <point x="54" y="656"/>
      <point x="110" y="713"/>
    </contour>
    <contour>
      <point x="180" y="723" type="curve" smooth="yes"/>
      <point x="104" y="723"/>
      <point x="44" y="661"/>
      <point x="44" y="588" type="curve"/>
      <point x="44" y="122" type="line"/>
      <point x="44" y="71"/>
      <point x="71" y="27"/>
      <point x="112" y="4" type="curve"/>
      <point x="135" y="-37"/>
      <point x="179" y="-64"/>
      <point x="230" y="-64" type="curve" smooth="yes"/>
      <point x="303" y="-64"/>
      <point x="365" y="-4"/>
      <point x="365" y="72" type="curve"/>
      <point x="365" y="538" type="line"/>
      <point x="365" y="587"/>
      <point x="337" y="631"/>
      <point x="296" y="654" type="curve"/>
      <point x="273" y="695"/>
      <point x="229" y="723"/>
    </contour>
    <contour>
      <point x="230" y="598" type="curve" smooth="yes"/>
      <point x="233" y="598"/>
      <point x="236" y="598"/>
      <point x="239" y="597" type="curve"/>
      <point x="240" y="594"/>
      <point x="240" y="591"/>
      <point x="240" y="588" type="curve"/>
      <point x="240" y="302" type="line"/>
      <point x="234" y="301"/>
      <point x="238" y="302"/>
      <point x="233" y="302" type="curve"/>
      <point x="226" y="302" type="line"/>
      <point x="207" y="338"/>
      <point x="189" y="376"/>
      <point x="170" y="412" type="curve"/>
      <point x="169" y="538" type="line"/>
      <point x="169" y="571"/>
      <point x="196" y="598"/>
    </contour>
    <contour>
      <point x="180" y="61" type="curve"/>
      <point x="169" y="61" type="line"/>
      <point x="169" y="72" type="line"/>
      <point x="169" y="243" type="line"/>
      <point x="173" y="240" type="line"/>
      <point x="188" y="212"/>
      <point x="212" y="193"/>
      <point x="240" y="183" type="curve"/>
      <point x="240" y="122" type="line"/>
      <point x="240" y="88"/>
      <point x="213" y="61"/>
    </contour>
  </outline>
</glyph>
<glyph name="one" format="1">
  <advance width="243"/>
  <unicode hex="0031"/>
  <outline>
    <contour>
      <point x="133" y="23" type="line"/>
      <point x="133" y="10"/>
      <point x="122" y="-2"/>
      <point x="107" y="-2" type="curve" smooth="yes"/>
      <point x="94" y="-2"/>
      <point x="83" y="10"/>
      <point x="83" y="23" type="curve"/>
      <point x="83" y="665" type="line"/>
      <point x="80" y="666"/>
      <point x="77" y="666"/>
      <point x="75" y="666" type="curve" smooth="yes"/>
      <point x="68" y="668"/>
      <point x="68" y="668"/>
      <point x="68" y="649" type="curve" smooth="yes"/>
      <point x="68" y="635"/>
      <point x="57" y="623"/>
      <point x="42" y="623" type="curve" smooth="yes"/>
      <point x="29" y="623"/>
      <point x="18" y="635"/>
      <point x="18" y="649" type="curve" smooth="yes"/>
      <point x="18" y="714"/>
      <point x="38" y="714"/>
      <point x="102" y="714" type="curve"/>
      <point x="107" y="714" type="line"/>
      <point x="121" y="714"/>
      <point x="130" y="705"/>
      <point x="133" y="694" type="curve"/>
    </contour>
    <contour>
      <point x="193" y="647" type="line"/>
      <point x="189" y="662"/>
      <point x="176" y="674"/>
      <point x="157" y="674" type="curve"/>
      <point x="152" y="674" type="line"/>
      <point x="143" y="674" type="line"/>
      <point x="143" y="697" type="line"/>
      <point x="139" y="712"/>
      <point x="126" y="724"/>
      <point x="107" y="724" type="curve"/>
      <point x="102" y="724" type="line"/>
      <point x="30" y="724"/>
      <point x="8" y="724"/>
      <point x="8" y="649" type="curve" smooth="yes"/>
      <point x="8" y="630"/>
      <point x="24" y="613"/>
      <point x="42" y="613" type="curve" smooth="yes"/>
      <point x="48" y="613"/>
      <point x="53" y="614"/>
      <point x="58" y="616" type="curve"/>
      <point x="58" y="599" type="line"/>
      <point x="58" y="587"/>
      <point x="64" y="576"/>
      <point x="73" y="569" type="curve"/>
      <point x="73" y="23" type="line"/>
      <point x="73" y="5"/>
      <point x="89" y="-12"/>
      <point x="107" y="-12" type="curve" smooth="yes"/>
      <point x="113" y="-12"/>
      <point x="118" y="-10"/>
      <point x="123" y="-8" type="curve"/>
      <point x="123" y="-27" type="line"/>
      <point x="123" y="-45"/>
      <point x="139" y="-62"/>
      <point x="157" y="-62" type="curve" smooth="yes"/>
      <point x="178" y="-62"/>
      <point x="193" y="-45"/>
      <point x="193" y="-27" type="curve"/>
    </contour>
  </outline>
</glyph>
<glyph name="two" format="1">
  <advance width="408"/>
  <unicode hex="0032"/>
  <outline>
    <contour>
      <point x="179" y="712" type="curve" smooth="yes"/>
      <point x="247" y="712"/>
      <point x="304" y="655"/>
      <point x="304" y="587" type="curve"/>
      <point x="304" y="328" type="line"/>
      <point x="109" y="328" type="line"/>
      <point x="109" y="124" type="line"/>
      <point x="109" y="86"/>
      <point x="140" y="54"/>
      <point x="179" y="54" type="curve" smooth="yes"/>
      <point x="217" y="54"/>
      <point x="248" y="86"/>
      <point x="248" y="124" type="curve"/>
      <point x="248" y="166" type="line"/>
      <point x="304" y="166" type="line"/>
      <point x="304" y="124" type="line"/>
      <point x="304" y="55"/>
      <point x="247" y="-1"/>
      <point x="179" y="-1" type="curve" smooth="yes"/>
      <point x="110" y="-1"/>
      <point x="54" y="55"/>
      <point x="54" y="124" type="curve"/>
      <point x="54" y="382" type="line"/>
      <point x="248" y="382" type="line"/>
      <point x="248" y="587" type="line"/>
      <point x="248" y="625"/>
      <point x="217" y="657"/>
      <point x="179" y="657" type="curve" smooth="yes"/>
      <point x="140" y="657"/>
      <point x="109" y="625"/>
      <point x="109" y="587" type="curve"/>
      <point x="109" y="520" type="line"/>
      <point x="54" y="520" type="line"/>
      <point x="54" y="587" type="line"/>
      <point x="54" y="655"/>
      <point x="110" y="712"/>
    </contour>
    <contour>
      <point x="179" y="722" type="curve" smooth="yes"/>
      <point x="104" y="722"/>
      <point x="44" y="660"/>
      <point x="44" y="587" type="curve"/>
      <point x="44" y="510" type="line"/>
      <point x="94" y="510" type="line"/>
      <point x="94" y="460" type="line"/>
      <point x="169" y="460" type="line"/>
      <point x="169" y="537" type="line"/>
      <point x="169" y="570"/>
      <point x="196" y="597"/>
      <point x="229" y="597" type="curve" smooth="yes"/>
      <point x="232" y="597"/>
      <point x="234" y="597"/>
      <point x="237" y="596" type="curve"/>
      <point x="238" y="593"/>
      <point x="238" y="590"/>
      <point x="238" y="587" type="curve"/>
      <point x="238" y="392" type="line"/>
      <point x="44" y="392" type="line"/>
      <point x="44" y="124" type="line"/>
      <point x="44" y="73"/>
      <point x="71" y="29"/>
      <point x="111" y="6" type="curve"/>
      <point x="134" y="-34"/>
      <point x="178" y="-61"/>
      <point x="229" y="-61" type="curve" smooth="yes"/>
      <point x="302" y="-61"/>
      <point x="364" y="-1"/>
      <point x="364" y="74" type="curve"/>
      <point x="364" y="126" type="line"/>
      <point x="314" y="126" type="line"/>
      <point x="314" y="176" type="line"/>
      <point x="238" y="176" type="line"/>
      <point x="238" y="124" type="line"/>
      <point x="238" y="91"/>
      <point x="211" y="64"/>
      <point x="179" y="64" type="curve"/>
      <point x="169" y="64" type="line"/>
      <point x="169" y="74" type="line"/>
      <point x="169" y="268" type="line"/>
      <point x="364" y="268" type="line"/>
      <point x="364" y="537" type="line"/>
      <point x="364" y="586"/>
      <point x="336" y="630"/>
      <point x="295" y="653" type="curve"/>
      <point x="272" y="694"/>
      <point x="228" y="722"/>
    </contour>
  </outline>
</glyph>
<glyph name="three" format="1">
  <advance width="382"/>
  <unicode hex="0033"/>
  <outline>
    <contour>
      <point x="244" y="361" type="curve" smooth="yes"/>
      <point x="242" y="359"/>
      <point x="242" y="361"/>
      <point x="239" y="358" type="curve"/>
      <point x="244" y="354" type="line"/>
      <point x="267" y="333"/>
      <point x="283" y="303"/>
      <point x="283" y="269" type="curve"/>
      <point x="283" y="122" type="line"/>
      <point x="283" y="54"/>
      <point x="227" y="-2"/>
      <point x="159" y="-2" type="curve" smooth="yes"/>
      <point x="126" y="-2"/>
      <point x="96" y="12"/>
      <point x="74" y="34" type="curve" smooth="yes"/>
      <point x="51" y="56"/>
      <point x="36" y="88"/>
      <point x="36" y="123" type="curve"/>
      <point x="36" y="165" type="line"/>
      <point x="85" y="165" type="line"/>
      <point x="85" y="122" type="line"/>
      <point x="85" y="82"/>
      <point x="118" y="49"/>
      <point x="159" y="49" type="curve" smooth="yes"/>
      <point x="199" y="49"/>
      <point x="232" y="82"/>
      <point x="232" y="122" type="curve"/>
      <point x="232" y="269" type="line"/>
      <point x="232" y="303"/>
      <point x="206" y="330"/>
      <point x="173" y="333" type="curve"/>
      <point x="93" y="333" type="line"/>
      <point x="93" y="383" type="line"/>
      <point x="174" y="383" type="line"/>
      <point x="206" y="385"/>
      <point x="232" y="412"/>
      <point x="232" y="447" type="curve"/>
      <point x="232" y="590" type="line"/>
      <point x="232" y="631"/>
      <point x="199" y="664"/>
      <point x="159" y="664" type="curve" smooth="yes"/>
      <point x="118" y="664"/>
      <point x="85" y="628"/>
      <point x="85" y="585" type="curve"/>
      <point x="36" y="585" type="line"/>
      <point x="37" y="657"/>
      <point x="91" y="714"/>
      <point x="159" y="714" type="curve" smooth="yes"/>
      <point x="227" y="714"/>
      <point x="282" y="659"/>
      <point x="282" y="590" type="curve"/>
      <point x="282" y="441" type="line"/>
      <point x="282" y="431"/>
      <point x="280" y="422"/>
      <point x="278" y="413" type="curve" smooth="yes"/>
      <point x="272" y="394"/>
      <point x="258" y="375"/>
    </contour>
    <contour>
      <point x="159" y="724" type="curve" smooth="yes"/>
      <point x="85" y="724"/>
      <point x="27" y="658"/>
      <point x="26" y="575" type="curve"/>
      <point x="84" y="575" type="line"/>
      <point x="79" y="559"/>
      <point x="76" y="542"/>
      <point x="76" y="525" type="curve"/>
      <point x="145" y="525" type="line"/>
      <point x="145" y="568"/>
      <point x="174" y="604"/>
      <point x="209" y="604" type="curve" smooth="yes"/>
      <point x="213" y="604"/>
      <point x="217" y="603"/>
      <point x="220" y="603" type="curve"/>
      <point x="221" y="599"/>
      <point x="222" y="594"/>
      <point x="222" y="590" type="curve"/>
      <point x="222" y="447" type="line"/>
      <point x="222" y="417"/>
      <point x="200" y="395"/>
      <point x="174" y="393" type="curve"/>
      <point x="83" y="393" type="line"/>
      <point x="83" y="323" type="line"/>
      <point x="133" y="323" type="line"/>
      <point x="133" y="273" type="line"/>
      <point x="222" y="273" type="line"/>
      <point x="222" y="269" type="line"/>
      <point x="222" y="122" type="line"/>
      <point x="222" y="87"/>
      <point x="194" y="59"/>
      <point x="159" y="59" type="curve" smooth="yes"/>
      <point x="154" y="59"/>
      <point x="150" y="59"/>
      <point x="146" y="60" type="curve"/>
      <point x="145" y="64"/>
      <point x="145" y="68"/>
      <point x="145" y="72" type="curve"/>
      <point x="145" y="125" type="line"/>
      <point x="95" y="125" type="line"/>
      <point x="95" y="175" type="line"/>
      <point x="26" y="175" type="line"/>
      <point x="26" y="123" type="line"/>
      <point x="26" y="85"/>
      <point x="42" y="51"/>
      <point x="67" y="27" type="curve"/>
      <point x="75" y="18"/>
      <point x="84" y="11"/>
      <point x="94" y="5" type="curve"/>
      <point x="100" y="-5"/>
      <point x="108" y="-14"/>
      <point x="117" y="-23" type="curve" smooth="yes"/>
      <point x="141" y="-47"/>
      <point x="173" y="-62"/>
      <point x="209" y="-62" type="curve" smooth="yes"/>
      <point x="282" y="-62"/>
      <point x="343" y="-1"/>
      <point x="343" y="72" type="curve"/>
      <point x="343" y="219" type="line"/>
      <point x="343" y="253"/>
      <point x="326" y="285"/>
      <point x="304" y="307" type="curve"/>
      <point x="318" y="322"/>
      <point x="331" y="340"/>
      <point x="337" y="358" type="curve"/>
      <point x="339" y="369"/>
      <point x="342" y="380"/>
      <point x="342" y="391" type="curve"/>
      <point x="342" y="540" type="line"/>
      <point x="342" y="591"/>
      <point x="315" y="634"/>
      <point x="274" y="657" type="curve"/>
      <point x="251" y="697"/>
      <point x="208" y="724"/>
    </contour>
    <contour>
      <point x="131" y="646" type="curve"/>
      <point x="123" y="639"/>
      <point x="115" y="631"/>
      <point x="108" y="623" type="curve"/>
      <point x="114" y="632"/>
      <point x="122" y="640"/>
    </contour>
    <contour>
      <point x="264" y="368" type="line"/>
      <point x="261" y="364"/>
      <point x="259" y="360"/>
      <point x="255" y="357" type="curve"/>
      <point x="254" y="357" type="line"/>
    </contour>
    <contour>
      <point x="260" y="34" type="curve" smooth="yes"/>
      <point x="256" y="29"/>
      <point x="251" y="24"/>
      <point x="246" y="21" type="curve" smooth="yes"/>
      <point x="251" y="25"/>
      <point x="256" y="29"/>
    </contour>
    <contour>
      <point x="292" y="300" type="curve"/>
      <point x="296" y="302" type="line"/>
      <point x="296" y="301" type="line"/>
      <point x="295" y="300"/>
      <point x="295" y="300"/>
    </contour>
    <contour>
      <point x="242" y="350" type="curve"/>
      <point x="246" y="352" type="line"/>
      <point x="246" y="351" type="line"/>
      <point x="245" y="350"/>
      <point x="245" y="350"/>
    </contour>
  </outline>
</glyph>
<glyph name="four" format="1">
  <advance width="409"/>
  <unicode hex="0034"/>
  <outline>
    <contour>
      <point x="277" y="712" type="curve" smooth="yes"/>
      <point x="292" y="712"/>
      <point x="305" y="700"/>
      <point x="305" y="685" type="curve"/>
      <point x="305" y="26" type="line"/>
      <point x="305" y="11"/>
      <point x="292" y="-1"/>
      <point x="277" y="-1" type="curve" smooth="yes"/>
      <point x="263" y="-1"/>
      <point x="249" y="11"/>
      <point x="249" y="26" type="curve"/>
      <point x="249" y="349" type="line"/>
      <point x="230" y="337"/>
      <point x="204" y="328"/>
      <point x="180" y="328" type="curve" smooth="yes"/>
      <point x="110" y="328"/>
      <point x="54" y="383"/>
      <point x="54" y="453" type="curve"/>
      <point x="54" y="685" type="line"/>
      <point x="54" y="700"/>
      <point x="68" y="712"/>
      <point x="82" y="712" type="curve" smooth="yes"/>
      <point x="98" y="712"/>
      <point x="109" y="700"/>
      <point x="109" y="685" type="curve"/>
      <point x="109" y="453" type="line"/>
      <point x="109" y="414"/>
      <point x="141" y="382"/>
      <point x="180" y="382" type="curve" smooth="yes"/>
      <point x="218" y="382"/>
      <point x="249" y="414"/>
      <point x="249" y="453" type="curve"/>
      <point x="249" y="685" type="line"/>
      <point x="249" y="700"/>
      <point x="263" y="712"/>
    </contour>
    <contour>
      <point x="327" y="672" type="curve" smooth="yes"/>
      <point x="323" y="672"/>
      <point x="319" y="671"/>
      <point x="315" y="670" type="curve"/>
      <point x="315" y="685" type="line"/>
      <point x="315" y="706"/>
      <point x="297" y="722"/>
      <point x="277" y="722" type="curve" smooth="yes"/>
      <point x="258" y="722"/>
      <point x="239" y="706"/>
      <point x="239" y="685" type="curve"/>
      <point x="239" y="453" type="line"/>
      <point x="239" y="419"/>
      <point x="212" y="392"/>
      <point x="180" y="392" type="curve"/>
      <point x="169" y="392" type="line"/>
      <point x="169" y="403" type="line"/>
      <point x="169" y="635" type="line"/>
      <point x="169" y="656"/>
      <point x="154" y="672"/>
      <point x="132" y="672" type="curve" smooth="yes"/>
      <point x="127" y="672"/>
      <point x="123" y="671"/>
      <point x="119" y="669" type="curve"/>
      <point x="119" y="685" type="line"/>
      <point x="119" y="706"/>
      <point x="104" y="722"/>
      <point x="82" y="722" type="curve" smooth="yes"/>
      <point x="63" y="722"/>
      <point x="44" y="706"/>
      <point x="44" y="685" type="curve"/>
      <point x="44" y="453" type="line"/>
      <point x="44" y="402"/>
      <point x="70" y="359"/>
      <point x="111" y="336" type="curve"/>
      <point x="134" y="295"/>
      <point x="178" y="268"/>
      <point x="230" y="268" type="curve"/>
      <point x="239" y="268" type="line"/>
      <point x="239" y="26" type="line"/>
      <point x="239" y="5"/>
      <point x="258" y="-11"/>
      <point x="277" y="-11" type="curve" smooth="yes"/>
      <point x="281" y="-11"/>
      <point x="285" y="-10"/>
      <point x="289" y="-9" type="curve"/>
      <point x="289" y="-24" type="line"/>
      <point x="289" y="-45"/>
      <point x="308" y="-61"/>
      <point x="327" y="-61" type="curve" smooth="yes"/>
      <point x="347" y="-61"/>
      <point x="365" y="-45"/>
      <point x="365" y="-24" type="curve"/>
      <point x="365" y="635" type="line"/>
      <point x="365" y="656"/>
      <point x="347" y="672"/>
    </contour>
  </outline>
</glyph>
<glyph name="five" format="1">
  <advance width="388"/>
  <unicode hex="0035"/>
  <outline>
    <contour>
      <point x="242" y="549" type="line"/>
      <point x="242" y="588" type="line"/>
      <point x="242" y="629"/>
      <point x="209" y="662"/>
      <point x="169" y="662" type="curve" smooth="yes"/>
      <point x="129" y="662"/>
      <point x="96" y="629"/>
      <point x="96" y="588" type="curve"/>
      <point x="96" y="380" type="line"/>
      <point x="292" y="380" type="line"/>
      <point x="292" y="122" type="line"/>
      <point x="292" y="54"/>
      <point x="237" y="-1"/>
      <point x="169" y="-1" type="curve" smooth="yes"/>
      <point x="101" y="-1"/>
      <point x="47" y="54"/>
      <point x="47" y="122" type="curve"/>
      <point x="47" y="186" type="line"/>
      <point x="96" y="186" type="line"/>
      <point x="96" y="122" type="line"/>
      <point x="96" y="82"/>
      <point x="129" y="49"/>
      <point x="169" y="49" type="curve" smooth="yes"/>
      <point x="209" y="49"/>
      <point x="242" y="82"/>
      <point x="242" y="122" type="curve"/>
      <point x="242" y="330" type="line"/>
      <point x="47" y="330" type="line"/>
      <point x="47" y="588" type="line"/>
      <point x="47" y="657"/>
      <point x="101" y="712"/>
      <point x="169" y="712" type="curve" smooth="yes"/>
      <point x="237" y="712"/>
      <point x="292" y="657"/>
      <point x="292" y="588" type="curve"/>
      <point x="292" y="549" type="line"/>
    </contour>
    <contour>
      <point x="352" y="489" type="line"/>
      <point x="352" y="538" type="line"/>
      <point x="352" y="589"/>
      <point x="325" y="632"/>
      <point x="284" y="655" type="curve"/>
      <point x="261" y="695"/>
      <point x="218" y="722"/>
      <point x="169" y="722" type="curve" smooth="yes"/>
      <point x="95" y="722"/>
      <point x="37" y="663"/>
      <point x="37" y="588" type="curve"/>
      <point x="37" y="320" type="line"/>
      <point x="87" y="320" type="line"/>
      <point x="87" y="270" type="line"/>
      <point x="232" y="270" type="line"/>
      <point x="232" y="122" type="line"/>
      <point x="232" y="87"/>
      <point x="204" y="59"/>
      <point x="169" y="59" type="curve" smooth="yes"/>
      <point x="165" y="59"/>
      <point x="161" y="59"/>
      <point x="157" y="60" type="curve"/>
      <point x="156" y="64"/>
      <point x="156" y="68"/>
      <point x="156" y="72" type="curve"/>
      <point x="156" y="146" type="line"/>
      <point x="106" y="146" type="line"/>
      <point x="106" y="196" type="line"/>
      <point x="37" y="196" type="line"/>
      <point x="37" y="122" type="line"/>
      <point x="37" y="72"/>
      <point x="63" y="28"/>
      <point x="104" y="5" type="curve"/>
      <point x="126" y="-34"/>
      <point x="169" y="-61"/>
      <point x="219" y="-61" type="curve" smooth="yes"/>
      <point x="293" y="-61"/>
      <point x="352" y="-2"/>
      <point x="352" y="72" type="curve"/>
      <point x="352" y="340" type="line"/>
      <point x="302" y="340" type="line"/>
      <point x="302" y="390" type="line"/>
      <point x="156" y="390" type="line"/>
      <point x="156" y="538" type="line"/>
      <point x="156" y="573"/>
      <point x="184" y="602"/>
      <point x="219" y="602" type="curve" smooth="yes"/>
      <point x="223" y="602"/>
      <point x="227" y="601"/>
      <point x="230" y="601" type="curve"/>
      <point x="231" y="597"/>
      <point x="232" y="592"/>
      <point x="232" y="588" type="curve"/>
      <point x="232" y="539" type="line"/>
      <point x="282" y="539" type="line"/>
      <point x="282" y="538" type="line"/>
      <point x="282" y="489" type="line"/>
    </contour>
    <contour>
      <point x="134" y="641" type="curve" smooth="yes"/>
      <point x="127" y="636"/>
      <point x="121" y="629"/>
      <point x="116" y="622" type="curve" smooth="yes"/>
      <point x="121" y="630"/>
      <point x="127" y="636"/>
    </contour>
    <contour>
      <point x="272" y="37" type="curve"/>
      <point x="268" y="30"/>
      <point x="262" y="25"/>
      <point x="256" y="21" type="curve" smooth="yes"/>
      <point x="262" y="26"/>
      <point x="267" y="31"/>
    </contour>
  </outline>
</glyph>
<glyph name="six" format="1">
  <advance width="394"/>
  <unicode hex="0036"/>
  <outline>
    <contour>
      <point x="139" y="331" type="line"/>
      <point x="126" y="333"/>
      <point x="114" y="337"/>
      <point x="101" y="345" type="curve"/>
      <point x="101" y="123" type="line"/>
      <point x="101" y="82"/>
      <point x="135" y="49"/>
      <point x="175" y="49" type="curve" smooth="yes"/>
      <point x="216" y="49"/>
      <point x="249" y="82"/>
      <point x="249" y="123" type="curve"/>
      <point x="249" y="297" type="line"/>
      <point x="241" y="316"/>
      <point x="226" y="328"/>
      <point x="207" y="331" type="curve"/>
    </contour>
    <contour>
      <point x="249" y="528" type="line"/>
      <point x="249" y="590" type="line"/>
      <point x="249" y="631"/>
      <point x="216" y="664"/>
      <point x="175" y="664" type="curve" smooth="yes"/>
      <point x="135" y="664"/>
      <point x="101" y="631"/>
      <point x="101" y="590" type="curve"/>
      <point x="101" y="415" type="line"/>
      <point x="109" y="396"/>
      <point x="125" y="384"/>
      <point x="143" y="381" type="curve"/>
      <point x="211" y="381" type="line"/>
      <point x="229" y="379"/>
      <point x="246" y="370"/>
      <point x="261" y="358" type="curve"/>
      <point x="260" y="358" type="line"/>
      <point x="280" y="334" type="line"/>
      <point x="292" y="319"/>
      <point x="299" y="295"/>
      <point x="299" y="268" type="curve"/>
      <point x="299" y="123" type="line"/>
      <point x="299" y="55"/>
      <point x="243" y="-1"/>
      <point x="175" y="-1" type="curve" smooth="yes"/>
      <point x="107" y="-1"/>
      <point x="51" y="55"/>
      <point x="51" y="123" type="curve"/>
      <point x="51" y="590" type="line"/>
      <point x="51" y="659"/>
      <point x="107" y="714"/>
      <point x="175" y="714" type="curve" smooth="yes"/>
      <point x="243" y="714"/>
      <point x="299" y="659"/>
      <point x="299" y="590" type="curve"/>
      <point x="299" y="528" type="line"/>
    </contour>
    <contour>
      <point x="359" y="468" type="line"/>
      <point x="359" y="540" type="line"/>
      <point x="359" y="590"/>
      <point x="331" y="633"/>
      <point x="291" y="656" type="curve"/>
      <point x="268" y="697"/>
      <point x="224" y="724"/>
      <point x="175" y="724" type="curve" smooth="yes"/>
      <point x="102" y="724"/>
      <point x="41" y="665"/>
      <point x="41" y="590" type="curve"/>
      <point x="41" y="123" type="line"/>
      <point x="41" y="74"/>
      <point x="69" y="30"/>
      <point x="109" y="7" type="curve"/>
      <point x="132" y="-33"/>
      <point x="176" y="-61"/>
      <point x="225" y="-61" type="curve" smooth="yes"/>
      <point x="298" y="-61"/>
      <point x="359" y="0"/>
      <point x="359" y="73" type="curve"/>
      <point x="359" y="218" type="line"/>
      <point x="359" y="248"/>
      <point x="351" y="274"/>
      <point x="338" y="290" type="curve"/>
      <point x="316" y="317" type="line"/>
      <point x="309" y="322"/>
      <point x="302" y="328"/>
      <point x="293" y="332" type="curve"/>
      <point x="292" y="335"/>
      <point x="290" y="337"/>
      <point x="288" y="340" type="curve"/>
      <point x="266" y="367" type="line"/>
      <point x="252" y="379"/>
      <point x="234" y="389"/>
      <point x="212" y="391" type="curve"/>
      <point x="161" y="391" type="line"/>
      <point x="161" y="540" type="line"/>
      <point x="161" y="575"/>
      <point x="190" y="604"/>
      <point x="225" y="604" type="curve" smooth="yes"/>
      <point x="229" y="604"/>
      <point x="233" y="603"/>
      <point x="237" y="602" type="curve"/>
      <point x="238" y="598"/>
      <point x="239" y="594"/>
      <point x="239" y="590" type="curve"/>
      <point x="239" y="518" type="line"/>
      <point x="289" y="518" type="line"/>
      <point x="289" y="468" type="line"/>
    </contour>
    <contour>
      <point x="187" y="271" type="curve"/>
      <point x="239" y="271" type="line"/>
      <point x="239" y="123" type="line"/>
      <point x="239" y="88"/>
      <point x="210" y="59"/>
      <point x="175" y="59" type="curve" smooth="yes"/>
      <point x="171" y="59"/>
      <point x="166" y="59"/>
      <point x="162" y="60" type="curve"/>
      <point x="161" y="64"/>
      <point x="161" y="69"/>
      <point x="161" y="73" type="curve"/>
      <point x="161" y="278" type="line"/>
      <point x="170" y="274"/>
      <point x="178" y="272"/>
    </contour>
    <contour>
      <point x="281" y="42" type="curve"/>
      <point x="275" y="31"/>
      <point x="266" y="23"/>
      <point x="256" y="17" type="curve"/>
      <point x="265" y="24"/>
      <point x="274" y="32"/>
    </contour>
    <contour>
      <point x="137" y="641" type="curve" smooth="yes"/>
      <point x="132" y="637"/>
      <point x="128" y="632"/>
      <point x="123" y="627" type="curve"/>
      <point x="127" y="633"/>
      <point x="132" y="637"/>
    </contour>
  </outline>
</glyph>
<glyph name="seven" format="1">
  <advance width="410"/>
  <unicode hex="0037"/>
  <outline>
    <contour>
      <point x="306" y="683" type="curve" smooth="yes"/>
      <point x="306" y="680"/>
      <point x="306" y="677"/>
      <point x="304" y="673" type="curve"/>
      <point x="305" y="674" type="line"/>
      <point x="105" y="13" type="line"/>
      <point x="95" y="0"/>
      <point x="74" y="-4"/>
      <point x="63" y="7" type="curve" smooth="yes"/>
      <point x="52" y="18"/>
      <point x="56" y="26"/>
      <point x="57" y="35" type="curve" smooth="yes"/>
      <point x="57" y="37"/>
      <point x="58" y="40"/>
      <point x="58" y="41" type="curve"/>
      <point x="244" y="655" type="line"/>
      <point x="150" y="655" type="line"/>
      <point x="119" y="655"/>
      <point x="112" y="648"/>
      <point x="112" y="617" type="curve" smooth="yes"/>
      <point x="112" y="601"/>
      <point x="100" y="590"/>
      <point x="84" y="590" type="curve" smooth="yes"/>
      <point x="68" y="590"/>
      <point x="57" y="601"/>
      <point x="57" y="617" type="curve" smooth="yes"/>
      <point x="57" y="682"/>
      <point x="85" y="711"/>
      <point x="150" y="711" type="curve"/>
      <point x="278" y="711" type="line"/>
      <point x="295" y="711"/>
      <point x="306" y="699"/>
    </contour>
    <contour>
      <point x="366" y="633" type="curve" smooth="yes"/>
      <point x="366" y="655"/>
      <point x="351" y="671"/>
      <point x="328" y="671" type="curve"/>
      <point x="314" y="671" type="line"/>
      <point x="316" y="677"/>
      <point x="316" y="680"/>
      <point x="316" y="683" type="curve" smooth="yes"/>
      <point x="316" y="705"/>
      <point x="301" y="721"/>
      <point x="278" y="721" type="curve"/>
      <point x="150" y="721" type="line"/>
      <point x="78" y="721"/>
      <point x="47" y="689"/>
      <point x="47" y="617" type="curve" smooth="yes"/>
      <point x="47" y="595"/>
      <point x="62" y="580"/>
      <point x="84" y="580" type="curve" smooth="yes"/>
      <point x="89" y="580"/>
      <point x="93" y="580"/>
      <point x="97" y="582" type="curve"/>
      <point x="97" y="567" type="line"/>
      <point x="97" y="545"/>
      <point x="112" y="530"/>
      <point x="134" y="530" type="curve" smooth="yes"/>
      <point x="156" y="530"/>
      <point x="172" y="545"/>
      <point x="172" y="567" type="curve" smooth="yes"/>
      <point x="172" y="590"/>
      <point x="177" y="595"/>
      <point x="200" y="595" type="curve"/>
      <point x="215" y="595" type="line"/>
      <point x="48" y="44" type="line"/>
      <point x="48" y="41"/>
      <point x="47" y="36"/>
      <point x="47" y="35" type="curve" smooth="yes"/>
      <point x="47" y="33"/>
      <point x="46" y="31"/>
      <point x="46" y="30" type="curve"/>
      <point x="46" y="31" type="line"/>
      <point x="44" y="22"/>
      <point x="43" y="13"/>
      <point x="56" y="0" type="curve" smooth="yes"/>
      <point x="66" y="-10"/>
      <point x="84" y="-10"/>
      <point x="98" y="-4" type="curve"/>
      <point x="98" y="-6" type="line"/>
      <point x="98" y="-9"/>
      <point x="97" y="-14"/>
      <point x="97" y="-15" type="curve" smooth="yes"/>
      <point x="97" y="-16"/>
      <point x="96" y="-18"/>
      <point x="96" y="-19" type="curve" smooth="yes"/>
      <point x="94" y="-28"/>
      <point x="93" y="-37"/>
      <point x="106" y="-50" type="curve" smooth="yes"/>
      <point x="121" y="-65"/>
      <point x="151" y="-59"/>
      <point x="165" y="-41" type="curve"/>
      <point x="365" y="621" type="line"/>
      <point x="364" y="621" type="line"/>
      <point x="366" y="627"/>
      <point x="366" y="630"/>
    </contour>
  </outline>
</glyph>
<glyph name="eight" format="1">
  <advance width="408"/>
  <unicode hex="0038"/>
  <outline>
    <contour>
      <point x="108" y="595" type="line"/>
      <point x="108" y="590" type="line"/>
      <point x="89" y="590" type="line"/>
      <point x="89" y="602" type="line"/>
      <point x="108" y="602" type="line"/>
    </contour>
    <contour>
      <point x="249" y="590" type="line"/>
      <point x="249" y="628"/>
      <point x="217" y="660"/>
      <point x="179" y="660" type="curve" smooth="yes"/>
      <point x="142" y="660"/>
      <point x="111" y="631"/>
      <point x="108" y="595" type="curve"/>
      <point x="108" y="549" type="line"/>
      <point x="108" y="511"/>
      <point x="140" y="479"/>
      <point x="179" y="479" type="curve" smooth="yes"/>
      <point x="217" y="479"/>
      <point x="249" y="511"/>
      <point x="249" y="549" type="curve"/>
    </contour>
    <contour>
      <point x="249" y="350" type="line"/>
      <point x="249" y="388"/>
      <point x="217" y="420"/>
      <point x="179" y="420" type="curve" smooth="yes"/>
      <point x="140" y="420"/>
      <point x="108" y="388"/>
      <point x="108" y="350" type="curve"/>
      <point x="108" y="124" type="line"/>
      <point x="108" y="86"/>
      <point x="140" y="54"/>
      <point x="179" y="54" type="curve" smooth="yes"/>
      <point x="217" y="54"/>
      <point x="249" y="86"/>
      <point x="249" y="124" type="curve"/>
    </contour>
    <contour>
      <point x="304" y="549" type="line"/>
      <point x="304" y="508"/>
      <point x="288" y="473"/>
      <point x="257" y="450" type="curve"/>
      <point x="285" y="427"/>
      <point x="304" y="389"/>
      <point x="304" y="350" type="curve"/>
      <point x="304" y="124" type="line"/>
      <point x="304" y="55"/>
      <point x="247" y="-1"/>
      <point x="179" y="-1" type="curve" smooth="yes"/>
      <point x="109" y="-1"/>
      <point x="54" y="55"/>
      <point x="54" y="124" type="curve"/>
      <point x="54" y="350" type="line"/>
      <point x="54" y="391"/>
      <point x="70" y="427"/>
      <point x="101" y="450" type="curve"/>
      <point x="73" y="473"/>
      <point x="54" y="510"/>
      <point x="54" y="549" type="curve"/>
      <point x="54" y="590" type="line"/>
      <point x="54" y="660"/>
      <point x="109" y="716"/>
      <point x="179" y="716" type="curve" smooth="yes"/>
      <point x="247" y="716"/>
      <point x="304" y="660"/>
      <point x="304" y="590" type="curve"/>
    </contour>
    <contour>
      <point x="364" y="499" type="curve"/>
      <point x="364" y="540" type="line"/>
      <point x="364" y="591"/>
      <point x="336" y="634"/>
      <point x="295" y="658" type="curve"/>
      <point x="272" y="699"/>
      <point x="228" y="726"/>
      <point x="179" y="726" type="curve" smooth="yes"/>
      <point x="103" y="726"/>
      <point x="44" y="666"/>
      <point x="44" y="590" type="curve"/>
      <point x="44" y="549" type="line"/>
      <point x="44" y="511"/>
      <point x="60" y="475"/>
      <point x="86" y="450" type="curve"/>
      <point x="56" y="425"/>
      <point x="44" y="391"/>
      <point x="44" y="350" type="curve"/>
      <point x="44" y="124" type="line"/>
      <point x="44" y="73"/>
      <point x="71" y="29"/>
      <point x="112" y="6" type="curve"/>
      <point x="135" y="-34"/>
      <point x="178" y="-61"/>
      <point x="229" y="-61" type="curve" smooth="yes"/>
      <point x="302" y="-61"/>
      <point x="364" y="-1"/>
      <point x="364" y="74" type="curve"/>
      <point x="364" y="300" type="line"/>
      <point x="364" y="338"/>
      <point x="348" y="375"/>
      <point x="322" y="400" type="curve"/>
      <point x="352" y="425"/>
      <point x="364" y="458"/>
    </contour>
    <contour>
      <point x="239" y="124" type="line"/>
      <point x="239" y="91"/>
      <point x="212" y="64"/>
      <point x="179" y="64" type="curve"/>
      <point x="168" y="64" type="line"/>
      <point x="168" y="74" type="line"/>
      <point x="168" y="300" type="line"/>
      <point x="168" y="333"/>
      <point x="195" y="360"/>
      <point x="229" y="360" type="curve" smooth="yes"/>
      <point x="232" y="360"/>
      <point x="235" y="360"/>
      <point x="238" y="359" type="curve"/>
      <point x="239" y="356"/>
      <point x="239" y="353"/>
      <point x="239" y="350" type="curve"/>
    </contour>
    <contour>
      <point x="239" y="549" type="line"/>
      <point x="239" y="516"/>
      <point x="212" y="489"/>
      <point x="179" y="489" type="curve"/>
      <point x="168" y="489" type="line"/>
      <point x="168" y="499" type="line"/>
      <point x="168" y="544" type="line"/>
      <point x="171" y="575"/>
      <point x="198" y="600"/>
      <point x="229" y="600" type="curve" smooth="yes"/>
      <point x="232" y="600"/>
      <point x="235" y="600"/>
      <point x="238" y="599" type="curve"/>
      <point x="239" y="596"/>
      <point x="239" y="593"/>
      <point x="239" y="590" type="curve"/>
    </contour>
  </outline>
</glyph>
<glyph name="nine" format="1">
  <advance width="394"/>
  <unicode hex="0039"/>
  <outline>
    <contour>
      <point x="240" y="590" type="line"/>
      <point x="240" y="631"/>
      <point x="207" y="664"/>
      <point x="167" y="664" type="curve" smooth="yes"/>
      <point x="126" y="664"/>
      <point x="93" y="631"/>
      <point x="93" y="590" type="curve"/>
      <point x="93" y="416" type="line"/>
      <point x="101" y="397"/>
      <point x="116" y="385"/>
      <point x="134" y="382" type="curve"/>
      <point x="203" y="382" type="line"/>
      <point x="215" y="381"/>
      <point x="230" y="375"/>
      <point x="240" y="368" type="curve"/>
    </contour>
    <contour>
      <point x="291" y="123" type="line"/>
      <point x="291" y="55"/>
      <point x="235" y="-1"/>
      <point x="167" y="-1" type="curve" smooth="yes"/>
      <point x="99" y="-1"/>
      <point x="44" y="55"/>
      <point x="44" y="123" type="curve"/>
      <point x="44" y="185" type="line"/>
      <point x="93" y="185" type="line"/>
      <point x="93" y="123" type="line"/>
      <point x="93" y="82"/>
      <point x="126" y="49"/>
      <point x="167" y="49" type="curve" smooth="yes"/>
      <point x="207" y="49"/>
      <point x="240" y="82"/>
      <point x="240" y="123" type="curve"/>
      <point x="240" y="298" type="line"/>
      <point x="233" y="317"/>
      <point x="217" y="329"/>
      <point x="199" y="332" type="curve"/>
      <point x="131" y="332" type="line"/>
      <point x="115" y="334"/>
      <point x="96" y="344"/>
      <point x="82" y="354" type="curve" smooth="yes"/>
      <point x="80" y="357"/>
      <point x="77" y="358"/>
      <point x="74" y="362" type="curve"/>
      <point x="67" y="371" type="line"/>
      <point x="53" y="392"/>
      <point x="44" y="418"/>
      <point x="44" y="445" type="curve"/>
      <point x="44" y="590" type="line"/>
      <point x="44" y="659"/>
      <point x="99" y="714"/>
      <point x="167" y="714" type="curve" smooth="yes"/>
      <point x="235" y="714"/>
      <point x="291" y="659"/>
      <point x="291" y="590" type="curve"/>
    </contour>
    <contour>
      <point x="351" y="73" type="curve"/>
      <point x="351" y="540" type="line"/>
      <point x="351" y="590"/>
      <point x="323" y="633"/>
      <point x="283" y="656" type="curve"/>
      <point x="260" y="697"/>
      <point x="216" y="724"/>
      <point x="167" y="724" type="curve" smooth="yes"/>
      <point x="93" y="724"/>
      <point x="34" y="665"/>
      <point x="34" y="590" type="curve"/>
      <point x="34" y="445" type="line"/>
      <point x="34" y="416"/>
      <point x="44" y="388"/>
      <point x="59" y="365" type="curve"/>
      <point x="66" y="356" type="line"/>
      <point x="72" y="351" type="line"/>
      <point x="76" y="346" type="line"/>
      <point x="82" y="341"/>
      <point x="90" y="336"/>
      <point x="99" y="332" type="curve"/>
      <point x="102" y="326"/>
      <point x="105" y="320"/>
      <point x="109" y="315" type="curve"/>
      <point x="116" y="306" type="line"/>
      <point x="122" y="301" type="line"/>
      <point x="126" y="296" type="line"/>
      <point x="141" y="285"/>
      <point x="162" y="274"/>
      <point x="180" y="272" type="curve"/>
      <point x="230" y="272" type="line"/>
      <point x="230" y="123" type="line"/>
      <point x="230" y="88"/>
      <point x="202" y="59"/>
      <point x="167" y="59" type="curve" smooth="yes"/>
      <point x="163" y="59"/>
      <point x="158" y="59"/>
      <point x="154" y="60" type="curve"/>
      <point x="153" y="64"/>
      <point x="153" y="69"/>
      <point x="153" y="73" type="curve"/>
      <point x="153" y="145" type="line"/>
      <point x="103" y="145" type="line"/>
      <point x="103" y="195" type="line"/>
      <point x="34" y="195" type="line"/>
      <point x="34" y="123" type="line"/>
      <point x="34" y="73"/>
      <point x="61" y="29"/>
      <point x="102" y="6" type="curve"/>
      <point x="125" y="-33"/>
      <point x="167" y="-61"/>
      <point x="217" y="-61" type="curve" smooth="yes"/>
      <point x="290" y="-61"/>
      <point x="351" y="0"/>
    </contour>
    <contour>
      <point x="230" y="385" type="line"/>
      <point x="221" y="389"/>
      <point x="213" y="391"/>
      <point x="204" y="392" type="curve"/>
      <point x="153" y="392" type="line"/>
      <point x="153" y="540" type="line"/>
      <point x="153" y="575"/>
      <point x="182" y="604"/>
      <point x="217" y="604" type="curve" smooth="yes"/>
      <point x="221" y="604"/>
      <point x="225" y="603"/>
      <point x="228" y="603" type="curve"/>
      <point x="229" y="599"/>
      <point x="230" y="594"/>
      <point x="230" y="590" type="curve"/>
    </contour>
    <contour>
      <point x="268" y="35" type="line"/>
      <point x="263" y="28"/>
      <point x="256" y="22"/>
      <point x="249" y="17" type="curve"/>
    </contour>
    <contour>
      <point x="129" y="641" type="curve" smooth="yes"/>
      <point x="123" y="636"/>
      <point x="117" y="630"/>
      <point x="112" y="623" type="curve" smooth="yes"/>
      <point x="117" y="630"/>
      <point x="123" y="636"/>
    </contour>
  </outline>
</glyph>
<glyph name="colon" format="1">
  <advance width="251"/>
  <unicode hex="003A"/>
  <outline>
    <contour>
      <point x="116" y="315" type="line"/>
      <point x="142" y="315"/>
      <point x="163" y="293"/>
      <point x="163" y="267" type="curve" smooth="yes"/>
      <point x="163" y="241"/>
      <point x="142" y="219"/>
      <point x="116" y="219" type="curve"/>
      <point x="86" y="219" type="line"/>
      <point x="59" y="219"/>
      <point x="38" y="241"/>
      <point x="38" y="267" type="curve" smooth="yes"/>
      <point x="38" y="293"/>
      <point x="59" y="315"/>
      <point x="86" y="315" type="curve"/>
    </contour>
    <contour>
      <point x="86" y="451" type="line"/>
      <point x="59" y="451"/>
      <point x="38" y="472"/>
      <point x="38" y="500" type="curve" smooth="yes"/>
      <point x="38" y="526"/>
      <point x="59" y="547"/>
      <point x="86" y="547" type="curve"/>
      <point x="116" y="547" type="line"/>
      <point x="142" y="547"/>
      <point x="163" y="526"/>
      <point x="163" y="500" type="curve" smooth="yes"/>
      <point x="163" y="472"/>
      <point x="142" y="451"/>
      <point x="116" y="451" type="curve"/>
    </contour>
    <contour>
      <point x="136" y="391" type="curve"/>
      <point x="166" y="391" type="line"/>
      <point x="198" y="391"/>
      <point x="223" y="416"/>
      <point x="223" y="450" type="curve" smooth="yes"/>
      <point x="223" y="479"/>
      <point x="201" y="503"/>
      <point x="173" y="507" type="curve"/>
      <point x="169" y="535"/>
      <point x="145" y="557"/>
      <point x="116" y="557" type="curve"/>
      <point x="86" y="557" type="line"/>
      <point x="53" y="557"/>
      <point x="28" y="532"/>
      <point x="28" y="500" type="curve" smooth="yes"/>
      <point x="28" y="468"/>
      <point x="49" y="445"/>
      <point x="78" y="441" type="curve"/>
      <point x="82" y="412"/>
      <point x="106" y="391"/>
    </contour>
    <contour>
      <point x="116" y="325" type="curve"/>
      <point x="86" y="325" type="line"/>
      <point x="53" y="325"/>
      <point x="28" y="298"/>
      <point x="28" y="267" type="curve" smooth="yes"/>
      <point x="28" y="238"/>
      <point x="49" y="213"/>
      <point x="78" y="209" type="curve"/>
      <point x="82" y="182"/>
      <point x="106" y="159"/>
      <point x="136" y="159" type="curve"/>
      <point x="166" y="159" type="line"/>
      <point x="198" y="159"/>
      <point x="223" y="186"/>
      <point x="223" y="217" type="curve" smooth="yes"/>
      <point x="223" y="246"/>
      <point x="201" y="271"/>
      <point x="172" y="274" type="curve"/>
      <point x="169" y="302"/>
      <point x="145" y="325"/>
    </contour>
  </outline>
</glyph>
<glyph name="semicolon" format="1">
  <advance width="243"/>
  <unicode hex="003B"/>
  <outline>
    <contour>
      <point x="116" y="315" type="line"/>
      <point x="142" y="315"/>
      <point x="163" y="293"/>
      <point x="163" y="267" type="curve" smooth="yes"/>
      <point x="163" y="250"/>
      <point x="156" y="236"/>
      <point x="143" y="228" type="curve"/>
      <point x="101" y="165" type="line"/>
      <point x="101" y="166" type="line"/>
      <point x="96" y="158"/>
      <point x="87" y="153"/>
      <point x="80" y="153" type="curve" smooth="yes"/>
      <point x="75" y="153"/>
      <point x="69" y="155"/>
      <point x="65" y="158" type="curve" smooth="yes"/>
      <point x="52" y="166"/>
      <point x="49" y="182"/>
      <point x="57" y="194" type="curve"/>
      <point x="74" y="220" type="line"/>
      <point x="52" y="225"/>
      <point x="38" y="245"/>
      <point x="38" y="267" type="curve" smooth="yes"/>
      <point x="38" y="293"/>
      <point x="59" y="315"/>
      <point x="86" y="315" type="curve"/>
    </contour>
    <contour>
      <point x="86" y="451" type="line"/>
      <point x="59" y="451"/>
      <point x="38" y="472"/>
      <point x="38" y="500" type="curve" smooth="yes"/>
      <point x="38" y="526"/>
      <point x="59" y="547"/>
      <point x="86" y="547" type="curve"/>
      <point x="116" y="547" type="line"/>
      <point x="142" y="547"/>
      <point x="163" y="526"/>
      <point x="163" y="500" type="curve" smooth="yes"/>
      <point x="163" y="472"/>
      <point x="142" y="451"/>
      <point x="116" y="451" type="curve"/>
    </contour>
    <contour>
      <point x="116" y="325" type="curve"/>
      <point x="86" y="325" type="line"/>
      <point x="53" y="325"/>
      <point x="28" y="298"/>
      <point x="28" y="267" type="curve" smooth="yes"/>
      <point x="28" y="243"/>
      <point x="37" y="223"/>
      <point x="59" y="214" type="curve"/>
      <point x="49" y="199" type="line"/>
      <point x="38" y="182"/>
      <point x="42" y="160"/>
      <point x="60" y="149" type="curve"/>
      <point x="59" y="150" type="line"/>
      <point x="64" y="146"/>
      <point x="72" y="143"/>
      <point x="80" y="143" type="curve" smooth="yes"/>
      <point x="86" y="143"/>
      <point x="94" y="146"/>
      <point x="100" y="151" type="curve"/>
      <point x="99" y="149" type="line"/>
      <point x="88" y="132"/>
      <point x="92" y="110"/>
      <point x="110" y="99" type="curve"/>
      <point x="109" y="100" type="line"/>
      <point x="114" y="96"/>
      <point x="122" y="93"/>
      <point x="130" y="93" type="curve" smooth="yes"/>
      <point x="140" y="93"/>
      <point x="152" y="100"/>
      <point x="159" y="111" type="curve"/>
      <point x="159" y="110" type="line"/>
      <point x="199" y="170" type="line"/>
      <point x="214" y="180"/>
      <point x="223" y="197"/>
      <point x="223" y="217" type="curve" smooth="yes"/>
      <point x="223" y="246"/>
      <point x="201" y="271"/>
      <point x="172" y="274" type="curve"/>
      <point x="169" y="302"/>
      <point x="145" y="325"/>
    </contour>
    <contour>
      <point x="136" y="391" type="curve"/>
      <point x="166" y="391" type="line"/>
      <point x="198" y="391"/>
      <point x="223" y="416"/>
      <point x="223" y="450" type="curve" smooth="yes"/>
      <point x="223" y="479"/>
      <point x="201" y="503"/>
      <point x="173" y="507" type="curve"/>
      <point x="169" y="535"/>
      <point x="145" y="557"/>
      <point x="116" y="557" type="curve"/>
      <point x="86" y="557" type="line"/>
      <point x="53" y="557"/>
      <point x="28" y="532"/>
      <point x="28" y="500" type="curve" smooth="yes"/>
      <point x="28" y="468"/>
      <point x="49" y="445"/>
      <point x="78" y="441" type="curve"/>
      <point x="82" y="412"/>
      <point x="106" y="391"/>
    </contour>
  </outline>
</glyph>
<glyph name="less" format="1">
  <advance width="467"/>
  <unicode hex="003C"/>
  <outline>
    <contour>
      <point x="343" y="1" type="curve" smooth="yes"/>
      <point x="337" y="1"/>
      <point x="329" y="5"/>
      <point x="324" y="9" type="curve"/>
      <point x="14" y="363" type="line"/>
      <point x="324" y="718" type="line"/>
      <point x="333" y="728"/>
      <point x="350" y="729"/>
      <point x="360" y="720" type="curve" smooth="yes"/>
      <point x="370" y="711"/>
      <point x="371" y="694"/>
      <point x="362" y="683" type="curve"/>
      <point x="83" y="363" type="line"/>
      <point x="362" y="44" type="line"/>
      <point x="370" y="33"/>
      <point x="369" y="16"/>
      <point x="359" y="6" type="curve" smooth="yes"/>
      <point x="354" y="2"/>
      <point x="349" y="1"/>
    </contour>
    <contour>
      <point x="393" y="-59" type="curve" smooth="yes"/>
      <point x="401" y="-59"/>
      <point x="408" y="-58"/>
      <point x="415" y="-52" type="curve" smooth="yes"/>
      <point x="429" y="-38"/>
      <point x="429" y="-12"/>
      <point x="416" y="6" type="curve"/>
      <point x="147" y="313" type="line"/>
      <point x="420" y="626" type="line"/>
      <point x="432" y="641"/>
      <point x="431" y="665"/>
      <point x="417" y="677" type="curve" smooth="yes"/>
      <point x="405" y="688"/>
      <point x="387" y="689"/>
      <point x="373" y="681" type="curve"/>
      <point x="382" y="696"/>
      <point x="379" y="716"/>
      <point x="367" y="727" type="curve" smooth="yes"/>
      <point x="353" y="740"/>
      <point x="329" y="739"/>
      <point x="316" y="725" type="curve"/>
      <point x="0" y="363" type="line"/>
      <point x="314" y="4" type="line"/>
      <point x="318" y="0"/>
      <point x="323" y="-3"/>
      <point x="328" y="-5" type="curve"/>
      <point x="364" y="-46" type="line"/>
      <point x="372" y="-53"/>
      <point x="384" y="-59"/>
    </contour>
  </outline>
</glyph>
<glyph name="equal" format="1">
  <advance width="543"/>
  <unicode hex="003D"/>
  <outline>
    <contour>
      <point x="54" y="284" type="curve" smooth="yes"/>
      <point x="54" y="294"/>
      <point x="61" y="307"/>
      <point x="72" y="307" type="curve"/>
      <point x="418" y="307" type="line"/>
      <point x="429" y="307"/>
      <point x="437" y="294"/>
      <point x="437" y="284" type="curve" smooth="yes"/>
      <point x="437" y="272"/>
      <point x="429" y="260"/>
      <point x="418" y="260" type="curve"/>
      <point x="72" y="260" type="line"/>
      <point x="61" y="260"/>
      <point x="54" y="272"/>
    </contour>
    <contour>
      <point x="56" y="387" type="curve" smooth="yes"/>
      <point x="56" y="400"/>
      <point x="63" y="411"/>
      <point x="74" y="411" type="curve"/>
      <point x="420" y="411" type="line"/>
      <point x="431" y="411"/>
      <point x="439" y="400"/>
      <point x="439" y="387" type="curve" smooth="yes"/>
      <point x="439" y="376"/>
      <point x="431" y="364"/>
      <point x="420" y="364" type="curve"/>
      <point x="74" y="364" type="line"/>
      <point x="63" y="364"/>
      <point x="56" y="376"/>
    </contour>
    <contour>
      <point x="96" y="337" type="curve" smooth="yes"/>
      <point x="96" y="330"/>
      <point x="97" y="323"/>
      <point x="101" y="317" type="curve"/>
      <point x="72" y="317" type="line"/>
      <point x="55" y="317"/>
      <point x="44" y="298"/>
      <point x="44" y="284" type="curve" smooth="yes"/>
      <point x="44" y="267"/>
      <point x="55" y="250"/>
      <point x="72" y="250" type="curve"/>
      <point x="98" y="250" type="line"/>
      <point x="95" y="245"/>
      <point x="94" y="239"/>
      <point x="94" y="234" type="curve" smooth="yes"/>
      <point x="94" y="217"/>
      <point x="105" y="200"/>
      <point x="122" y="200" type="curve"/>
      <point x="468" y="200" type="line"/>
      <point x="485" y="200"/>
      <point x="497" y="217"/>
      <point x="497" y="234" type="curve" smooth="yes"/>
      <point x="497" y="248"/>
      <point x="485" y="267"/>
      <point x="468" y="267" type="curve"/>
      <point x="443" y="267" type="line"/>
      <point x="445" y="272"/>
      <point x="447" y="278"/>
      <point x="447" y="284" type="curve" smooth="yes"/>
      <point x="447" y="290"/>
      <point x="444" y="298"/>
      <point x="440" y="304" type="curve"/>
      <point x="470" y="304" type="line"/>
      <point x="487" y="304"/>
      <point x="499" y="321"/>
      <point x="499" y="337" type="curve" smooth="yes"/>
      <point x="499" y="355"/>
      <point x="487" y="371"/>
      <point x="470" y="371" type="curve"/>
      <point x="445" y="371" type="line"/>
      <point x="447" y="376"/>
      <point x="449" y="381"/>
      <point x="449" y="387" type="curve" smooth="yes"/>
      <point x="449" y="405"/>
      <point x="437" y="421"/>
      <point x="420" y="421" type="curve"/>
      <point x="74" y="421" type="line"/>
      <point x="57" y="421"/>
      <point x="46" y="405"/>
      <point x="46" y="387" type="curve" smooth="yes"/>
      <point x="46" y="371"/>
      <point x="57" y="354"/>
      <point x="74" y="354" type="curve"/>
      <point x="99" y="354" type="line"/>
      <point x="97" y="349"/>
      <point x="96" y="343"/>
    </contour>
  </outline>
</glyph>
<glyph name="greater" format="1">
  <advance width="522"/>
  <unicode hex="003E"/>
  <outline>
    <contour>
      <point x="132" y="-61" type="curve" smooth="yes"/>
      <point x="124" y="-61"/>
      <point x="115" y="-59"/>
      <point x="108" y="-53" type="curve" smooth="yes"/>
      <point x="96" y="-43"/>
      <point x="92" y="-22"/>
      <point x="97" y="-7" type="curve"/>
      <point x="92" y="-9"/>
      <point x="87" y="-11"/>
      <point x="82" y="-11" type="curve" smooth="yes"/>
      <point x="74" y="-11"/>
      <point x="65" y="-9"/>
      <point x="58" y="-3" type="curve" smooth="yes"/>
      <point x="43" y="9"/>
      <point x="41" y="38"/>
      <point x="53" y="52" type="curve" smooth="yes"/>
      <point x="113" y="121"/>
      <point x="180" y="200"/>
      <point x="245" y="274" type="curve"/>
      <point x="323" y="363" type="line"/>
      <point x="278" y="414"/>
      <point x="237" y="463"/>
      <point x="192" y="514" type="curve" smooth="yes"/>
      <point x="146" y="566"/>
      <point x="99" y="620"/>
      <point x="53" y="674" type="curve"/>
      <point x="42" y="689"/>
      <point x="41" y="713"/>
      <point x="57" y="728" type="curve" smooth="yes"/>
      <point x="73" y="742"/>
      <point x="98" y="741"/>
      <point x="111" y="726" type="curve"/>
      <point x="146" y="685" type="line"/>
      <point x="152" y="683"/>
      <point x="157" y="680"/>
      <point x="161" y="676" type="curve"/>
      <point x="478" y="313" type="line"/>
      <point x="160" y="-49" type="line"/>
      <point x="152" y="-57"/>
      <point x="143" y="-61"/>
    </contour>
    <contour>
      <point x="82" y="-1" type="curve" smooth="yes"/>
      <point x="90" y="-1"/>
      <point x="97" y="2"/>
      <point x="103" y="8" type="curve"/>
      <point x="414" y="363" type="line"/>
      <point x="104" y="719" type="line"/>
      <point x="94" y="730"/>
      <point x="76" y="731"/>
      <point x="64" y="721" type="curve" smooth="yes"/>
      <point x="52" y="710"/>
      <point x="53" y="692"/>
      <point x="61" y="680" type="curve"/>
      <point x="153" y="573"/>
      <point x="245" y="470"/>
      <point x="337" y="363" type="curve"/>
      <point x="249" y="262"/>
      <point x="147" y="146"/>
      <point x="61" y="46" type="curve"/>
      <point x="52" y="35"/>
      <point x="53" y="14"/>
      <point x="64" y="5" type="curve" smooth="yes"/>
      <point x="69" y="1"/>
      <point x="76" y="-1"/>
    </contour>
  </outline>
</glyph>
<glyph name="question" format="1">
  <advance width="412"/>
  <unicode hex="003F"/>
  <outline>
    <contour>
      <point x="82" y="70" type="curve" smooth="yes"/>
      <point x="96" y="70"/>
      <point x="110" y="57"/>
      <point x="110" y="42" type="curve"/>
      <point x="110" y="29" type="line"/>
      <point x="110" y="13"/>
      <point x="96" y="1"/>
      <point x="82" y="1" type="curve" smooth="yes"/>
      <point x="66" y="1"/>
      <point x="54" y="13"/>
      <point x="54" y="29" type="curve"/>
      <point x="54" y="42" type="line"/>
      <point x="54" y="57"/>
      <point x="66" y="70"/>
    </contour>
    <contour>
      <point x="308" y="443" type="line"/>
      <point x="306" y="418"/>
      <point x="297" y="393"/>
      <point x="283" y="375" type="curve" smooth="yes"/>
      <point x="278" y="367"/>
      <point x="273" y="361"/>
      <point x="269" y="357" type="curve" smooth="yes"/>
      <point x="254" y="345"/>
      <point x="237" y="338"/>
      <point x="218" y="335" type="curve"/>
      <point x="220" y="336" type="line"/>
      <point x="214" y="334"/>
      <point x="211" y="334"/>
      <point x="208" y="334" type="curve"/>
      <point x="147" y="334" type="line"/>
      <point x="131" y="331"/>
      <point x="118" y="319"/>
      <point x="110" y="303" type="curve"/>
      <point x="110" y="96" type="line"/>
      <point x="54" y="96" type="line"/>
      <point x="54" y="274" type="line"/>
      <point x="54" y="302"/>
      <point x="65" y="329"/>
      <point x="79" y="351" type="curve" smooth="yes"/>
      <point x="84" y="356"/>
      <point x="90" y="363"/>
      <point x="94" y="367" type="curve"/>
      <point x="93" y="367" type="line"/>
      <point x="108" y="380"/>
      <point x="125" y="388"/>
      <point x="146" y="390" type="curve"/>
      <point x="150" y="390" type="line"/>
      <point x="151" y="390"/>
      <point x="152" y="391"/>
      <point x="154" y="391" type="curve"/>
      <point x="214" y="391" type="line"/>
      <point x="230" y="393"/>
      <point x="245" y="406"/>
      <point x="252" y="423" type="curve"/>
      <point x="252" y="598" type="line"/>
      <point x="252" y="638"/>
      <point x="221" y="670"/>
      <point x="181" y="670" type="curve" smooth="yes"/>
      <point x="142" y="670"/>
      <point x="110" y="638"/>
      <point x="110" y="598" type="curve"/>
      <point x="110" y="533" type="line"/>
      <point x="54" y="533" type="line"/>
      <point x="54" y="598" type="line"/>
      <point x="54" y="668"/>
      <point x="112" y="725"/>
      <point x="181" y="725" type="curve" smooth="yes"/>
      <point x="251" y="725"/>
      <point x="308" y="668"/>
      <point x="308" y="598" type="curve"/>
    </contour>
    <contour>
      <point x="82" y="80" type="curve" smooth="yes"/>
      <point x="60" y="80"/>
      <point x="44" y="62"/>
      <point x="44" y="42" type="curve"/>
      <point x="44" y="29" type="line"/>
      <point x="44" y="7"/>
      <point x="60" y="-9"/>
      <point x="82" y="-9" type="curve" smooth="yes"/>
      <point x="86" y="-9"/>
      <point x="90" y="-8"/>
      <point x="94" y="-7" type="curve"/>
      <point x="94" y="-8" type="line"/>
      <point x="94" y="-21" type="line"/>
      <point x="94" y="-43"/>
      <point x="110" y="-59"/>
      <point x="132" y="-59" type="curve" smooth="yes"/>
      <point x="151" y="-59"/>
      <point x="170" y="-43"/>
      <point x="170" y="-21" type="curve"/>
      <point x="170" y="-8" type="line"/>
      <point x="170" y="12"/>
      <point x="151" y="30"/>
      <point x="132" y="30" type="curve" smooth="yes"/>
      <point x="128" y="30"/>
      <point x="123" y="29"/>
      <point x="120" y="28" type="curve"/>
      <point x="120" y="29" type="line"/>
      <point x="120" y="36" type="line"/>
      <point x="170" y="36" type="line"/>
      <point x="170" y="251" type="line"/>
      <point x="177" y="261"/>
      <point x="188" y="271"/>
      <point x="199" y="274" type="curve"/>
      <point x="258" y="274" type="line"/>
      <point x="261" y="274"/>
      <point x="264" y="274"/>
      <point x="273" y="277" type="curve"/>
      <point x="271" y="276" type="line"/>
      <point x="290" y="278"/>
      <point x="309" y="285"/>
      <point x="325" y="299" type="curve" smooth="yes"/>
      <point x="330" y="304"/>
      <point x="335" y="311"/>
      <point x="341" y="320" type="curve"/>
      <point x="341" y="319" type="line"/>
      <point x="356" y="338"/>
      <point x="366" y="365"/>
      <point x="368" y="392" type="curve"/>
      <point x="368" y="548" type="line"/>
      <point x="368" y="599"/>
      <point x="340" y="643"/>
      <point x="299" y="666" type="curve"/>
      <point x="276" y="707"/>
      <point x="232" y="735"/>
      <point x="181" y="735" type="curve" smooth="yes"/>
      <point x="107" y="735"/>
      <point x="44" y="674"/>
      <point x="44" y="598" type="curve"/>
      <point x="44" y="523" type="line"/>
      <point x="94" y="523" type="line"/>
      <point x="94" y="473" type="line"/>
      <point x="170" y="473" type="line"/>
      <point x="170" y="548" type="line"/>
      <point x="170" y="582"/>
      <point x="197" y="610"/>
      <point x="231" y="610" type="curve" smooth="yes"/>
      <point x="234" y="610"/>
      <point x="238" y="609"/>
      <point x="241" y="609" type="curve"/>
      <point x="241" y="605"/>
      <point x="242" y="601"/>
      <point x="242" y="598" type="curve"/>
      <point x="242" y="425" type="line"/>
      <point x="236" y="413"/>
      <point x="225" y="403"/>
      <point x="214" y="401" type="curve"/>
      <point x="154" y="401" type="line"/>
      <point x="153" y="401"/>
      <point x="152" y="400"/>
      <point x="151" y="400" type="curve"/>
      <point x="145" y="400" type="line"/>
      <point x="121" y="398"/>
      <point x="102" y="389"/>
      <point x="86" y="375" type="curve" smooth="yes"/>
      <point x="87" y="376"/>
      <point x="81" y="369"/>
      <point x="79" y="366" type="curve"/>
      <point x="71" y="356" type="line"/>
      <point x="56" y="332"/>
      <point x="44" y="303"/>
      <point x="44" y="274" type="curve"/>
      <point x="44" y="86" type="line"/>
      <point x="94" y="86" type="line"/>
      <point x="94" y="77" type="line"/>
      <point x="90" y="79"/>
      <point x="86" y="80"/>
    </contour>
  </outline>
</glyph>
<glyph name="at" format="1">
  <advance width="407"/>
  <unicode hex="0040"/>
  <outline>
    <contour>
      <point x="170" y="184" type="curve" smooth="yes"/>
      <point x="188" y="184"/>
      <point x="202" y="198"/>
      <point x="202" y="215" type="curve"/>
      <point x="202" y="298" type="line"/>
      <point x="202" y="316"/>
      <point x="188" y="329"/>
      <point x="170" y="329" type="curve" smooth="yes"/>
      <point x="154" y="329"/>
      <point x="139" y="316"/>
      <point x="139" y="298" type="curve"/>
      <point x="139" y="215" type="line"/>
      <point x="139" y="198"/>
      <point x="154" y="184"/>
    </contour>
    <contour>
      <point x="101" y="314" type="line"/>
      <point x="103" y="323"/>
      <point x="108" y="332"/>
      <point x="113" y="340" type="curve"/>
      <point x="101" y="340" type="line"/>
    </contour>
    <contour>
      <point x="177" y="730" type="curve" smooth="yes"/>
      <point x="247" y="730"/>
      <point x="304" y="673"/>
      <point x="304" y="603" type="curve"/>
      <point x="304" y="124" type="line"/>
      <point x="304" y="54"/>
      <point x="247" y="-3"/>
      <point x="177" y="-3" type="curve" smooth="yes"/>
      <point x="107" y="-3"/>
      <point x="51" y="54"/>
      <point x="51" y="124" type="curve"/>
      <point x="51" y="365" type="line"/>
      <point x="51" y="380"/>
      <point x="62" y="391"/>
      <point x="76" y="391" type="curve"/>
      <point x="159" y="391" type="line"/>
      <point x="203" y="391"/>
      <point x="228" y="363"/>
      <point x="238" y="318" type="curve"/>
      <point x="238" y="319" type="line"/>
      <point x="240" y="313"/>
      <point x="241" y="308"/>
      <point x="242" y="299" type="curve"/>
      <point x="242" y="215" type="line"/>
      <point x="242" y="175"/>
      <point x="210" y="143"/>
      <point x="170" y="143" type="curve" smooth="yes"/>
      <point x="137" y="143"/>
      <point x="109" y="166"/>
      <point x="101" y="198" type="curve"/>
      <point x="101" y="124" type="line"/>
      <point x="101" y="82"/>
      <point x="135" y="48"/>
      <point x="177" y="48" type="curve" smooth="yes"/>
      <point x="219" y="48"/>
      <point x="253" y="82"/>
      <point x="253" y="124" type="curve"/>
      <point x="253" y="603" type="line"/>
      <point x="253" y="645"/>
      <point x="219" y="679"/>
      <point x="177" y="679" type="curve" smooth="yes"/>
      <point x="135" y="679"/>
      <point x="101" y="645"/>
      <point x="101" y="603" type="curve"/>
      <point x="101" y="433" type="line"/>
      <point x="101" y="419"/>
      <point x="90" y="407"/>
      <point x="76" y="407" type="curve" smooth="yes"/>
      <point x="62" y="407"/>
      <point x="51" y="419"/>
      <point x="51" y="433" type="curve"/>
      <point x="51" y="603" type="line"/>
      <point x="51" y="673"/>
      <point x="107" y="730"/>
    </contour>
    <contour>
      <point x="177" y="740" type="curve" smooth="yes"/>
      <point x="101" y="740"/>
      <point x="41" y="679"/>
      <point x="41" y="603" type="curve"/>
      <point x="41" y="433" type="line"/>
      <point x="41" y="418"/>
      <point x="50" y="404"/>
      <point x="64" y="399" type="curve"/>
      <point x="50" y="394"/>
      <point x="41" y="381"/>
      <point x="41" y="365" type="curve"/>
      <point x="41" y="124" type="line"/>
      <point x="41" y="73"/>
      <point x="68" y="28"/>
      <point x="109" y="5" type="curve"/>
      <point x="132" y="-36"/>
      <point x="176" y="-63"/>
      <point x="227" y="-63" type="curve" smooth="yes"/>
      <point x="303" y="-63"/>
      <point x="364" y="-2"/>
      <point x="364" y="74" type="curve"/>
      <point x="364" y="553" type="line"/>
      <point x="364" y="604"/>
      <point x="336" y="648"/>
      <point x="295" y="671" type="curve"/>
      <point x="272" y="712"/>
      <point x="228" y="740"/>
    </contour>
    <contour>
      <point x="243" y="603" type="curve"/>
      <point x="243" y="345" type="line"/>
      <point x="242" y="346"/>
      <point x="241" y="346"/>
      <point x="240" y="346" type="curve"/>
      <point x="226" y="380"/>
      <point x="200" y="400"/>
      <point x="161" y="401" type="curve"/>
      <point x="161" y="553" type="line"/>
      <point x="161" y="589"/>
      <point x="191" y="619"/>
      <point x="227" y="619" type="curve" smooth="yes"/>
      <point x="232" y="619"/>
      <point x="236" y="618"/>
      <point x="241" y="617" type="curve"/>
      <point x="242" y="612"/>
      <point x="243" y="608"/>
    </contour>
    <contour>
      <point x="177" y="58" type="curve" smooth="yes"/>
      <point x="172" y="58"/>
      <point x="167" y="58"/>
      <point x="162" y="59" type="curve"/>
      <point x="161" y="64"/>
      <point x="161" y="69"/>
      <point x="161" y="74" type="curve"/>
      <point x="161" y="109" type="line"/>
      <point x="176" y="92"/>
      <point x="196" y="83"/>
      <point x="220" y="83" type="curve"/>
      <point x="229" y="83" type="line"/>
      <point x="217" y="68"/>
      <point x="198" y="58"/>
    </contour>
    <contour>
      <point x="220" y="144" type="curve" smooth="yes"/>
      <point x="218" y="144"/>
      <point x="215" y="144"/>
      <point x="213" y="145" type="curve"/>
      <point x="225" y="152"/>
      <point x="235" y="162"/>
      <point x="242" y="175" type="curve"/>
      <point x="242" y="165" type="line"/>
      <point x="242" y="153"/>
      <point x="232" y="144"/>
    </contour>
  </outline>
</glyph>
<glyph name="A" format="1">
  <advance width="413"/>
  <unicode hex="0041"/>
  <outline>
    <contour>
      <point x="254" y="605" type="line"/>
      <point x="254" y="644"/>
      <point x="222" y="677"/>
      <point x="182" y="677" type="curve" smooth="yes"/>
      <point x="142" y="677"/>
      <point x="110" y="644"/>
      <point x="110" y="605" type="curve"/>
      <point x="110" y="395" type="line"/>
      <point x="191" y="395" type="line"/>
      <point x="225" y="395"/>
      <point x="254" y="423"/>
      <point x="254" y="458" type="curve"/>
    </contour>
    <contour>
      <point x="182" y="733" type="curve" smooth="yes"/>
      <point x="253" y="733"/>
      <point x="309" y="675"/>
      <point x="309" y="605" type="curve"/>
      <point x="309" y="29" type="line"/>
      <point x="309" y="13"/>
      <point x="297" y="1"/>
      <point x="281" y="1" type="curve" smooth="yes"/>
      <point x="265" y="1"/>
      <point x="254" y="13"/>
      <point x="254" y="29" type="curve"/>
      <point x="254" y="356" type="line"/>
      <point x="237" y="348"/>
      <point x="211" y="340"/>
      <point x="191" y="340" type="curve"/>
      <point x="110" y="340" type="line"/>
      <point x="110" y="29" type="line"/>
      <point x="110" y="13"/>
      <point x="98" y="1"/>
      <point x="82" y="1" type="curve" smooth="yes"/>
      <point x="66" y="1"/>
      <point x="54" y="13"/>
      <point x="54" y="29" type="curve"/>
      <point x="54" y="605" type="line"/>
      <point x="54" y="675"/>
      <point x="111" y="733"/>
    </contour>
    <contour>
      <point x="182" y="743" type="curve" smooth="yes"/>
      <point x="105" y="743"/>
      <point x="44" y="680"/>
      <point x="44" y="605" type="curve"/>
      <point x="44" y="29" type="line"/>
      <point x="44" y="7"/>
      <point x="60" y="-9"/>
      <point x="82" y="-9" type="curve" smooth="yes"/>
      <point x="86" y="-9"/>
      <point x="90" y="-8"/>
      <point x="94" y="-7" type="curve"/>
      <point x="94" y="-21" type="line"/>
      <point x="94" y="-43"/>
      <point x="110" y="-59"/>
      <point x="132" y="-59" type="curve" smooth="yes"/>
      <point x="154" y="-59"/>
      <point x="170" y="-43"/>
      <point x="170" y="-21" type="curve"/>
      <point x="170" y="280" type="line"/>
      <point x="241" y="280" type="line"/>
      <point x="244" y="280" type="line"/>
      <point x="244" y="29" type="line"/>
      <point x="244" y="7"/>
      <point x="259" y="-9"/>
      <point x="281" y="-9" type="curve" smooth="yes"/>
      <point x="285" y="-9"/>
      <point x="290" y="-8"/>
      <point x="294" y="-7" type="curve"/>
      <point x="294" y="-21" type="line"/>
      <point x="294" y="-43"/>
      <point x="309" y="-59"/>
      <point x="331" y="-59" type="curve" smooth="yes"/>
      <point x="353" y="-59"/>
      <point x="369" y="-43"/>
      <point x="369" y="-21" type="curve"/>
      <point x="369" y="555" type="line"/>
      <point x="369" y="605"/>
      <point x="341" y="651"/>
      <point x="300" y="675" type="curve"/>
      <point x="276" y="715"/>
      <point x="233" y="743"/>
    </contour>
    <contour>
      <point x="244" y="458" type="line"/>
      <point x="244" y="429"/>
      <point x="220" y="405"/>
      <point x="191" y="405" type="curve"/>
      <point x="170" y="405" type="line"/>
      <point x="170" y="555" type="line"/>
      <point x="170" y="589"/>
      <point x="198" y="617"/>
      <point x="232" y="617" type="curve" smooth="yes"/>
      <point x="235" y="617"/>
      <point x="239" y="616"/>
      <point x="243" y="616" type="curve"/>
      <point x="243" y="612"/>
      <point x="244" y="608"/>
      <point x="244" y="605" type="curve"/>
    </contour>
  </outline>
</glyph>
<glyph name="B" format="1">
  <advance width="386"/>
  <unicode hex="0042"/>
  <outline>
    <contour>
      <point x="246" y="277" type="line"/>
      <point x="246" y="311"/>
      <point x="219" y="340"/>
      <point x="184" y="342" type="curve"/>
      <point x="95" y="342" type="line"/>
      <point x="95" y="127" type="line"/>
      <point x="95" y="85"/>
      <point x="129" y="51"/>
      <point x="171" y="51" type="curve" smooth="yes"/>
      <point x="212" y="51"/>
      <point x="246" y="85"/>
      <point x="246" y="127" type="curve"/>
    </contour>
    <contour>
      <point x="171" y="681" type="curve" smooth="yes"/>
      <point x="129" y="681"/>
      <point x="95" y="648"/>
      <point x="95" y="606" type="curve"/>
      <point x="95" y="393" type="line"/>
      <point x="185" y="393" type="line"/>
      <point x="219" y="395"/>
      <point x="246" y="423"/>
      <point x="246" y="459" type="curve"/>
      <point x="246" y="606" type="line"/>
      <point x="246" y="648"/>
      <point x="212" y="681"/>
    </contour>
    <contour>
      <point x="258" y="364" type="line"/>
      <point x="282" y="342"/>
      <point x="296" y="312"/>
      <point x="296" y="277" type="curve"/>
      <point x="296" y="127" type="line"/>
      <point x="296" y="57"/>
      <point x="240" y="0"/>
      <point x="171" y="0" type="curve" smooth="yes"/>
      <point x="142" y="0"/>
      <point x="116" y="10"/>
      <point x="95" y="26" type="curve"/>
      <point x="95" y="12"/>
      <point x="84" y="0"/>
      <point x="70" y="0" type="curve" smooth="yes"/>
      <point x="56" y="0"/>
      <point x="45" y="12"/>
      <point x="45" y="26" type="curve"/>
      <point x="45" y="607" type="line"/>
      <point x="45" y="676"/>
      <point x="101" y="732"/>
      <point x="171" y="732" type="curve" smooth="yes"/>
      <point x="240" y="732"/>
      <point x="296" y="675"/>
      <point x="296" y="606" type="curve"/>
      <point x="296" y="453" type="line"/>
      <point x="296" y="442"/>
      <point x="294" y="433"/>
      <point x="291" y="424" type="curve" smooth="yes"/>
      <point x="286" y="405"/>
      <point x="273" y="385"/>
      <point x="257" y="371" type="curve"/>
      <point x="253" y="368" type="line"/>
      <point x="257" y="365" type="line"/>
    </contour>
    <contour>
      <point x="171" y="742" type="curve" smooth="yes"/>
      <point x="95" y="742"/>
      <point x="35" y="682"/>
      <point x="35" y="607" type="curve"/>
      <point x="35" y="26" type="line"/>
      <point x="35" y="7"/>
      <point x="50" y="-10"/>
      <point x="70" y="-10" type="curve" smooth="yes"/>
      <point x="75" y="-10"/>
      <point x="80" y="-8"/>
      <point x="85" y="-6" type="curve"/>
      <point x="85" y="-24" type="line"/>
      <point x="85" y="-43"/>
      <point x="100" y="-60"/>
      <point x="120" y="-60" type="curve" smooth="yes"/>
      <point x="134" y="-60"/>
      <point x="145" y="-51"/>
      <point x="151" y="-40" type="curve"/>
      <point x="172" y="-53"/>
      <point x="194" y="-60"/>
      <point x="221" y="-60" type="curve" smooth="yes"/>
      <point x="296" y="-60"/>
      <point x="356" y="1"/>
      <point x="356" y="77" type="curve"/>
      <point x="356" y="227" type="line"/>
      <point x="356" y="263"/>
      <point x="342" y="294"/>
      <point x="319" y="317" type="curve"/>
      <point x="333" y="332"/>
      <point x="345" y="352"/>
      <point x="351" y="371" type="curve"/>
      <point x="350" y="371" type="line"/>
      <point x="354" y="382"/>
      <point x="356" y="392"/>
      <point x="356" y="403" type="curve"/>
      <point x="356" y="556" type="line"/>
      <point x="356" y="606"/>
      <point x="328" y="650"/>
      <point x="287" y="674" type="curve"/>
      <point x="264" y="714"/>
      <point x="221" y="742"/>
    </contour>
    <contour>
      <point x="236" y="127" type="line"/>
      <point x="236" y="91"/>
      <point x="207" y="61"/>
      <point x="171" y="61" type="curve" smooth="yes"/>
      <point x="166" y="61"/>
      <point x="161" y="62"/>
      <point x="157" y="63" type="curve"/>
      <point x="156" y="67"/>
      <point x="155" y="72"/>
      <point x="155" y="77" type="curve"/>
      <point x="155" y="282" type="line"/>
      <point x="234" y="282" type="line"/>
      <point x="236" y="282" type="line"/>
      <point x="236" y="277" type="line"/>
    </contour>
    <contour>
      <point x="221" y="621" type="curve" smooth="yes"/>
      <point x="225" y="621"/>
      <point x="230" y="620"/>
      <point x="234" y="619" type="curve"/>
      <point x="235" y="615"/>
      <point x="236" y="610"/>
      <point x="236" y="606" type="curve"/>
      <point x="236" y="459" type="line"/>
      <point x="236" y="428"/>
      <point x="213" y="405"/>
      <point x="185" y="403" type="curve"/>
      <point x="155" y="403" type="line"/>
      <point x="155" y="556" type="line"/>
      <point x="155" y="592"/>
      <point x="185" y="621"/>
    </contour>
    <contour>
      <point x="266" y="30" type="curve" smooth="yes"/>
      <point x="268" y="32"/>
      <point x="270" y="33"/>
      <point x="271" y="35" type="curve" smooth="yes"/>
      <point x="270" y="33"/>
      <point x="268" y="32"/>
    </contour>
  </outline>
</glyph>
<glyph name="C" format="1">
  <advance width="377"/>
  <unicode hex="0043"/>
  <outline>
    <contour>
      <point x="244" y="542" type="line"/>
      <point x="244" y="606" type="line"/>
      <point x="244" y="648"/>
      <point x="210" y="682"/>
      <point x="169" y="682" type="curve" smooth="yes"/>
      <point x="127" y="682"/>
      <point x="93" y="648"/>
      <point x="93" y="606" type="curve"/>
      <point x="93" y="127" type="line"/>
      <point x="93" y="84"/>
      <point x="127" y="51"/>
      <point x="169" y="51" type="curve" smooth="yes"/>
      <point x="210" y="51"/>
      <point x="244" y="84"/>
      <point x="244" y="127" type="curve"/>
      <point x="244" y="168" type="line"/>
      <point x="295" y="168" type="line"/>
      <point x="295" y="127" type="line"/>
      <point x="295" y="57"/>
      <point x="238" y="0"/>
      <point x="169" y="0" type="curve" smooth="yes"/>
      <point x="99" y="0"/>
      <point x="42" y="57"/>
      <point x="42" y="127" type="curve"/>
      <point x="42" y="606" type="line"/>
      <point x="42" y="676"/>
      <point x="99" y="733"/>
      <point x="169" y="733" type="curve" smooth="yes"/>
      <point x="238" y="733"/>
      <point x="295" y="676"/>
      <point x="295" y="606" type="curve"/>
      <point x="295" y="542" type="line"/>
    </contour>
    <contour>
      <point x="355" y="482" type="line"/>
      <point x="355" y="556" type="line"/>
      <point x="355" y="607"/>
      <point x="327" y="651"/>
      <point x="286" y="674" type="curve"/>
      <point x="263" y="715"/>
      <point x="218" y="743"/>
      <point x="169" y="743" type="curve" smooth="yes"/>
      <point x="93" y="743"/>
      <point x="32" y="682"/>
      <point x="32" y="606" type="curve"/>
      <point x="32" y="127" type="line"/>
      <point x="32" y="76"/>
      <point x="59" y="32"/>
      <point x="100" y="8" type="curve"/>
      <point x="124" y="-32"/>
      <point x="168" y="-60"/>
      <point x="219" y="-60" type="curve" smooth="yes"/>
      <point x="293" y="-60"/>
      <point x="355" y="1"/>
      <point x="355" y="77" type="curve"/>
      <point x="355" y="128" type="line"/>
      <point x="305" y="128" type="line"/>
      <point x="305" y="178" type="line"/>
      <point x="234" y="178" type="line"/>
      <point x="234" y="127" type="line"/>
      <point x="234" y="90"/>
      <point x="205" y="61"/>
      <point x="169" y="61" type="curve" smooth="yes"/>
      <point x="164" y="61"/>
      <point x="159" y="62"/>
      <point x="154" y="63" type="curve"/>
      <point x="153" y="67"/>
      <point x="153" y="72"/>
      <point x="153" y="77" type="curve"/>
      <point x="153" y="556" type="line"/>
      <point x="153" y="592"/>
      <point x="183" y="622"/>
      <point x="219" y="622" type="curve" smooth="yes"/>
      <point x="223" y="622"/>
      <point x="228" y="621"/>
      <point x="232" y="620" type="curve"/>
      <point x="233" y="615"/>
      <point x="234" y="611"/>
      <point x="234" y="606" type="curve"/>
      <point x="234" y="532" type="line"/>
      <point x="284" y="532" type="line"/>
      <point x="284" y="482" type="line"/>
    </contour>
    <contour>
      <point x="265" y="30" type="line"/>
      <point x="258" y="24" type="line"/>
    </contour>
  </outline>
</glyph>
<glyph name="D" format="1">
  <advance width="415"/>
  <unicode hex="0044"/>
  <outline>
    <contour>
      <point x="255" y="605" type="line"/>
      <point x="255" y="644"/>
      <point x="222" y="677"/>
      <point x="183" y="677" type="curve" smooth="yes"/>
      <point x="143" y="677"/>
      <point x="110" y="644"/>
      <point x="110" y="605" type="curve"/>
      <point x="110" y="128" type="line"/>
      <point x="110" y="89"/>
      <point x="143" y="56"/>
      <point x="183" y="56" type="curve" smooth="yes"/>
      <point x="222" y="56"/>
      <point x="255" y="89"/>
      <point x="255" y="128" type="curve"/>
    </contour>
    <contour>
      <point x="183" y="733" type="curve" smooth="yes"/>
      <point x="253" y="733"/>
      <point x="311" y="675"/>
      <point x="311" y="605" type="curve"/>
      <point x="311" y="128" type="line"/>
      <point x="311" y="58"/>
      <point x="253" y="0"/>
      <point x="183" y="0" type="curve" smooth="yes"/>
      <point x="155" y="0"/>
      <point x="130" y="9"/>
      <point x="110" y="22" type="curve"/>
      <point x="107" y="10"/>
      <point x="95" y="1"/>
      <point x="82" y="1" type="curve" smooth="yes"/>
      <point x="68" y="1"/>
      <point x="54" y="13"/>
      <point x="54" y="29" type="curve"/>
      <point x="54" y="704" type="line"/>
      <point x="54" y="720"/>
      <point x="68" y="732"/>
      <point x="82" y="732" type="curve" smooth="yes"/>
      <point x="95" y="732"/>
      <point x="107" y="723"/>
      <point x="110" y="710" type="curve"/>
      <point x="130" y="724"/>
      <point x="155" y="733"/>
    </contour>
    <contour>
      <point x="183" y="743" type="curve" smooth="yes"/>
      <point x="159" y="743"/>
      <point x="134" y="735"/>
      <point x="115" y="725" type="curve"/>
      <point x="108" y="738"/>
      <point x="97" y="742"/>
      <point x="82" y="742" type="curve" smooth="yes"/>
      <point x="63" y="742"/>
      <point x="44" y="726"/>
      <point x="44" y="704" type="curve"/>
      <point x="44" y="29" type="line"/>
      <point x="44" y="7"/>
      <point x="63" y="-9"/>
      <point x="82" y="-9" type="curve" smooth="yes"/>
      <point x="86" y="-9"/>
      <point x="90" y="-8"/>
      <point x="94" y="-7" type="curve"/>
      <point x="94" y="-21" type="line"/>
      <point x="94" y="-43"/>
      <point x="113" y="-59"/>
      <point x="132" y="-59" type="curve" smooth="yes"/>
      <point x="144" y="-59"/>
      <point x="158" y="-51"/>
      <point x="165" y="-42" type="curve"/>
      <point x="184" y="-51"/>
      <point x="210" y="-60"/>
      <point x="233" y="-60" type="curve" smooth="yes"/>
      <point x="308" y="-60"/>
      <point x="371" y="3"/>
      <point x="371" y="78" type="curve"/>
      <point x="371" y="555" type="line"/>
      <point x="371" y="605"/>
      <point x="343" y="650"/>
      <point x="302" y="674" type="curve"/>
      <point x="278" y="715"/>
      <point x="233" y="743"/>
    </contour>
    <contour>
      <point x="245" y="128" type="line"/>
      <point x="245" y="94"/>
      <point x="217" y="66"/>
      <point x="183" y="66" type="curve" smooth="yes"/>
      <point x="179" y="66"/>
      <point x="175" y="67"/>
      <point x="171" y="67" type="curve"/>
      <point x="170" y="71"/>
      <point x="170" y="74"/>
      <point x="170" y="78" type="curve"/>
      <point x="170" y="555" type="line"/>
      <point x="170" y="589"/>
      <point x="198" y="617"/>
      <point x="233" y="617" type="curve" smooth="yes"/>
      <point x="236" y="617"/>
      <point x="240" y="616"/>
      <point x="244" y="616" type="curve"/>
      <point x="244" y="612"/>
      <point x="245" y="608"/>
      <point x="245" y="605" type="curve"/>
    </contour>
  </outline>
</glyph>
<glyph name="E" format="1">
  <advance width="415"/>
  <unicode hex="0045"/>
  <outline>
    <contour>
      <point x="255" y="537" type="line"/>
      <point x="255" y="605" type="line"/>
      <point x="255" y="644"/>
      <point x="223" y="677"/>
      <point x="183" y="677" type="curve" smooth="yes"/>
      <point x="143" y="677"/>
      <point x="111" y="644"/>
      <point x="111" y="605" type="curve"/>
      <point x="111" y="395" type="line"/>
      <point x="192" y="395" type="line"/>
      <point x="226" y="395"/>
      <point x="255" y="423"/>
      <point x="255" y="458" type="curve" smooth="yes"/>
      <point x="255" y="474"/>
      <point x="266" y="486"/>
      <point x="283" y="486" type="curve" smooth="yes"/>
      <point x="297" y="486"/>
      <point x="311" y="474"/>
      <point x="311" y="458" type="curve" smooth="yes"/>
      <point x="311" y="393"/>
      <point x="259" y="339"/>
      <point x="192" y="339" type="curve"/>
      <point x="111" y="339" type="line"/>
      <point x="111" y="128" type="line"/>
      <point x="111" y="89"/>
      <point x="143" y="56"/>
      <point x="183" y="56" type="curve" smooth="yes"/>
      <point x="223" y="56"/>
      <point x="255" y="89"/>
      <point x="255" y="128" type="curve"/>
      <point x="255" y="172" type="line"/>
      <point x="311" y="172" type="line"/>
      <point x="311" y="128" type="line"/>
      <point x="311" y="58"/>
      <point x="253" y="0"/>
      <point x="183" y="0" type="curve" smooth="yes"/>
      <point x="113" y="0"/>
      <point x="54" y="58"/>
      <point x="54" y="128" type="curve"/>
      <point x="54" y="605" type="line"/>
      <point x="54" y="675"/>
      <point x="113" y="733"/>
      <point x="183" y="733" type="curve" smooth="yes"/>
      <point x="253" y="733"/>
      <point x="311" y="675"/>
      <point x="311" y="605" type="curve"/>
      <point x="311" y="537" type="line"/>
    </contour>
    <contour>
      <point x="371" y="477" type="line"/>
      <point x="371" y="555" type="line"/>
      <point x="371" y="605"/>
      <point x="343" y="650"/>
      <point x="302" y="674" type="curve"/>
      <point x="278" y="715"/>
      <point x="233" y="743"/>
      <point x="183" y="743" type="curve" smooth="yes"/>
      <point x="108" y="743"/>
      <point x="44" y="680"/>
      <point x="44" y="605" type="curve"/>
      <point x="44" y="128" type="line"/>
      <point x="44" y="78"/>
      <point x="72" y="33"/>
      <point x="113" y="9" type="curve"/>
      <point x="137" y="-32"/>
      <point x="183" y="-60"/>
      <point x="233" y="-60" type="curve" smooth="yes"/>
      <point x="308" y="-60"/>
      <point x="371" y="3"/>
      <point x="371" y="78" type="curve"/>
      <point x="371" y="132" type="line"/>
      <point x="321" y="132" type="line"/>
      <point x="321" y="182" type="line"/>
      <point x="245" y="182" type="line"/>
      <point x="245" y="128" type="line"/>
      <point x="245" y="94"/>
      <point x="217" y="66"/>
      <point x="183" y="66" type="curve" smooth="yes"/>
      <point x="179" y="66"/>
      <point x="175" y="66"/>
      <point x="172" y="67" type="curve"/>
      <point x="171" y="70"/>
      <point x="171" y="74"/>
      <point x="171" y="78" type="curve"/>
      <point x="171" y="279" type="line"/>
      <point x="242" y="279" type="line"/>
      <point x="315" y="279"/>
      <point x="371" y="338"/>
      <point x="371" y="408" type="curve" smooth="yes"/>
      <point x="371" y="430"/>
      <point x="352" y="446"/>
      <point x="333" y="446" type="curve" smooth="yes"/>
      <point x="328" y="446"/>
      <point x="324" y="445"/>
      <point x="320" y="444" type="curve"/>
      <point x="320" y="448"/>
      <point x="321" y="453"/>
      <point x="321" y="458" type="curve" smooth="yes"/>
      <point x="321" y="465"/>
      <point x="319" y="471"/>
      <point x="316" y="477" type="curve"/>
    </contour>
    <contour>
      <point x="283" y="496" type="curve" smooth="yes"/>
      <point x="260" y="496"/>
      <point x="245" y="480"/>
      <point x="245" y="458" type="curve" smooth="yes"/>
      <point x="245" y="429"/>
      <point x="221" y="405"/>
      <point x="192" y="405" type="curve"/>
      <point x="171" y="405" type="line"/>
      <point x="171" y="555" type="line"/>
      <point x="171" y="589"/>
      <point x="199" y="617"/>
      <point x="233" y="617" type="curve" smooth="yes"/>
      <point x="236" y="617"/>
      <point x="240" y="616"/>
      <point x="244" y="616" type="curve"/>
      <point x="244" y="612"/>
      <point x="245" y="608"/>
      <point x="245" y="605" type="curve"/>
      <point x="245" y="527" type="line"/>
      <point x="295" y="527" type="line"/>
      <point x="295" y="494" type="line"/>
      <point x="291" y="495"/>
      <point x="287" y="496"/>
    </contour>
  </outline>
</glyph>
<glyph name="F" format="1">
  <advance width="415"/>
  <unicode hex="0046"/>
  <outline>
    <contour>
      <point x="255" y="536" type="line"/>
      <point x="255" y="604" type="line"/>
      <point x="255" y="643"/>
      <point x="222" y="676"/>
      <point x="183" y="676" type="curve" smooth="yes"/>
      <point x="143" y="676"/>
      <point x="111" y="643"/>
      <point x="111" y="604" type="curve"/>
      <point x="111" y="395" type="line"/>
      <point x="192" y="395" type="line"/>
      <point x="226" y="395"/>
      <point x="255" y="422"/>
      <point x="255" y="457" type="curve" smooth="yes"/>
      <point x="255" y="473"/>
      <point x="266" y="485"/>
      <point x="283" y="485" type="curve" smooth="yes"/>
      <point x="297" y="485"/>
      <point x="311" y="473"/>
      <point x="311" y="457" type="curve" smooth="yes"/>
      <point x="311" y="392"/>
      <point x="258" y="339"/>
      <point x="192" y="339" type="curve"/>
      <point x="111" y="339" type="line"/>
      <point x="111" y="26" type="line"/>
      <point x="111" y="12"/>
      <point x="99" y="-2"/>
      <point x="82" y="-2" type="curve" smooth="yes"/>
      <point x="68" y="-2"/>
      <point x="54" y="12"/>
      <point x="54" y="26" type="curve"/>
      <point x="54" y="605" type="line"/>
      <point x="55" y="676"/>
      <point x="112" y="732"/>
      <point x="183" y="732" type="curve" smooth="yes"/>
      <point x="253" y="732"/>
      <point x="311" y="674"/>
      <point x="311" y="604" type="curve"/>
      <point x="311" y="536" type="line"/>
    </contour>
    <contour>
      <point x="371" y="476" type="line"/>
      <point x="371" y="554" type="line"/>
      <point x="371" y="604"/>
      <point x="343" y="649"/>
      <point x="302" y="673" type="curve"/>
      <point x="278" y="714"/>
      <point x="233" y="742"/>
      <point x="183" y="742" type="curve" smooth="yes"/>
      <point x="106" y="742"/>
      <point x="45" y="682"/>
      <point x="44" y="605" type="curve"/>
      <point x="44" y="26" type="line"/>
      <point x="44" y="7"/>
      <point x="63" y="-12"/>
      <point x="82" y="-12" type="curve" smooth="yes"/>
      <point x="86" y="-12"/>
      <point x="90" y="-11"/>
      <point x="94" y="-10" type="curve"/>
      <point x="94" y="-24" type="line"/>
      <point x="94" y="-43"/>
      <point x="113" y="-62"/>
      <point x="132" y="-62" type="curve" smooth="yes"/>
      <point x="155" y="-62"/>
      <point x="171" y="-43"/>
      <point x="171" y="-24" type="curve"/>
      <point x="171" y="279" type="line"/>
      <point x="242" y="279" type="line"/>
      <point x="314" y="279"/>
      <point x="371" y="336"/>
      <point x="371" y="407" type="curve" smooth="yes"/>
      <point x="371" y="429"/>
      <point x="352" y="445"/>
      <point x="333" y="445" type="curve" smooth="yes"/>
      <point x="328" y="445"/>
      <point x="324" y="444"/>
      <point x="320" y="443" type="curve"/>
      <point x="320" y="447"/>
      <point x="321" y="452"/>
      <point x="321" y="457" type="curve" smooth="yes"/>
      <point x="321" y="464"/>
      <point x="319" y="470"/>
      <point x="316" y="476" type="curve"/>
    </contour>
    <contour>
      <point x="283" y="495" type="curve" smooth="yes"/>
      <point x="260" y="495"/>
      <point x="245" y="479"/>
      <point x="245" y="457" type="curve" smooth="yes"/>
      <point x="245" y="428"/>
      <point x="221" y="405"/>
      <point x="192" y="405" type="curve"/>
      <point x="171" y="405" type="line"/>
      <point x="171" y="554" type="line"/>
      <point x="171" y="588"/>
      <point x="199" y="616"/>
      <point x="233" y="616" type="curve" smooth="yes"/>
      <point x="236" y="616"/>
      <point x="240" y="615"/>
      <point x="244" y="615" type="curve"/>
      <point x="244" y="611"/>
      <point x="245" y="607"/>
      <point x="245" y="604" type="curve"/>
      <point x="245" y="526" type="line"/>
      <point x="295" y="526" type="line"/>
      <point x="295" y="493" type="line"/>
      <point x="291" y="494"/>
      <point x="287" y="495"/>
    </contour>
  </outline>
</glyph>
<glyph name="G" format="1">
  <advance width="385"/>
  <unicode hex="0047"/>
  <outline>
    <contour>
      <point x="245" y="544" type="line"/>
      <point x="245" y="607" type="line"/>
      <point x="245" y="649"/>
      <point x="211" y="683"/>
      <point x="170" y="683" type="curve" smooth="yes"/>
      <point x="128" y="683"/>
      <point x="94" y="649"/>
      <point x="94" y="607" type="curve"/>
      <point x="94" y="128" type="line"/>
      <point x="94" y="86"/>
      <point x="128" y="52"/>
      <point x="170" y="52" type="curve" smooth="yes"/>
      <point x="211" y="52"/>
      <point x="245" y="86"/>
      <point x="245" y="128" type="curve"/>
      <point x="245" y="343" type="line"/>
      <point x="215" y="343" type="line"/>
      <point x="180" y="343"/>
      <point x="176" y="288"/>
      <point x="176" y="251" type="curve" smooth="yes"/>
      <point x="176" y="236"/>
      <point x="165" y="226"/>
      <point x="150" y="226" type="curve" smooth="yes"/>
      <point x="136" y="226"/>
      <point x="125" y="236"/>
      <point x="125" y="251" type="curve" smooth="yes"/>
      <point x="125" y="314"/>
      <point x="149" y="394"/>
      <point x="215" y="394" type="curve"/>
      <point x="271" y="394" type="line"/>
      <point x="284" y="394"/>
      <point x="296" y="383"/>
      <point x="296" y="369" type="curve"/>
      <point x="296" y="128" type="line"/>
      <point x="296" y="58"/>
      <point x="239" y="1"/>
      <point x="170" y="1" type="curve" smooth="yes"/>
      <point x="100" y="1"/>
      <point x="43" y="58"/>
      <point x="43" y="128" type="curve"/>
      <point x="43" y="607" type="line"/>
      <point x="43" y="677"/>
      <point x="100" y="734"/>
      <point x="170" y="734" type="curve" smooth="yes"/>
      <point x="239" y="734"/>
      <point x="296" y="677"/>
      <point x="296" y="607" type="curve"/>
      <point x="296" y="544" type="line"/>
    </contour>
    <contour>
      <point x="356" y="484" type="line"/>
      <point x="356" y="557" type="line"/>
      <point x="356" y="608"/>
      <point x="328" y="652"/>
      <point x="287" y="675" type="curve"/>
      <point x="264" y="716"/>
      <point x="219" y="744"/>
      <point x="170" y="744" type="curve" smooth="yes"/>
      <point x="94" y="744"/>
      <point x="33" y="683"/>
      <point x="33" y="607" type="curve"/>
      <point x="33" y="128" type="line"/>
      <point x="33" y="77"/>
      <point x="60" y="33"/>
      <point x="101" y="9" type="curve"/>
      <point x="125" y="-31"/>
      <point x="169" y="-59"/>
      <point x="220" y="-59" type="curve" smooth="yes"/>
      <point x="294" y="-59"/>
      <point x="356" y="2"/>
      <point x="356" y="78" type="curve"/>
      <point x="356" y="319" type="line"/>
      <point x="356" y="339"/>
      <point x="339" y="354"/>
      <point x="321" y="354" type="curve"/>
      <point x="306" y="354" type="line"/>
      <point x="306" y="369" type="line"/>
      <point x="306" y="389"/>
      <point x="289" y="404"/>
      <point x="271" y="404" type="curve"/>
      <point x="215" y="404" type="line"/>
      <point x="189" y="404"/>
      <point x="169" y="393"/>
      <point x="154" y="376" type="curve"/>
      <point x="154" y="557" type="line"/>
      <point x="154" y="593"/>
      <point x="184" y="623"/>
      <point x="220" y="623" type="curve" smooth="yes"/>
      <point x="224" y="623"/>
      <point x="229" y="622"/>
      <point x="233" y="621" type="curve"/>
      <point x="234" y="616"/>
      <point x="235" y="612"/>
      <point x="235" y="607" type="curve"/>
      <point x="235" y="534" type="line"/>
      <point x="285" y="534" type="line"/>
      <point x="285" y="484" type="line"/>
    </contour>
    <contour>
      <point x="165" y="219" type="curve"/>
      <point x="165" y="201" type="line"/>
      <point x="165" y="180"/>
      <point x="180" y="166"/>
      <point x="200" y="166" type="curve" smooth="yes"/>
      <point x="217" y="166"/>
      <point x="231" y="176"/>
      <point x="235" y="191" type="curve"/>
      <point x="235" y="128" type="line"/>
      <point x="235" y="92"/>
      <point x="206" y="62"/>
      <point x="170" y="62" type="curve" smooth="yes"/>
      <point x="165" y="62"/>
      <point x="160" y="63"/>
      <point x="156" y="64" type="curve"/>
      <point x="155" y="68"/>
      <point x="154" y="73"/>
      <point x="154" y="78" type="curve"/>
      <point x="154" y="216" type="line"/>
      <point x="158" y="216"/>
      <point x="162" y="217"/>
    </contour>
    <contour>
      <point x="209" y="332" type="curve"/>
      <point x="203" y="326"/>
      <point x="197" y="320"/>
      <point x="193" y="312" type="curve"/>
      <point x="196" y="322"/>
      <point x="201" y="329"/>
    </contour>
  </outline>
</glyph>
<glyph name="H" format="1">
  <advance width="402"/>
  <unicode hex="0048"/>
  <outline>
    <contour>
      <point x="277" y="733" type="curve" smooth="yes"/>
      <point x="290" y="733"/>
      <point x="302" y="721"/>
      <point x="302" y="707" type="curve"/>
      <point x="302" y="26" type="line"/>
      <point x="302" y="13"/>
      <point x="290" y="1"/>
      <point x="277" y="1" type="curve" smooth="yes"/>
      <point x="262" y="1"/>
      <point x="251" y="13"/>
      <point x="251" y="26" type="curve"/>
      <point x="251" y="361" type="line"/>
      <point x="233" y="349"/>
      <point x="209" y="341"/>
      <point x="185" y="341" type="curve"/>
      <point x="100" y="341" type="line"/>
      <point x="100" y="26" type="line"/>
      <point x="100" y="12"/>
      <point x="88" y="0"/>
      <point x="75" y="0" type="curve" smooth="yes"/>
      <point x="61" y="0"/>
      <point x="49" y="12"/>
      <point x="49" y="26" type="curve"/>
      <point x="49" y="707" type="line"/>
      <point x="49" y="721"/>
      <point x="61" y="732"/>
      <point x="75" y="732" type="curve" smooth="yes"/>
      <point x="88" y="732"/>
      <point x="100" y="721"/>
      <point x="100" y="707" type="curve"/>
      <point x="100" y="393" type="line"/>
      <point x="185" y="393" type="line"/>
      <point x="222" y="393"/>
      <point x="251" y="422"/>
      <point x="251" y="458" type="curve"/>
      <point x="251" y="707" type="line"/>
      <point x="251" y="721"/>
      <point x="262" y="733"/>
    </contour>
    <contour>
      <point x="327" y="693" type="curve" smooth="yes"/>
      <point x="321" y="693"/>
      <point x="316" y="692"/>
      <point x="312" y="690" type="curve"/>
      <point x="312" y="707" type="line"/>
      <point x="312" y="726"/>
      <point x="295" y="743"/>
      <point x="277" y="743" type="curve" smooth="yes"/>
      <point x="256" y="743"/>
      <point x="241" y="726"/>
      <point x="241" y="707" type="curve"/>
      <point x="241" y="458" type="line"/>
      <point x="241" y="428"/>
      <point x="216" y="403"/>
      <point x="185" y="403" type="curve"/>
      <point x="160" y="403" type="line"/>
      <point x="160" y="657" type="line"/>
      <point x="160" y="677"/>
      <point x="143" y="692"/>
      <point x="125" y="692" type="curve" smooth="yes"/>
      <point x="120" y="692"/>
      <point x="114" y="691"/>
      <point x="110" y="689" type="curve"/>
      <point x="110" y="707" type="line"/>
      <point x="110" y="727"/>
      <point x="93" y="742"/>
      <point x="75" y="742" type="curve" smooth="yes"/>
      <point x="56" y="742"/>
      <point x="39" y="727"/>
      <point x="39" y="707" type="curve"/>
      <point x="39" y="26" type="line"/>
      <point x="39" y="7"/>
      <point x="56" y="-10"/>
      <point x="75" y="-10" type="curve" smooth="yes"/>
      <point x="80" y="-10"/>
      <point x="84" y="-8"/>
      <point x="89" y="-6" type="curve"/>
      <point x="89" y="-24" type="line"/>
      <point x="89" y="-43"/>
      <point x="106" y="-60"/>
      <point x="125" y="-60" type="curve" smooth="yes"/>
      <point x="143" y="-60"/>
      <point x="160" y="-43"/>
      <point x="160" y="-24" type="curve"/>
      <point x="160" y="281" type="line"/>
      <point x="235" y="281" type="line"/>
      <point x="241" y="281" type="line"/>
      <point x="241" y="26" type="line"/>
      <point x="241" y="8"/>
      <point x="256" y="-9"/>
      <point x="277" y="-9" type="curve" smooth="yes"/>
      <point x="282" y="-9"/>
      <point x="286" y="-7"/>
      <point x="291" y="-5" type="curve"/>
      <point x="291" y="-24" type="line"/>
      <point x="291" y="-42"/>
      <point x="306" y="-59"/>
      <point x="327" y="-59" type="curve" smooth="yes"/>
      <point x="345" y="-59"/>
      <point x="362" y="-42"/>
      <point x="362" y="-24" type="curve"/>
      <point x="362" y="657" type="line"/>
      <point x="362" y="676"/>
      <point x="345" y="693"/>
    </contour>
  </outline>
</glyph>
<glyph name="I" format="1">
  <advance width="261"/>
  <unicode hex="0049"/>
  <outline>
    <contour>
      <point x="177" y="67" type="curve" smooth="yes"/>
      <point x="177" y="18"/>
      <point x="153" y="4"/>
      <point x="115" y="1" type="curve"/>
      <point x="112" y="0"/>
      <point x="107" y="-1"/>
      <point x="105" y="-1" type="curve" smooth="yes"/>
      <point x="102" y="-1"/>
      <point x="99" y="-1"/>
      <point x="97" y="0" type="curve"/>
      <point x="62" y="0" type="line"/>
      <point x="47" y="0"/>
      <point x="37" y="11"/>
      <point x="37" y="25" type="curve" smooth="yes"/>
      <point x="37" y="39"/>
      <point x="47" y="50"/>
      <point x="62" y="50" type="curve"/>
      <point x="68" y="50" type="line"/>
      <point x="75" y="50"/>
      <point x="74" y="51"/>
      <point x="80" y="50" type="curve"/>
      <point x="80" y="651" type="line"/>
      <point x="75" y="644"/>
      <point x="67" y="640"/>
      <point x="58" y="640" type="curve" smooth="yes"/>
      <point x="44" y="640"/>
      <point x="34" y="651"/>
      <point x="34" y="665" type="curve" smooth="yes"/>
      <point x="34" y="732"/>
      <point x="78" y="732"/>
      <point x="142" y="732" type="curve"/>
      <point x="148" y="732" type="line"/>
      <point x="163" y="732"/>
      <point x="174" y="721"/>
      <point x="174" y="707" type="curve" smooth="yes"/>
      <point x="174" y="693"/>
      <point x="163" y="681"/>
      <point x="148" y="681" type="curve"/>
      <point x="130" y="681" type="line"/>
      <point x="130" y="79" type="line"/>
      <point x="134" y="86"/>
      <point x="142" y="92"/>
      <point x="151" y="92" type="curve" smooth="yes"/>
      <point x="166" y="92"/>
      <point x="177" y="80"/>
    </contour>
    <contour>
      <point x="237" y="17" type="curve" smooth="yes"/>
      <point x="237" y="35"/>
      <point x="222" y="52"/>
      <point x="201" y="52" type="curve" smooth="yes"/>
      <point x="197" y="52"/>
      <point x="193" y="51"/>
      <point x="190" y="50" type="curve"/>
      <point x="190" y="621" type="line"/>
      <point x="198" y="621" type="line"/>
      <point x="219" y="621"/>
      <point x="234" y="638"/>
      <point x="234" y="657" type="curve" smooth="yes"/>
      <point x="234" y="677"/>
      <point x="219" y="692"/>
      <point x="198" y="692" type="curve"/>
      <point x="192" y="692" type="line"/>
      <point x="181" y="692" type="line"/>
      <point x="183" y="696"/>
      <point x="184" y="702"/>
      <point x="184" y="707" type="curve" smooth="yes"/>
      <point x="184" y="727"/>
      <point x="169" y="742"/>
      <point x="148" y="742" type="curve"/>
      <point x="142" y="742" type="line"/>
      <point x="72" y="742"/>
      <point x="24" y="742"/>
      <point x="24" y="665" type="curve" smooth="yes"/>
      <point x="24" y="645"/>
      <point x="38" y="630"/>
      <point x="58" y="630" type="curve" smooth="yes"/>
      <point x="62" y="630"/>
      <point x="67" y="631"/>
      <point x="70" y="632" type="curve"/>
      <point x="70" y="60" type="line"/>
      <point x="62" y="60" type="line"/>
      <point x="41" y="60"/>
      <point x="27" y="45"/>
      <point x="27" y="25" type="curve" smooth="yes"/>
      <point x="27" y="5"/>
      <point x="41" y="-10"/>
      <point x="62" y="-10" type="curve"/>
      <point x="80" y="-10" type="line"/>
      <point x="78" y="-14"/>
      <point x="77" y="-19"/>
      <point x="77" y="-25" type="curve" smooth="yes"/>
      <point x="77" y="-45"/>
      <point x="91" y="-60"/>
      <point x="112" y="-60" type="curve"/>
      <point x="145" y="-60" type="line"/>
      <point x="149" y="-61"/>
      <point x="151" y="-61"/>
      <point x="155" y="-61" type="curve" smooth="yes"/>
      <point x="157" y="-61"/>
      <point x="162" y="-60"/>
      <point x="167" y="-58" type="curve"/>
      <point x="166" y="-59" type="line"/>
      <point x="210" y="-55"/>
      <point x="237" y="-39"/>
    </contour>
  </outline>
</glyph>
<glyph name="J" format="1">
  <advance width="361"/>
  <unicode hex="004A"/>
  <outline>
    <contour>
      <point x="228" y="734" type="line"/>
      <point x="243" y="734"/>
      <point x="257" y="720"/>
      <point x="257" y="706" type="curve" smooth="yes"/>
      <point x="257" y="689"/>
      <point x="243" y="678"/>
      <point x="228" y="678" type="curve"/>
      <point x="222" y="678" type="line"/>
      <point x="215" y="678"/>
      <point x="217" y="677"/>
      <point x="211" y="678" type="curve"/>
      <point x="211" y="129" type="line"/>
      <point x="211" y="59"/>
      <point x="152" y="1"/>
      <point x="82" y="1" type="curve" smooth="yes"/>
      <point x="68" y="1"/>
      <point x="54" y="13"/>
      <point x="54" y="29" type="curve" smooth="yes"/>
      <point x="54" y="44"/>
      <point x="68" y="57"/>
      <point x="82" y="57" type="curve" smooth="yes"/>
      <point x="122" y="57"/>
      <point x="154" y="90"/>
      <point x="154" y="129" type="curve"/>
      <point x="154" y="641" type="line"/>
      <point x="149" y="638"/>
      <point x="145" y="637"/>
      <point x="139" y="637" type="curve" smooth="yes"/>
      <point x="124" y="637"/>
      <point x="111" y="648"/>
      <point x="111" y="664" type="curve" smooth="yes"/>
      <point x="111" y="734"/>
      <point x="156" y="734"/>
      <point x="222" y="734" type="curve"/>
    </contour>
    <contour>
      <point x="278" y="694" type="curve"/>
      <point x="272" y="694" type="line"/>
      <point x="265" y="694" type="line"/>
      <point x="266" y="697"/>
      <point x="267" y="702"/>
      <point x="267" y="706" type="curve" smooth="yes"/>
      <point x="267" y="725"/>
      <point x="248" y="744"/>
      <point x="228" y="744" type="curve"/>
      <point x="222" y="744" type="line"/>
      <point x="150" y="744"/>
      <point x="101" y="744"/>
      <point x="101" y="664" type="curve" smooth="yes"/>
      <point x="101" y="642"/>
      <point x="119" y="627"/>
      <point x="139" y="627" type="curve"/>
      <point x="144" y="627" type="line"/>
      <point x="144" y="129" type="line"/>
      <point x="144" y="95"/>
      <point x="116" y="67"/>
      <point x="82" y="67" type="curve" smooth="yes"/>
      <point x="63" y="67"/>
      <point x="44" y="49"/>
      <point x="44" y="29" type="curve" smooth="yes"/>
      <point x="44" y="7"/>
      <point x="63" y="-9"/>
      <point x="82" y="-9" type="curve" smooth="yes"/>
      <point x="87" y="-9"/>
      <point x="91" y="-8"/>
      <point x="96" y="-8" type="curve"/>
      <point x="95" y="-12"/>
      <point x="94" y="-16"/>
      <point x="94" y="-21" type="curve" smooth="yes"/>
      <point x="94" y="-43"/>
      <point x="113" y="-59"/>
      <point x="132" y="-59" type="curve" smooth="yes"/>
      <point x="207" y="-59"/>
      <point x="271" y="4"/>
      <point x="271" y="79" type="curve"/>
      <point x="271" y="618" type="line"/>
      <point x="278" y="618" type="line"/>
      <point x="298" y="618"/>
      <point x="317" y="633"/>
      <point x="317" y="656" type="curve" smooth="yes"/>
      <point x="317" y="675"/>
      <point x="298" y="694"/>
    </contour>
  </outline>
</glyph>
<glyph name="K" format="1">
  <advance width="445"/>
  <unicode hex="004B"/>
  <outline>
    <contour>
      <point x="341" y="722" type="line"/>
      <point x="354" y="716"/>
      <point x="359" y="702"/>
      <point x="355" y="690" type="curve" smooth="yes"/>
      <point x="349" y="677"/>
      <point x="334" y="671"/>
      <point x="322" y="676" type="curve" smooth="yes"/>
      <point x="314" y="679"/>
      <point x="306" y="680"/>
      <point x="297" y="680" type="curve" smooth="yes"/>
      <point x="266" y="680"/>
      <point x="238" y="663"/>
      <point x="228" y="637" type="curve"/>
      <point x="114" y="397" type="line"/>
      <point x="113" y="394"/>
      <point x="115" y="394"/>
      <point x="112" y="393" type="curve"/>
      <point x="115" y="387" type="line"/>
      <point x="114" y="388" type="line"/>
      <point x="236" y="99" type="line"/>
      <point x="249" y="70"/>
      <point x="264" y="51"/>
      <point x="287" y="51" type="curve" smooth="yes"/>
      <point x="294" y="51"/>
      <point x="303" y="53"/>
      <point x="311" y="56" type="curve" smooth="yes"/>
      <point x="325" y="62"/>
      <point x="340" y="56"/>
      <point x="345" y="43" type="curve" smooth="yes"/>
      <point x="351" y="30"/>
      <point x="344" y="16"/>
      <point x="331" y="10" type="curve" smooth="yes"/>
      <point x="315" y="3"/>
      <point x="302" y="0"/>
      <point x="288" y="0" type="curve" smooth="yes"/>
      <point x="246" y="0"/>
      <point x="209" y="35"/>
      <point x="190" y="79" type="curve"/>
      <point x="158" y="155"/>
      <point x="133" y="212"/>
      <point x="100" y="289" type="curve"/>
      <point x="100" y="26" type="line"/>
      <point x="100" y="11"/>
      <point x="90" y="0"/>
      <point x="76" y="0" type="curve" smooth="yes"/>
      <point x="61" y="0"/>
      <point x="50" y="11"/>
      <point x="50" y="26" type="curve"/>
      <point x="50" y="604" type="line"/>
      <point x="50" y="674"/>
      <point x="67" y="731"/>
      <point x="139" y="731" type="curve" smooth="yes"/>
      <point x="152" y="731"/>
      <point x="163" y="720"/>
      <point x="163" y="706" type="curve" smooth="yes"/>
      <point x="163" y="692"/>
      <point x="152" y="680"/>
      <point x="139" y="680" type="curve" smooth="yes"/>
      <point x="99" y="680"/>
      <point x="100" y="647"/>
      <point x="100" y="604" type="curve"/>
      <point x="100" y="487" type="line"/>
      <point x="127" y="543"/>
      <point x="152" y="595"/>
      <point x="178" y="651" type="curve"/>
      <point x="177" y="651" type="line"/>
      <point x="197" y="700"/>
      <point x="244" y="731"/>
      <point x="296" y="731" type="curve" smooth="yes"/>
      <point x="310" y="731"/>
      <point x="326" y="728"/>
      <point x="340" y="723" type="curve"/>
    </contour>
    <contour>
      <point x="396" y="681" type="line"/>
      <point x="385" y="684"/>
      <point x="374" y="688"/>
      <point x="364" y="689" type="curve"/>
      <point x="367" y="706"/>
      <point x="361" y="723"/>
      <point x="345" y="731" type="curve"/>
      <point x="346" y="731" type="line"/>
      <point x="328" y="737"/>
      <point x="310" y="741"/>
      <point x="296" y="741" type="curve" smooth="yes"/>
      <point x="255" y="741"/>
      <point x="216" y="721"/>
      <point x="190" y="691" type="curve"/>
      <point x="189" y="691" type="line"/>
      <point x="182" y="691"/>
      <point x="175" y="690"/>
      <point x="169" y="689" type="curve"/>
      <point x="171" y="694"/>
      <point x="173" y="700"/>
      <point x="173" y="706" type="curve" smooth="yes"/>
      <point x="173" y="726"/>
      <point x="157" y="741"/>
      <point x="139" y="741" type="curve" smooth="yes"/>
      <point x="59" y="741"/>
      <point x="40" y="680"/>
      <point x="40" y="604" type="curve"/>
      <point x="40" y="26" type="line"/>
      <point x="40" y="5"/>
      <point x="55" y="-10"/>
      <point x="76" y="-10" type="curve" smooth="yes"/>
      <point x="81" y="-10"/>
      <point x="86" y="-9"/>
      <point x="90" y="-7" type="curve"/>
      <point x="90" y="-24" type="line"/>
      <point x="90" y="-45"/>
      <point x="105" y="-60"/>
      <point x="126" y="-60" type="curve" smooth="yes"/>
      <point x="146" y="-60"/>
      <point x="160" y="-45"/>
      <point x="160" y="-24" type="curve"/>
      <point x="160" y="124" type="line"/>
      <point x="181" y="75" type="line"/>
      <point x="195" y="44"/>
      <point x="216" y="17"/>
      <point x="243" y="2" type="curve"/>
      <point x="265" y="-34"/>
      <point x="300" y="-60"/>
      <point x="338" y="-60" type="curve" smooth="yes"/>
      <point x="353" y="-60"/>
      <point x="368" y="-57"/>
      <point x="385" y="-49" type="curve" smooth="yes"/>
      <point x="403" y="-41"/>
      <point x="412" y="-21"/>
      <point x="404" y="-3" type="curve" smooth="yes"/>
      <point x="397" y="15"/>
      <point x="376" y="23"/>
      <point x="357" y="15" type="curve" smooth="yes"/>
      <point x="354" y="14"/>
      <point x="352" y="13"/>
      <point x="350" y="13" type="curve"/>
      <point x="357" y="22"/>
      <point x="359" y="35"/>
      <point x="354" y="47" type="curve" smooth="yes"/>
      <point x="347" y="65"/>
      <point x="326" y="73"/>
      <point x="307" y="65" type="curve" smooth="yes"/>
      <point x="301" y="63"/>
      <point x="296" y="61"/>
      <point x="291" y="61" type="curve"/>
      <point x="173" y="340" type="line"/>
      <point x="174" y="342"/>
      <point x="174" y="343"/>
      <point x="174" y="345" type="curve"/>
      <point x="287" y="583" type="line"/>
      <point x="295" y="605"/>
      <point x="320" y="620"/>
      <point x="347" y="620" type="curve" smooth="yes"/>
      <point x="355" y="620"/>
      <point x="362" y="619"/>
      <point x="368" y="617" type="curve" smooth="yes"/>
      <point x="386" y="610"/>
      <point x="406" y="617"/>
      <point x="413" y="633" type="curve"/>
      <point x="419" y="652"/>
      <point x="413" y="672"/>
      <point x="395" y="681" type="curve"/>
    </contour>
    <contour>
      <point x="256" y="657" type="curve" smooth="yes"/>
      <point x="251" y="653"/>
      <point x="246" y="647"/>
      <point x="241" y="642" type="curve"/>
      <point x="245" y="648"/>
      <point x="250" y="653"/>
    </contour>
    <contour>
      <point x="174" y="338" type="line"/>
      <point x="173" y="340" type="line"/>
    </contour>
  </outline>
</glyph>
<glyph name="L" format="1">
  <advance width="319"/>
  <unicode hex="004C"/>
  <outline>
    <contour>
      <point x="233" y="51" type="line"/>
      <point x="247" y="51"/>
      <point x="258" y="39"/>
      <point x="258" y="26" type="curve" smooth="yes"/>
      <point x="258" y="11"/>
      <point x="247" y="0"/>
      <point x="233" y="0" type="curve" smooth="yes"/>
      <point x="164" y="0"/>
      <point x="49" y="8"/>
      <point x="49" y="84" type="curve"/>
      <point x="49" y="707" type="line"/>
      <point x="49" y="721"/>
      <point x="61" y="733"/>
      <point x="74" y="733" type="curve" smooth="yes"/>
      <point x="89" y="733"/>
      <point x="100" y="721"/>
      <point x="100" y="707" type="curve"/>
      <point x="100" y="84" type="line"/>
      <point x="100" y="51"/>
      <point x="179" y="51"/>
      <point x="225" y="51" type="curve"/>
    </contour>
    <contour>
      <point x="283" y="11" type="curve"/>
      <point x="275" y="11" type="line"/>
      <point x="265" y="11" type="line"/>
      <point x="267" y="15"/>
      <point x="268" y="20"/>
      <point x="268" y="26" type="curve" smooth="yes"/>
      <point x="268" y="44"/>
      <point x="253" y="61"/>
      <point x="233" y="61" type="curve"/>
      <point x="225" y="61" type="line"/>
      <point x="206" y="61"/>
      <point x="181" y="61"/>
      <point x="160" y="63" type="curve"/>
      <point x="160" y="657" type="line"/>
      <point x="160" y="676"/>
      <point x="145" y="693"/>
      <point x="124" y="693" type="curve" smooth="yes"/>
      <point x="119" y="693"/>
      <point x="114" y="691"/>
      <point x="110" y="689" type="curve"/>
      <point x="110" y="707" type="line"/>
      <point x="110" y="726"/>
      <point x="95" y="743"/>
      <point x="74" y="743" type="curve" smooth="yes"/>
      <point x="56" y="743"/>
      <point x="39" y="726"/>
      <point x="39" y="707" type="curve"/>
      <point x="39" y="84" type="line"/>
      <point x="39" y="47"/>
      <point x="61" y="25"/>
      <point x="92" y="11" type="curve"/>
      <point x="112" y="-53"/>
      <point x="217" y="-60"/>
      <point x="283" y="-60" type="curve" smooth="yes"/>
      <point x="303" y="-60"/>
      <point x="318" y="-45"/>
      <point x="318" y="-24" type="curve" smooth="yes"/>
      <point x="318" y="-6"/>
      <point x="303" y="11"/>
    </contour>
  </outline>
</glyph>
<glyph name="M" format="1">
  <advance width="604"/>
  <unicode hex="004D"/>
  <outline>
    <contour>
      <point x="378" y="734" type="curve" smooth="yes"/>
      <point x="447" y="734"/>
      <point x="504" y="677"/>
      <point x="504" y="607" type="curve"/>
      <point x="504" y="26" type="line"/>
      <point x="504" y="12"/>
      <point x="493" y="1"/>
      <point x="479" y="1" type="curve" smooth="yes"/>
      <point x="465" y="1"/>
      <point x="453" y="12"/>
      <point x="453" y="26" type="curve"/>
      <point x="453" y="607" type="line"/>
      <point x="453" y="649"/>
      <point x="420" y="683"/>
      <point x="378" y="683" type="curve" smooth="yes"/>
      <point x="338" y="683"/>
      <point x="305" y="652"/>
      <point x="303" y="612" type="curve"/>
      <point x="303" y="367" type="line"/>
      <point x="303" y="353"/>
      <point x="291" y="342"/>
      <point x="278" y="342" type="curve" smooth="yes"/>
      <point x="274" y="342"/>
      <point x="272" y="342"/>
      <point x="268" y="344" type="curve" smooth="yes"/>
      <point x="259" y="348"/>
      <point x="252" y="358"/>
      <point x="252" y="368" type="curve"/>
      <point x="252" y="612" type="line"/>
      <point x="250" y="652"/>
      <point x="218" y="683"/>
      <point x="178" y="683" type="curve" smooth="yes"/>
      <point x="135" y="683"/>
      <point x="102" y="649"/>
      <point x="102" y="607" type="curve"/>
      <point x="102" y="26" type="line"/>
      <point x="102" y="12"/>
      <point x="90" y="1"/>
      <point x="77" y="1" type="curve" smooth="yes"/>
      <point x="63" y="1"/>
      <point x="51" y="12"/>
      <point x="51" y="26" type="curve"/>
      <point x="51" y="607" type="line"/>
      <point x="51" y="677"/>
      <point x="108" y="734"/>
      <point x="178" y="734" type="curve" smooth="yes"/>
      <point x="218" y="734"/>
      <point x="255" y="713"/>
      <point x="278" y="684" type="curve"/>
      <point x="300" y="713"/>
      <point x="338" y="734"/>
    </contour>
    <contour>
      <point x="378" y="744" type="curve" smooth="yes"/>
      <point x="340" y="744"/>
      <point x="303" y="725"/>
      <point x="278" y="699" type="curve"/>
      <point x="253" y="724"/>
      <point x="216" y="744"/>
      <point x="178" y="744" type="curve" smooth="yes"/>
      <point x="102" y="744"/>
      <point x="41" y="683"/>
      <point x="41" y="607" type="curve"/>
      <point x="41" y="26" type="line"/>
      <point x="41" y="6"/>
      <point x="58" y="-9"/>
      <point x="77" y="-9" type="curve" smooth="yes"/>
      <point x="82" y="-9"/>
      <point x="86" y="-8"/>
      <point x="91" y="-6" type="curve"/>
      <point x="91" y="-24" type="line"/>
      <point x="91" y="-44"/>
      <point x="108" y="-59"/>
      <point x="127" y="-59" type="curve" smooth="yes"/>
      <point x="145" y="-59"/>
      <point x="162" y="-44"/>
      <point x="162" y="-24" type="curve"/>
      <point x="162" y="557" type="line"/>
      <point x="162" y="593"/>
      <point x="191" y="623"/>
      <point x="228" y="623" type="curve" smooth="yes"/>
      <point x="232" y="623"/>
      <point x="236" y="623"/>
      <point x="240" y="622" type="curve"/>
      <point x="241" y="619"/>
      <point x="242" y="615"/>
      <point x="242" y="612" type="curve"/>
      <point x="242" y="368" type="line"/>
      <point x="242" y="354"/>
      <point x="252" y="341"/>
      <point x="264" y="335" type="curve" smooth="yes"/>
      <point x="270" y="332"/>
      <point x="273" y="332"/>
      <point x="278" y="332" type="curve" smooth="yes"/>
      <point x="283" y="332"/>
      <point x="287" y="333"/>
      <point x="292" y="335" type="curve"/>
      <point x="292" y="318" type="line"/>
      <point x="292" y="304"/>
      <point x="302" y="291"/>
      <point x="314" y="285" type="curve" smooth="yes"/>
      <point x="320" y="282"/>
      <point x="323" y="282"/>
      <point x="328" y="282" type="curve" smooth="yes"/>
      <point x="346" y="282"/>
      <point x="363" y="297"/>
      <point x="363" y="317" type="curve"/>
      <point x="363" y="562" type="line"/>
      <point x="365" y="596"/>
      <point x="393" y="623"/>
      <point x="428" y="623" type="curve" smooth="yes"/>
      <point x="432" y="623"/>
      <point x="437" y="622"/>
      <point x="441" y="621" type="curve"/>
      <point x="442" y="616"/>
      <point x="443" y="612"/>
      <point x="443" y="607" type="curve"/>
      <point x="443" y="26" type="line"/>
      <point x="443" y="6"/>
      <point x="460" y="-9"/>
      <point x="479" y="-9" type="curve" smooth="yes"/>
      <point x="484" y="-9"/>
      <point x="489" y="-8"/>
      <point x="493" y="-6" type="curve"/>
      <point x="493" y="-24" type="line"/>
      <point x="493" y="-44"/>
      <point x="510" y="-59"/>
      <point x="529" y="-59" type="curve" smooth="yes"/>
      <point x="549" y="-59"/>
      <point x="564" y="-44"/>
      <point x="564" y="-24" type="curve"/>
      <point x="564" y="557" type="line"/>
      <point x="564" y="608"/>
      <point x="536" y="652"/>
      <point x="495" y="675" type="curve"/>
      <point x="472" y="716"/>
      <point x="427" y="744"/>
    </contour>
    <contour>
      <point x="344" y="664" type="curve"/>
      <point x="328" y="649" type="line"/>
      <point x="327" y="649" type="line"/>
      <point x="332" y="655"/>
      <point x="338" y="660"/>
    </contour>
  </outline>
</glyph>
